<svg width="64" height="64" viewBox="0 0 64 64" fill="none" xmlns="http://www.w3.org/2000/svg">
<path d="M0.5 11.5H63.5V58.5H0.5V11.5Z" fill="#E7E6E6"/>
<path d="M53.829 17.382C55.141 17.382 56.205 18.373 56.205 19.594V28.862C56.205 30.084 55.142 31.076 53.829 31.076H45.98C44.663 31.076 43.6 30.084 43.6 28.862V19.594C43.6 18.373 44.662 17.382 45.98 17.382H53.829" fill="#BE1E2D"/>
<path d="M49.551 19.475C50.196 19.475 50.715 19.961 50.715 20.556V25.083C50.715 25.68 50.195 26.166 49.551 26.166H45.721C45.077 26.166 44.558 25.68 44.558 25.083V20.556C44.558 19.961 45.078 19.475 45.721 19.475H49.551Z" fill="#F15A29"/>
<path d="M41.58 36.25C41.58 36.829 41.11 37.297 40.534 37.297H16.186C15.9082 37.297 15.6418 37.1867 15.4453 36.9902C15.2489 36.7938 15.1385 36.5273 15.1385 36.2495C15.1385 35.9717 15.2489 35.7053 15.4453 35.5088C15.6418 35.3124 15.9082 35.202 16.186 35.202H40.534C41.11 35.202 41.58 35.672 41.58 36.25ZM38.23 41.67C38.23 42.248 37.821 42.717 37.316 42.717H16.044C15.541 42.717 15.132 42.248 15.132 41.67C15.132 41.09 15.541 40.624 16.044 40.624H37.316C37.821 40.624 38.23 41.09 38.23 41.67M45.765 47.19C45.765 47.767 45.224 48.236 44.553 48.236H16.353C15.683 48.236 15.14 47.767 15.14 47.19C15.14 46.609 15.683 46.141 16.353 46.141H44.553C45.224 46.142 45.765 46.609 45.765 47.19Z" fill="#243438"/>
<path d="M23.21 27.7099C21.496 29.5219 18.402 36.1989 20.498 38.1839C22.599 40.1679 29.096 36.7119 30.81 34.8989C32.519 33.0919 30.95 31.6699 28.852 29.6869C26.75 27.6969 24.921 25.9019 23.21 27.7099M24.829 30.0539C25.627 29.2149 26.484 30.0509 27.464 30.9779C28.441 31.9019 29.17 32.5699 28.376 33.4109C27.578 34.2549 24.545 35.8709 23.566 34.9419C22.589 34.0199 24.033 30.9019 24.829 30.0539" fill="#BCBDBF"/>
<path d="M30.668 31.5229C31.625 32.6659 31.95 33.6969 30.814 34.8979C29.1 36.7109 22.602 40.1679 20.502 38.1829C20.186 37.8809 20 37.4649 19.898 36.9809C24.111 36.1809 29.256 34.9339 30.668 31.5229" fill="#A7A8AC"/>
<path d="M25.77 27.332L31.05 32.33L53.648 10.886L45.927 3.58398L25.77 27.332Z" fill="#59595C"/>
<path d="M29.424 30.7891L31.05 32.3301L53.648 10.8861L50.805 8.19811L29.424 30.7891ZM27.392 28.8701L25.77 27.3321L45.93 3.58411L48.778 6.27711L27.392 28.8701Z" fill="#424143"/>
<path d="M46.11 2.41001C45.064 3.51601 45.142 5.29901 46.293 6.38601L50.826 10.676C51.973 11.762 53.76 11.745 54.809 10.637C55.856 9.53201 55.775 7.74801 54.624 6.66301L50.09 2.37201C48.941 1.28501 47.161 1.30001 46.11 2.41001" fill="#424143"/>
<path d="M49.41 7.64505C50.66 8.82305 52.316 9.10105 53.112 8.26105L56.257 4.93805C57.053 4.09605 56.686 2.45705 55.44 1.27305C54.193 0.0910465 52.531 -0.184954 51.734 0.659046L48.59 3.98205C47.796 4.82005 48.159 6.46005 49.41 7.64505" fill="#424143"/>
<path d="M37.37 11.125C37.1283 11.3815 36.9984 11.7235 37.0087 12.0758C37.019 12.4282 37.1687 12.762 37.425 13.004L44.837 20.014C44.9634 20.1344 45.1123 20.2287 45.2753 20.2914C45.4382 20.3541 45.6119 20.384 45.7864 20.3793C45.9609 20.3747 46.1328 20.3356 46.2922 20.2643C46.4515 20.193 46.5952 20.091 46.715 19.964C46.9571 19.7078 47.0876 19.366 47.0778 19.0137C47.0681 18.6614 46.9189 18.3273 46.663 18.085L39.25 11.075C39.1237 10.9541 38.9747 10.8595 38.8116 10.7966C38.6485 10.7336 38.4746 10.7035 38.2998 10.7081C38.1251 10.7126 37.9529 10.7517 37.7934 10.8231C37.6338 10.8945 37.4899 10.9967 37.37 11.124" fill="#BCBDBF"/>
</svg>
