<svg width="269" height="77" viewBox="0 0 269 77" fill="none" xmlns="http://www.w3.org/2000/svg">
<path d="M70.8195 59.3772C70.2422 58.4583 69.4875 57.6636 68.5995 57.0397C67.7116 56.4158 66.7081 55.9752 65.6479 55.7435C61.5915 54.8001 58.0735 52.2894 55.8625 48.7601C53.6516 45.2307 52.9276 40.9697 53.8486 36.9082C54.2027 35.3384 54.0851 33.699 53.5105 32.1958C52.9359 30.6926 51.93 29.3927 50.6191 28.4594C49.3081 27.5261 47.7506 27.001 46.1421 26.9499C44.5337 26.8989 42.9461 27.3242 41.5786 28.1725C40.2111 29.0209 39.1248 30.2543 38.456 31.718C37.7873 33.1818 37.5659 34.8104 37.8198 36.3995C38.0736 37.9886 38.7914 39.4673 39.8829 40.6498C40.9743 41.8323 42.3909 42.666 43.9546 43.046C45.9776 43.5023 47.8906 44.3534 49.584 45.5505C51.2774 46.7475 52.7179 48.2671 53.8229 50.0219C54.9279 51.7768 55.6757 53.7325 56.0234 55.7769C56.3712 57.8213 56.312 59.9143 55.8493 61.9358C55.5753 63.239 55.6241 64.5894 55.9916 65.8693C56.3591 67.1492 57.0341 68.3198 57.9577 69.2792C58.8813 70.2385 60.0254 70.9574 61.2905 71.3732C62.5556 71.789 63.9031 71.889 65.2157 71.6647C66.5284 71.4404 67.7662 70.8984 68.8214 70.0861C69.8766 69.2737 70.717 68.2157 71.2696 67.0041C71.8221 65.7924 72.07 64.4641 71.9916 63.1348C71.9131 61.8054 71.5108 60.5154 70.8195 59.3772Z" fill="#676668"/>
<path d="M20.6144 50.3133C22.0429 51.0928 23.6716 51.4278 25.2917 51.2752C26.9119 51.1226 28.4494 50.4894 29.7072 49.4569C30.965 48.4243 31.8856 47.0395 32.3508 45.4802C32.8161 43.9208 32.8048 42.258 32.3184 40.7051C31.7019 38.7249 31.4823 36.6426 31.6722 34.5774C31.8621 32.5122 32.4576 30.5048 33.4249 28.6703C34.3921 26.8358 35.7119 25.2102 37.3086 23.8867C38.9053 22.5632 40.7475 21.568 42.7296 20.9579C44.2669 20.4764 45.6273 19.5509 46.6398 18.298C47.6523 17.0451 48.2716 15.5207 48.4197 13.9166C48.5679 12.3125 48.2383 10.7004 47.4724 9.28328C46.7065 7.86608 45.5385 6.70708 44.1155 5.95218C42.6924 5.19728 41.0779 4.88008 39.4751 5.04068C37.8722 5.20118 36.3526 5.83218 35.1075 6.85438C33.8624 7.87648 32.9475 9.24408 32.4778 10.785C32.0082 12.3259 32.0048 13.9713 32.4681 15.5141C33.6843 19.4971 33.273 23.7998 31.3244 27.4803C29.3757 31.1608 26.0484 33.9194 22.0706 35.1524C20.5003 35.6078 19.1028 36.524 18.0591 37.7826C17.0154 39.0412 16.3735 40.5841 16.2166 42.2115C16.0598 43.839 16.3951 45.4761 17.1792 46.9108C17.9633 48.3456 19.16 49.5119 20.6144 50.2588V50.3133Z" fill="#676668"/>
<path d="M41.6273 48.9792C40.5416 49.0173 39.4745 49.2717 38.4883 49.7274C37.5021 50.1831 36.6168 50.8309 35.8841 51.6331C33.0416 54.6734 29.1109 56.4646 24.9515 56.6151C20.792 56.7656 16.7421 55.263 13.6873 52.436C12.898 51.6954 11.9694 51.1191 10.9554 50.7406C9.94151 50.3621 8.86241 50.189 7.78091 50.2313C6.44971 50.2941 5.15401 50.6818 4.00711 51.3605C2.86011 52.0392 1.89681 52.9883 1.20111 54.1249C0.505306 55.2616 0.0984058 56.5513 0.0157058 57.8814C-0.0668942 59.2116 0.177206 60.5417 0.726906 61.7558C1.27661 62.9698 2.11501 64.0309 3.16911 64.8464C4.22321 65.6619 5.4608 66.2069 6.774 66.434C8.0872 66.6611 9.43611 66.5634 10.7028 66.1493C11.9696 65.7352 13.1157 65.0174 14.0411 64.0584C15.4489 62.5342 17.1435 61.3027 19.0279 60.4345C20.9124 59.5663 22.9496 59.0783 25.0229 58.9987C27.0962 58.9191 29.1649 59.2492 31.1104 59.9703C33.0559 60.6915 34.84 61.7893 36.3605 63.201C37.3504 64.0955 38.5444 64.7337 39.838 65.0599C41.1317 65.3862 42.4855 65.3905 43.7812 65.0725C45.0769 64.7545 46.2748 64.1239 47.2704 63.2358C48.266 62.3477 49.0288 61.2291 49.4922 59.978C49.9555 58.7269 50.1052 57.3814 49.9283 56.059C49.7513 54.7367 49.253 53.4779 48.4769 52.3926C47.7009 51.3074 46.6709 50.4289 45.4768 49.8338C44.2827 49.2388 42.961 48.9453 41.6273 48.9792Z" fill="#676668"/>
<path d="M103.496 58L85.64 20.432H94.6L106.632 46.352L108.36 50.96H108.936L110.6 46.352L122.76 20.432H131.464L130.44 24.272L113.736 58H103.496ZM137.371 58C135.237 58 133.594 57.7227 132.443 57.168C131.291 56.6133 130.458 55.9093 129.946 55.056C129.477 54.2027 129.179 53.3067 129.05 52.368C128.965 51.4293 128.922 50.576 128.922 49.808V37.52C128.922 36.88 128.965 36.112 129.05 35.216C129.179 34.2773 129.477 33.36 129.946 32.464C130.458 31.568 131.291 30.8213 132.443 30.224C133.637 29.6267 135.28 29.328 137.371 29.328H151.131C153.947 29.328 156.144 29.6053 157.722 30.16C159.344 30.672 160.475 31.5253 161.115 32.72C161.797 33.9147 162.139 35.5147 162.139 37.52V46.992H150.939C147.099 46.992 143.963 46.9067 141.531 46.736C139.141 46.5653 137.541 46.4587 136.731 46.416V49.936C136.688 51.6427 137.712 52.496 139.803 52.496H143.067C145.371 52.496 147.611 52.4747 149.787 52.432C152.005 52.3467 154.032 52.2613 155.867 52.176C157.701 52.048 159.173 51.9413 160.283 51.856L162.843 56.016C162.843 57.3387 158.64 58 150.235 58H137.371ZM136.731 41.488H154.331V37.392C154.331 36.5387 154.224 35.9413 154.011 35.6C153.84 35.2587 153.285 35.0453 152.347 34.96C151.408 34.8747 149.808 34.832 147.547 34.832H139.803C137.755 34.832 136.731 35.6853 136.731 37.392V41.488ZM165.41 58V29.328H170.658L173.09 30.608C174.199 30.0107 175.394 29.5413 176.674 29.2C177.954 28.8587 179.575 28.688 181.538 28.688C184.653 28.688 187.17 29.0293 189.09 29.712C191.053 30.3947 192.354 30.9067 192.994 31.248L190.754 36.816C190.242 36.56 189.389 36.24 188.194 35.856C187.042 35.4293 185.677 35.0453 184.098 34.704C182.519 34.3627 180.791 34.192 178.914 34.192H178.21C176.162 34.192 174.818 34.5973 174.178 35.408C173.581 36.2187 173.261 37.5627 173.218 39.44V58H165.41ZM214.689 69.264C209.995 69.264 206.177 69.2213 203.233 69.136C200.289 69.0507 198.027 68.9227 196.449 68.752C194.87 68.5813 193.782 68.368 193.185 68.112C192.63 67.856 192.353 67.5787 192.353 67.28L194.273 62.48C194.955 62.6933 196.15 62.9493 197.857 63.248C199.606 63.5893 201.825 63.76 204.513 63.76H215.457C217.035 63.76 218.145 63.5253 218.785 63.056C219.467 62.5867 219.809 61.7547 219.809 60.56V56.72C217.974 57.0613 215.798 57.36 213.281 57.616C210.806 57.872 207.947 58 204.705 58H201.505C199.371 58 197.729 57.7227 196.577 57.168C195.425 56.6133 194.593 55.9093 194.081 55.056C193.611 54.2027 193.313 53.3067 193.185 52.368C193.099 51.4293 193.057 50.576 193.057 49.808V37.52C193.057 36.88 193.099 36.112 193.185 35.216C193.313 34.2773 193.611 33.36 194.081 32.464C194.593 31.568 195.425 30.8213 196.577 30.224C197.771 29.6267 199.414 29.328 201.505 29.328H204.769C209.249 29.328 212.726 29.4133 215.201 29.584C217.718 29.7547 219.553 29.9467 220.705 30.16L222.369 29.328H227.617V61.072C227.617 61.84 227.489 62.6933 227.233 63.632C227.019 64.5707 226.571 65.4667 225.889 66.32C225.206 67.1733 224.225 67.8773 222.945 68.432C221.665 68.9867 219.979 69.264 217.889 69.264H214.689ZM203.937 52.496H217.825C218.806 52.496 219.382 52.4107 219.553 52.24C219.723 52.0693 219.809 51.5147 219.809 50.576V35.28C218.358 35.1947 216.523 35.1093 214.305 35.024C212.086 34.896 209.718 34.832 207.201 34.832H203.937C201.889 34.832 200.865 35.6853 200.865 37.392V49.936C200.822 51.6427 201.846 52.496 203.937 52.496ZM239.288 58C236.429 58 234.296 57.424 232.888 56.272C231.523 55.12 230.84 53.2427 230.84 50.64V37.52C230.84 36.88 230.883 36.112 230.968 35.216C231.096 34.2773 231.395 33.36 231.864 32.464C232.376 31.568 233.208 30.8213 234.36 30.224C235.555 29.6267 237.197 29.328 239.288 29.328H256.952C259.085 29.328 260.728 29.6267 261.88 30.224C263.032 30.8213 263.843 31.568 264.312 32.464C264.824 33.36 265.123 34.2773 265.208 35.216C265.336 36.112 265.4 36.88 265.4 37.52V49.808C265.4 50.576 265.336 51.4293 265.208 52.368C265.123 53.3067 264.824 54.2027 264.312 55.056C263.8 55.9093 262.968 56.6133 261.816 57.168C260.664 57.7227 259.043 58 256.952 58H239.288ZM241.72 52.496H254.52C256.611 52.496 257.656 51.6427 257.656 49.936V37.392C257.656 35.6853 256.611 34.832 254.52 34.832H241.72C239.672 34.832 238.648 35.6853 238.648 37.392V49.936C238.648 51.6427 239.672 52.496 241.72 52.496Z" fill="#676668"/>
</svg>
