<svg width="259" height="66" viewBox="0 0 259 66" fill="none" xmlns="http://www.w3.org/2000/svg">
<path d="M10.3299 20.6984L14.3299 22.6984C15.0662 23.02 15.8674 23.1649 16.6696 23.1215C17.4718 23.0781 18.2527 22.8476 18.9499 22.4484L22.73 19.9884C23.3804 19.5163 23.9098 18.8968 24.2748 18.1807C24.6398 17.4646 24.8301 16.6722 24.8299 15.8684L24.59 11.3584C24.5024 10.5611 24.2288 9.7954 23.7911 9.1232C23.3533 8.451 22.7638 7.891 22.0699 7.4884L18.0699 5.4384C17.3351 5.113 16.5339 4.9652 15.7313 5.0069C14.9287 5.0486 14.1471 5.2786 13.4499 5.6784L9.67004 8.1384C9.02074 8.6117 8.49215 9.2314 8.12735 9.9473C7.76245 10.6631 7.57145 11.455 7.56995 12.2584L7.80994 16.7684C7.88764 17.5766 8.15674 18.3546 8.59494 19.038C9.03314 19.7215 9.62794 20.2907 10.3299 20.6984Z" fill="#676668"/>
<path d="M34.4599 26.5385L30.4599 24.4885C29.7254 24.167 28.9258 24.0222 28.1252 24.0656C27.3246 24.109 26.5454 24.3395 25.8499 24.7385L22.0299 27.1985C21.383 27.674 20.8561 28.2942 20.4915 29.0096C20.1269 29.7249 19.9345 30.5156 19.9299 31.3185L20.17 35.8285C20.2575 36.6259 20.5311 37.3916 20.9688 38.0638C21.4066 38.736 21.9961 39.296 22.6899 39.6985L26.6899 41.6985C27.4231 42.0238 28.2226 42.1717 29.0237 42.13C29.8247 42.0883 30.6045 41.8582 31.2999 41.4585L35.0899 38.9985C35.7371 38.5209 36.2639 37.8989 36.6284 37.1819C36.993 36.465 37.1853 35.6728 37.1899 34.8685L36.9499 30.3685C36.8582 29.5814 36.5857 28.8261 36.1538 28.1617C35.7218 27.4973 35.1421 26.9418 34.4599 26.5385Z" fill="#676668"/>
<path d="M46.8 45.5586L42.8 43.5586C42.0651 43.2331 41.264 43.0853 40.4614 43.127C39.6588 43.1687 38.8773 43.3987 38.1801 43.7986L34.4002 46.2586C33.752 46.7329 33.2243 47.3529 32.8596 48.0685C32.4948 48.7841 32.3031 49.5754 32.3 50.3786L32.5402 54.8886C32.6359 55.6731 32.9112 56.425 33.3448 57.0857C33.7783 57.7465 34.3586 58.2984 35.0402 58.6986L39.0402 60.6986C39.7764 61.0201 40.5776 61.165 41.3798 61.1216C42.182 61.0782 42.9628 60.8477 43.6601 60.4486L47.4501 57.9886C48.0976 57.5142 48.6242 56.894 48.9873 56.1782C49.3504 55.4624 49.5398 54.6712 49.5402 53.8686L49.3301 49.4386C49.2438 48.6383 48.9697 47.8697 48.53 47.1954C48.0904 46.5212 47.4975 45.9603 46.8 45.5586Z" fill="#676668"/>
<path d="M17.33 34.3582L17.14 30.8482C17.1446 30.0453 17.3369 29.2546 17.7016 28.5393C18.0662 27.8239 18.593 27.2037 19.24 26.7282L26.61 21.9382C27.3054 21.5392 28.0847 21.3087 28.8853 21.2653C29.6859 21.2219 30.4855 21.3668 31.22 21.6882L34.36 23.2882C35.0949 23.6136 35.896 23.7615 36.6986 23.7198C37.5013 23.6781 38.2828 23.448 38.98 23.0482L42.76 20.5782C43.4087 20.1044 43.9368 19.4846 44.3016 18.7688C44.6664 18.0531 44.8577 17.2616 44.86 16.4582L44.62 11.9582C44.534 11.1591 44.261 10.3914 43.8232 9.71738C43.3854 9.04328 42.7951 8.48178 42.1 8.07818L38.1 6.02818C37.3638 5.70668 36.5626 5.56178 35.7603 5.60518C34.9581 5.64858 34.1772 5.87908 33.48 6.27818L29.62 8.69818C28.9725 9.17258 28.4459 9.79278 28.0828 10.5086C27.7197 11.2244 27.5303 12.0156 27.53 12.8182L27.71 16.3282C27.7097 17.1309 27.5202 17.9221 27.1571 18.6379C26.794 19.3537 26.2674 19.9739 25.62 20.4482L18.25 25.2382C17.5528 25.638 16.7713 25.8681 15.9687 25.9098C15.166 25.9515 14.3649 25.8036 13.63 25.4782L10.5 23.8882C9.7651 23.5628 8.964 23.415 8.1613 23.4567C7.3587 23.4984 6.5772 23.7284 5.88 24.1282L2.1 26.5882C1.4507 27.0615 0.922201 27.6812 0.557301 28.3971C0.192401 29.113 0.0015 29.9048 0 30.7082L0.239998 35.2182C0.325198 36.0176 0.597898 36.7856 1.0357 37.4598C1.4736 38.134 2.0643 38.6953 2.76 39.0982L6.76 41.0982C7.4962 41.4198 8.2974 41.5647 9.0996 41.5213C9.9018 41.4779 10.6828 41.2474 11.38 40.8482L15.16 38.3882C15.8096 37.9309 16.3437 37.3287 16.7204 36.6292C17.097 35.9298 17.3057 35.1523 17.33 34.3582Z" fill="#676668"/>
<path d="M56.9201 30.9784C56.831 30.1801 56.5568 29.4137 56.1193 28.7401C55.6818 28.0665 55.0931 27.5043 54.4001 27.0984L50.4001 25.0984C49.6637 24.7776 48.8625 24.6331 48.0605 24.6765C47.2584 24.7199 46.4775 24.95 45.7801 25.3484L42 27.8084C41.3519 28.2828 40.8243 28.9027 40.4595 29.6183C40.0948 30.3339 39.9031 31.1252 39.9001 31.9284L40.0901 35.4484C40.087 36.2515 39.8954 37.0428 39.5306 37.7584C39.1659 38.474 38.6382 39.094 37.99 39.5684L30.63 44.3484C29.9328 44.7475 29.1519 44.978 28.3497 45.0214C27.5475 45.0648 26.7463 44.9199 26.01 44.5984L22.87 42.9984C22.1355 42.6769 21.3359 42.532 20.5353 42.5754C19.7347 42.6189 18.9555 42.8493 18.26 43.2484L14.44 45.6984C13.7931 46.1739 13.2663 46.794 12.9016 47.5094C12.537 48.2247 12.3447 49.0154 12.3401 49.8184L12.58 54.3283C12.6676 55.1257 12.9412 55.8914 13.3789 56.5636C13.8167 57.2358 14.4062 57.7958 15.1001 58.1984L19.1001 60.2484C19.8332 60.5737 20.6327 60.7215 21.4337 60.6798C22.2348 60.6381 23.0146 60.408 23.7101 60.0083L27.5 57.5483C28.1464 57.0723 28.6729 56.452 29.0374 55.7368C29.402 55.0215 29.5946 54.2311 29.6001 53.4284L29.4101 49.9083C29.4123 49.105 29.6036 48.3135 29.9684 47.5978C30.3332 46.882 30.8613 46.2622 31.51 45.7883L38.87 40.9984C39.5672 40.5986 40.3488 40.3685 41.1514 40.3268C41.954 40.2851 42.7551 40.4329 43.49 40.7583L46.62 42.3484C47.3549 42.6738 48.1561 42.8216 48.9587 42.7799C49.7613 42.7382 50.5428 42.5082 51.24 42.1084L55.0301 39.6484C55.6769 39.1734 56.2031 38.5531 56.5661 37.8375C56.9292 37.1218 57.1189 36.3308 57.12 35.5284L56.9201 30.9784Z" fill="#676668"/>
<path d="M98.728 36.8C98.728 41.1093 98.3867 44.3093 97.704 46.4C97.064 48.4907 95.784 50.176 93.864 51.456C91.9867 52.6933 89.9387 53.312 87.72 53.312C85.544 53.312 83.5173 52.9707 81.64 52.288C79.8053 51.6053 77.6293 50.176 75.112 48L78.056 43.648C80.5307 45.44 82.408 46.6347 83.688 47.232C84.968 47.8293 86.2053 48.128 87.4 48.128C88.6373 48.128 89.768 47.68 90.792 46.784C91.816 45.888 92.456 44.736 92.712 43.328C93.0107 41.8773 93.16 39.6373 93.16 36.608V5.312H98.728V36.8ZM134.531 52.16H129.219V46.912C125.763 51.008 121.667 53.056 116.931 53.056C114.414 53.056 112.131 52.416 110.083 51.136C108.035 49.8133 106.499 48.0213 105.475 45.76C104.451 43.456 103.939 39.936 103.939 35.2V17.28H109.187V33.92C109.187 37.76 109.358 40.384 109.699 41.792C110.083 43.1573 110.616 44.3307 111.299 45.312C112.024 46.2507 112.92 46.9547 113.987 47.424C115.096 47.8933 116.419 48.128 117.955 48.128C119.534 48.128 121.07 47.744 122.563 46.976C124.056 46.208 125.336 45.1413 126.403 43.776C127.47 42.4107 128.195 40.96 128.579 39.424C129.006 37.888 129.219 34.816 129.219 30.208V17.28H134.531V52.16ZM144.861 22.592C148.317 18.4533 152.583 16.384 157.661 16.384C162.738 16.384 167.047 18.1973 170.589 21.824C174.13 25.408 175.901 29.7387 175.901 34.816C175.901 39.8933 174.151 44.2453 170.653 47.872C167.154 51.4987 162.93 53.312 157.981 53.312C153.031 53.312 148.658 51.2213 144.861 47.04V64.512H139.612V17.28H144.861V22.592ZM157.661 48.384C161.159 48.384 164.189 47.0827 166.749 44.48C169.351 41.8347 170.653 38.656 170.653 34.944C170.653 31.232 169.373 28.0747 166.813 25.472C164.295 22.8267 161.202 21.504 157.533 21.504C153.863 21.504 150.77 22.8053 148.253 25.408C145.778 27.968 144.54 31.1467 144.54 34.944C144.54 38.7413 145.821 41.9413 148.381 44.544C150.941 47.104 154.034 48.384 157.661 48.384ZM181.318 4.16C182.47 4.16 183.43 4.56533 184.198 5.376C185.008 6.144 185.414 7.104 185.414 8.256C185.414 9.36533 185.008 10.3253 184.198 11.136C183.43 11.904 182.47 12.288 181.318 12.288C180.208 12.288 179.248 11.8827 178.438 11.072C177.67 10.2613 177.286 9.32266 177.286 8.256C177.286 7.14666 177.67 6.18667 178.438 5.376C179.248 4.56533 180.208 4.16 181.318 4.16ZM184.006 52.16H178.694V17.28H184.006V52.16ZM204.37 21.888H197.458V46.336C197.458 47.232 197.586 47.7867 197.842 48C198.098 48.1707 198.738 48.256 199.762 48.256H202.834V52.8C200.786 53.1413 199.229 53.312 198.162 53.312C196.114 53.312 194.599 52.8213 193.618 51.84C192.637 50.816 192.146 49.216 192.146 47.04V21.888H186.13V17.28H192.146V4.16H197.458V17.28H204.37V21.888ZM240.522 35.648H209.93C210.143 39.488 211.423 42.5813 213.77 44.928C216.159 47.232 218.996 48.384 222.282 48.384C227.871 48.384 232.138 45.632 235.082 40.128L239.562 42.432C237.556 46.144 235.188 48.896 232.458 50.688C229.727 52.4373 226.463 53.312 222.666 53.312C217.418 53.312 213.087 51.52 209.674 47.936C206.26 44.3093 204.554 39.9573 204.554 34.88C204.554 29.8027 206.26 25.4507 209.674 21.824C213.13 18.1973 217.396 16.384 222.474 16.384C227.551 16.384 231.796 18.112 235.21 21.568C238.623 24.9813 240.394 29.6747 240.522 35.648ZM234.634 30.976C233.994 27.9893 232.543 25.664 230.282 24C228.02 22.336 225.418 21.504 222.474 21.504C216.5 21.504 212.532 24.6613 210.57 30.976H234.634ZM258.659 17.792L255.907 22.272C255.181 21.888 254.477 21.696 253.795 21.696C252.472 21.696 251.277 22.3573 250.211 23.68C249.144 24.96 248.333 26.6667 247.779 28.8C247.267 30.8907 247.011 34.688 247.011 40.192V52.16H241.635V17.28H247.011V21.056C248.077 19.4773 249.144 18.304 250.211 17.536C251.32 16.768 252.557 16.384 253.923 16.384C255.331 16.384 256.909 16.8533 258.659 17.792Z" fill="#676668"/>
</svg>
