<svg width="274" height="78" viewBox="0 0 274 78" fill="none" xmlns="http://www.w3.org/2000/svg">
<path d="M38.9436 41.5868L27.7683 60.9798L16.5931 41.5868H38.9436ZM41.9374 39.8535H13.5872L27.7683 64.41L41.9374 39.8535Z" fill="#676668"/>
<path d="M58.3731 17.4665L69.5483 36.8595H47.1978L58.3731 17.4665ZM58.3731 14L44.1919 38.5564H72.5542L58.3731 14Z" fill="#676668"/>
<path d="M0 14L11.8904 35.7202L24.8837 14.5454L0 14Z" fill="#676668"/>
<path d="M27.7686 15.9033L40.2408 37.5023H15.2722L27.7686 15.9033Z" fill="#676668"/>
<path d="M43.4527 42.2168L55.937 64.4098H30.3745L43.0648 42.2168H43.4527Z" fill="#676668"/>
<path d="M46.1555 40.8716L58.3731 62.7251L70.7604 40.8716H46.1555Z" fill="#676668"/>
<path d="M93.168 14.512C93.4667 14.512 94.0853 14.512 95.024 14.512C95.9627 14.512 96.9867 14.5333 98.096 14.576C99.2053 14.576 100.229 14.576 101.168 14.576C102.107 14.576 102.768 14.576 103.152 14.576C109.083 14.6613 113.861 15.6 117.488 17.392C121.157 19.184 123.824 21.7867 125.488 25.2C127.195 28.6133 128.048 32.8373 128.048 37.872C128.048 43.2053 127.131 47.664 125.296 51.248C123.461 54.832 120.645 57.52 116.848 59.312C113.051 61.104 108.272 62 102.512 62H93.104C92.5067 62 92.208 61.6587 92.208 60.976V15.408C92.208 15.1093 92.272 14.896 92.4 14.768C92.5707 14.5973 92.8267 14.512 93.168 14.512ZM98.992 19.184C98.5653 19.184 98.352 19.4827 98.352 20.08V56.688C98.352 57.1573 98.608 57.392 99.12 57.392H101.552C106.288 57.392 110.128 56.7733 113.072 55.536C116.016 54.256 118.171 52.208 119.536 49.392C120.944 46.576 121.648 42.8427 121.648 38.192C121.648 33.328 120.923 29.5307 119.472 26.8C118.064 24.0267 115.888 22.064 112.944 20.912C110.043 19.76 106.352 19.184 101.872 19.184H98.992ZM144.795 58.416C146.63 58.416 148.38 57.9253 150.044 56.944C151.75 55.92 153.436 54.5547 155.1 52.848V29.04C155.1 28.4 155.441 28.08 156.124 28.08H159.644C160.241 28.08 160.54 28.3787 160.54 28.976L160.412 61.168C160.412 61.7227 160.177 62 159.708 62H155.996C155.526 62 155.292 61.7653 155.292 61.296V57.52C155.292 57.3067 155.249 57.1787 155.164 57.136C155.078 57.0933 154.929 57.1573 154.716 57.328C152.369 59.3333 150.278 60.72 148.444 61.488C146.652 62.256 144.86 62.64 143.068 62.64C141.105 62.64 139.356 62.2347 137.819 61.424C136.284 60.6133 135.068 59.4827 134.172 58.032C133.275 56.5387 132.827 54.8107 132.827 52.848V29.104C132.827 28.4213 133.147 28.08 133.787 28.08H137.372C137.926 28.08 138.204 28.3787 138.204 28.976V51.44C138.204 53.5307 138.78 55.216 139.932 56.496C141.126 57.776 142.748 58.416 144.795 58.416ZM170.914 28.08C171.511 28.08 171.81 28.4 171.81 29.04V31.728C171.81 32.0693 171.874 32.2613 172.002 32.304C172.173 32.304 172.386 32.1973 172.642 31.984C173.111 31.472 173.751 30.8747 174.562 30.192C175.373 29.4667 176.418 28.8267 177.698 28.272C179.021 27.7173 180.685 27.44 182.69 27.44C185.293 27.44 187.639 28.08 189.73 29.36C191.863 30.5973 193.549 32.4747 194.786 34.992C196.066 37.5093 196.706 40.688 196.706 44.528C196.706 48.368 196.087 51.632 194.85 54.32C193.613 57.008 191.885 59.0773 189.666 60.528C187.49 61.936 184.93 62.64 181.986 62.64C180.023 62.64 178.274 62.3413 176.738 61.744C175.245 61.104 173.965 60.336 172.898 59.44C172.514 59.0987 172.237 58.9707 172.066 59.056C171.938 59.0987 171.874 59.3547 171.874 59.824V71.728C171.874 72.2827 171.639 72.56 171.17 72.56H167.202C166.733 72.56 166.498 72.2827 166.498 71.728V29.104C166.498 28.72 166.562 28.464 166.69 28.336C166.861 28.1653 167.138 28.08 167.522 28.08H170.914ZM171.874 54.512C173.197 55.792 174.541 56.816 175.906 57.584C177.314 58.352 178.871 58.736 180.578 58.736C182.626 58.736 184.439 58.2027 186.018 57.136C187.639 56.0693 188.898 54.4907 189.794 52.4C190.733 50.3093 191.202 47.7067 191.202 44.592C191.202 41.4773 190.733 38.9387 189.794 36.976C188.855 35.0133 187.597 33.584 186.018 32.688C184.482 31.792 182.775 31.344 180.898 31.344C179.149 31.344 177.591 31.728 176.226 32.496C174.861 33.264 173.794 34.224 173.026 35.376C172.258 36.4853 171.874 37.5947 171.874 38.704V54.512ZM206.286 60.912C206.286 61.3387 206.2 61.6373 206.03 61.808C205.859 61.936 205.56 62 205.134 62H201.806C201.166 62 200.846 61.7013 200.846 61.104L200.91 15.408C200.91 14.8107 201.166 14.512 201.678 14.512H205.518C206.03 14.512 206.286 14.7893 206.286 15.344V60.912ZM215.902 47.152C215.902 49.2427 216.393 51.1627 217.374 52.912C218.398 54.6187 219.742 55.984 221.406 57.008C223.113 58.032 225.011 58.544 227.102 58.544C229.235 58.544 231.134 58.1173 232.798 57.264C234.462 56.368 235.891 55.024 237.086 53.232C237.257 53.0613 237.385 52.976 237.47 52.976C237.598 52.9333 237.769 52.9547 237.982 53.04L240.67 54.384C241.054 54.5973 241.097 54.896 240.798 55.28C239.646 56.9867 238.366 58.3947 236.958 59.504C235.593 60.5707 234.057 61.36 232.35 61.872C230.643 62.384 228.723 62.64 226.59 62.64C223.433 62.64 220.638 61.9147 218.206 60.464C215.774 59.0133 213.854 56.9867 212.446 54.384C211.038 51.7813 210.334 48.7733 210.334 45.36C210.334 41.648 211.038 38.4693 212.446 35.824C213.897 33.136 215.838 31.0667 218.27 29.616C220.745 28.1653 223.497 27.44 226.526 27.44C229.641 27.44 232.35 28.1227 234.654 29.488C236.958 30.8533 238.75 32.8373 240.03 35.44C241.31 38.0427 241.95 41.1787 241.95 44.848C241.95 45.1467 241.907 45.4453 241.822 45.744C241.779 46.0427 241.502 46.192 240.99 46.192H216.478C216.307 46.192 216.158 46.2987 216.03 46.512C215.945 46.6827 215.902 46.896 215.902 47.152ZM235.486 42.672C235.955 42.672 236.254 42.6293 236.382 42.544C236.51 42.416 236.574 42.16 236.574 41.776C236.574 39.9413 236.169 38.2347 235.358 36.656C234.59 35.0347 233.459 33.7333 231.966 32.752C230.515 31.7707 228.745 31.28 226.654 31.28C224.35 31.28 222.409 31.8347 220.83 32.944C219.251 34.0107 218.057 35.4187 217.246 37.168C216.435 38.9173 216.03 40.752 216.03 42.672H235.486ZM271.753 60.656C272.094 61.168 272.243 61.5307 272.201 61.744C272.158 61.9147 271.923 62 271.497 62H267.017C266.377 62 265.929 61.808 265.673 61.424L256.649 49.008C256.435 48.7093 256.243 48.56 256.073 48.56C255.945 48.5173 255.774 48.6667 255.561 49.008L246.153 61.424C245.897 61.808 245.449 62 244.809 62H241.801C241.374 62 241.075 61.8933 240.905 61.68C240.734 61.424 240.883 61.0187 241.353 60.464L253.001 45.616C253.214 45.3173 253.299 45.0827 253.257 44.912C253.257 44.6987 253.171 44.464 253.001 44.208L241.801 29.104C241.673 28.8907 241.651 28.6773 241.737 28.464C241.865 28.208 242.078 28.08 242.377 28.08H246.665C247.006 28.08 247.241 28.1227 247.369 28.208C247.539 28.2933 247.71 28.4427 247.881 28.656L256.521 40.368C256.862 40.8373 257.182 40.8373 257.481 40.368L265.865 28.656C266.035 28.4427 266.206 28.2933 266.377 28.208C266.547 28.1227 266.803 28.08 267.145 28.08H270.473C270.857 28.08 271.049 28.1867 271.049 28.4C271.091 28.5707 271.027 28.7627 270.857 28.976L260.041 43.44C259.827 43.696 259.721 43.9307 259.721 44.144C259.763 44.3573 259.87 44.592 260.041 44.848L271.753 60.656Z" fill="#676668"/>
</svg>
