<svg width="455" height="82" viewBox="0 0 455 82" fill="none" xmlns="http://www.w3.org/2000/svg">
<path d="M110.264 47.832H100.536C100.493 50.648 101.005 53.08 102.072 55.128C103.139 57.176 104.568 58.8613 106.36 60.184C108.195 61.5067 110.285 62.4667 112.632 63.064C115.021 63.704 117.475 64.024 119.992 64.024C123.107 64.024 125.837 63.6613 128.184 62.936C130.573 62.2107 132.557 61.208 134.136 59.928C135.757 58.6053 136.973 57.048 137.784 55.256C138.595 53.464 139 51.5227 139 49.432C139 46.872 138.445 44.7813 137.336 43.16C136.269 41.496 134.989 40.1733 133.496 39.192C132.003 38.2107 130.488 37.5067 128.952 37.08C127.459 36.6107 126.285 36.2907 125.432 36.12C122.573 35.3947 120.248 34.7973 118.456 34.328C116.707 33.8587 115.32 33.3893 114.296 32.92C113.315 32.4507 112.653 31.9387 112.312 31.384C111.971 30.8293 111.8 30.104 111.8 29.208C111.8 28.2267 112.013 27.416 112.44 26.776C112.867 26.136 113.4 25.6027 114.04 25.176C114.723 24.7493 115.469 24.4507 116.28 24.28C117.091 24.1093 117.901 24.024 118.712 24.024C119.949 24.024 121.08 24.1307 122.104 24.344C123.171 24.5573 124.109 24.92 124.92 25.432C125.731 25.944 126.371 26.648 126.84 27.544C127.352 28.44 127.651 29.5707 127.736 30.936H137.464C137.464 28.2907 136.952 26.0507 135.928 24.216C134.947 22.3387 133.603 20.8027 131.896 19.608C130.189 18.4133 128.227 17.56 126.008 17.048C123.832 16.4933 121.549 16.216 119.16 16.216C117.112 16.216 115.064 16.4933 113.016 17.048C110.968 17.6027 109.133 18.456 107.512 19.608C105.891 20.76 104.568 22.2107 103.544 23.96C102.563 25.6667 102.072 27.6933 102.072 30.04C102.072 32.1307 102.456 33.9227 103.224 35.416C104.035 36.8667 105.08 38.0827 106.36 39.064C107.64 40.0453 109.091 40.856 110.712 41.496C112.333 42.0933 113.997 42.6053 115.704 43.032C117.368 43.5013 119.011 43.928 120.632 44.312C122.253 44.696 123.704 45.144 124.984 45.656C126.264 46.168 127.288 46.808 128.056 47.576C128.867 48.344 129.272 49.3467 129.272 50.584C129.272 51.736 128.973 52.696 128.376 53.464C127.779 54.1893 127.032 54.7653 126.136 55.192C125.24 55.6187 124.28 55.9173 123.256 56.088C122.232 56.216 121.272 56.28 120.376 56.28C119.053 56.28 117.773 56.1307 116.536 55.832C115.299 55.4907 114.211 55 113.272 54.36C112.376 53.6773 111.651 52.8027 111.096 51.736C110.541 50.6693 110.264 49.368 110.264 47.832ZM147.859 46.488C147.859 45.1227 147.987 43.8213 148.243 42.584C148.541 41.304 149.011 40.1733 149.651 39.192C150.291 38.168 151.123 37.3573 152.147 36.76C153.171 36.1627 154.429 35.864 155.923 35.864C157.331 35.864 158.525 36.184 159.507 36.824C160.531 37.464 161.341 38.296 161.939 39.32C162.536 40.344 162.963 41.496 163.219 42.776C163.517 44.056 163.667 45.336 163.667 46.616C163.667 47.9813 163.517 49.304 163.219 50.584C162.963 51.8213 162.515 52.9307 161.875 53.912C161.277 54.8507 160.467 55.6187 159.443 56.216C158.461 56.7707 157.224 57.048 155.731 57.048C154.237 57.048 152.979 56.7493 151.955 56.152C150.973 55.5547 150.163 54.7653 149.523 53.784C148.925 52.76 148.499 51.6293 148.243 50.392C147.987 49.112 147.859 47.8107 147.859 46.488ZM172.435 74.584V29.912H163.795V34.136H163.667C162.643 32.3013 161.213 31 159.378 30.232C157.587 29.4213 155.667 29.016 153.618 29.016C151.101 29.016 148.904 29.5067 147.027 30.488C145.192 31.4693 143.656 32.792 142.418 34.456C141.181 36.0773 140.264 37.9547 139.667 40.088C139.069 42.2213 138.77 44.4187 138.77 46.68C138.77 49.88 139.218 52.5893 140.115 54.808C141.01 56.984 142.141 58.7547 143.507 60.12C144.872 61.4427 146.365 62.4027 147.987 63C149.651 63.5547 151.251 63.832 152.787 63.832C154.835 63.832 156.819 63.448 158.739 62.68C160.659 61.912 162.152 60.632 163.219 58.84H163.347V74.584H172.435ZM206.504 63V29.912H197.416V47.256C197.416 50.6267 196.861 53.0587 195.752 54.552C194.642 56.0027 192.85 56.728 190.375 56.728C188.2 56.728 186.685 56.0667 185.832 54.744C184.978 53.3787 184.552 51.3307 184.552 48.6V29.912H175.463V50.264C175.463 52.312 175.634 54.1893 175.975 55.896C176.359 57.56 176.999 58.9893 177.896 60.184C178.792 61.336 180.008 62.232 181.543 62.872C183.122 63.512 185.128 63.832 187.56 63.832C189.48 63.832 191.357 63.4053 193.192 62.552C195.026 61.6987 196.52 60.312 197.672 58.392H197.864V63H206.504ZM209.177 40.088C209.305 37.9547 209.838 36.184 210.777 34.776C211.716 33.368 212.91 32.2373 214.361 31.384C215.812 30.5307 217.433 29.9333 219.225 29.592C221.06 29.208 222.894 29.016 224.729 29.016C226.393 29.016 228.078 29.144 229.785 29.4C231.492 29.6133 233.049 30.0613 234.457 30.744C235.865 31.4267 237.017 32.3867 237.913 33.624C238.809 34.8187 239.257 36.4187 239.257 38.424V55.64C239.257 57.1333 239.342 58.5627 239.513 59.928C239.684 61.2933 239.982 62.3173 240.409 63H231.193C231.022 62.488 230.873 61.976 230.745 61.464C230.66 60.9093 230.596 60.3547 230.553 59.8C229.102 61.2933 227.396 62.3387 225.433 62.936C223.47 63.5333 221.465 63.832 219.417 63.832C217.838 63.832 216.366 63.64 215.001 63.256C213.636 62.872 212.441 62.2747 211.417 61.464C210.393 60.6533 209.582 59.6293 208.985 58.392C208.43 57.1547 208.153 55.6827 208.153 53.976C208.153 52.0987 208.473 50.5627 209.113 49.368C209.796 48.1307 210.649 47.1493 211.673 46.424C212.74 45.6987 213.934 45.1653 215.257 44.824C216.622 44.44 217.988 44.1413 219.353 43.928C220.718 43.7147 222.062 43.544 223.385 43.416C224.708 43.288 225.881 43.096 226.905 42.84C227.929 42.584 228.74 42.2213 229.337 41.752C229.934 41.24 230.212 40.5147 230.169 39.576C230.169 38.5947 229.998 37.8267 229.657 37.272C229.358 36.6747 228.932 36.2267 228.377 35.928C227.865 35.5867 227.246 35.3733 226.521 35.288C225.838 35.16 225.092 35.096 224.281 35.096C222.489 35.096 221.081 35.48 220.057 36.248C219.033 37.016 218.436 38.296 218.265 40.088H209.177ZM230.169 46.808C229.785 47.1493 229.294 47.4267 228.697 47.64C228.142 47.8107 227.524 47.96 226.841 48.088C226.201 48.216 225.518 48.3227 224.793 48.408C224.068 48.4933 223.342 48.6 222.617 48.728C221.934 48.856 221.252 49.0267 220.569 49.24C219.929 49.4533 219.353 49.752 218.841 50.136C218.372 50.4773 217.988 50.9253 217.689 51.48C217.39 52.0347 217.241 52.7387 217.241 53.592C217.241 54.4027 217.39 55.0853 217.689 55.64C217.988 56.1947 218.393 56.6427 218.905 56.984C219.417 57.2827 220.014 57.496 220.697 57.624C221.38 57.752 222.084 57.816 222.809 57.816C224.601 57.816 225.988 57.5173 226.969 56.92C227.95 56.3227 228.676 55.6187 229.145 54.808C229.614 53.9547 229.892 53.1013 229.977 52.248C230.105 51.3947 230.169 50.712 230.169 50.2V46.808ZM242.471 29.912V63H251.559V48.088C251.559 46.5947 251.708 45.208 252.007 43.928C252.306 42.648 252.796 41.5387 253.479 40.6C254.204 39.6187 255.143 38.8507 256.295 38.296C257.447 37.7413 258.855 37.464 260.519 37.464C261.074 37.464 261.65 37.5067 262.247 37.592C262.844 37.6347 263.356 37.6987 263.783 37.784V29.336C263.058 29.1227 262.396 29.016 261.799 29.016C260.647 29.016 259.538 29.1867 258.471 29.528C257.404 29.8693 256.402 30.36 255.463 31C254.524 31.5973 253.692 32.344 252.967 33.24C252.242 34.0933 251.666 35.032 251.239 36.056H251.111V29.912H242.471ZM284.653 42.904H269.869C269.912 42.264 270.04 41.5387 270.253 40.728C270.509 39.9173 270.914 39.1493 271.469 38.424C272.066 37.6987 272.834 37.1013 273.773 36.632C274.754 36.12 275.97 35.864 277.421 35.864C279.64 35.864 281.282 36.4613 282.349 37.656C283.458 38.8507 284.226 40.6 284.653 42.904ZM269.869 48.664H293.741C293.912 46.104 293.698 43.6507 293.101 41.304C292.504 38.9573 291.522 36.8667 290.157 35.032C288.834 33.1973 287.128 31.7467 285.037 30.68C282.946 29.5707 280.493 29.016 277.677 29.016C275.16 29.016 272.856 29.464 270.765 30.36C268.717 31.256 266.946 32.4933 265.453 34.072C263.96 35.608 262.808 37.4427 261.997 39.576C261.186 41.7093 260.781 44.0133 260.781 46.488C260.781 49.048 261.165 51.3947 261.933 53.528C262.744 55.6613 263.874 57.496 265.325 59.032C266.776 60.568 268.546 61.7627 270.637 62.616C272.728 63.4267 275.074 63.832 277.677 63.832C281.432 63.832 284.632 62.9787 287.277 61.272C289.922 59.5653 291.885 56.728 293.165 52.76H285.165C284.866 53.784 284.056 54.7653 282.733 55.704C281.41 56.6 279.832 57.048 277.997 57.048C275.437 57.048 273.474 56.3867 272.109 55.064C270.744 53.7413 269.997 51.608 269.869 48.664ZM303.099 47.832H293.371C293.328 50.648 293.84 53.08 294.907 55.128C295.974 57.176 297.403 58.8613 299.195 60.184C301.03 61.5067 303.12 62.4667 305.467 63.064C307.856 63.704 310.31 64.024 312.827 64.024C315.942 64.024 318.672 63.6613 321.019 62.936C323.408 62.2107 325.392 61.208 326.971 59.928C328.592 58.6053 329.808 57.048 330.619 55.256C331.43 53.464 331.835 51.5227 331.835 49.432C331.835 46.872 331.28 44.7813 330.171 43.16C329.104 41.496 327.824 40.1733 326.331 39.192C324.838 38.2107 323.323 37.5067 321.787 37.08C320.294 36.6107 319.12 36.2907 318.267 36.12C315.408 35.3947 313.083 34.7973 311.291 34.328C309.542 33.8587 308.155 33.3893 307.131 32.92C306.15 32.4507 305.488 31.9387 305.147 31.384C304.806 30.8293 304.635 30.104 304.635 29.208C304.635 28.2267 304.848 27.416 305.275 26.776C305.702 26.136 306.235 25.6027 306.875 25.176C307.558 24.7493 308.304 24.4507 309.115 24.28C309.926 24.1093 310.736 24.024 311.547 24.024C312.784 24.024 313.915 24.1307 314.939 24.344C316.006 24.5573 316.944 24.92 317.755 25.432C318.566 25.944 319.206 26.648 319.675 27.544C320.187 28.44 320.486 29.5707 320.571 30.936H330.299C330.299 28.2907 329.787 26.0507 328.763 24.216C327.782 22.3387 326.438 20.8027 324.731 19.608C323.024 18.4133 321.062 17.56 318.843 17.048C316.667 16.4933 314.384 16.216 311.995 16.216C309.947 16.216 307.899 16.4933 305.851 17.048C303.803 17.6027 301.968 18.456 300.347 19.608C298.726 20.76 297.403 22.2107 296.379 23.96C295.398 25.6667 294.907 27.6933 294.907 30.04C294.907 32.1307 295.291 33.9227 296.059 35.416C296.87 36.8667 297.915 38.0827 299.195 39.064C300.475 40.0453 301.926 40.856 303.547 41.496C305.168 42.0933 306.832 42.6053 308.539 43.032C310.203 43.5013 311.846 43.928 313.467 44.312C315.088 44.696 316.539 45.144 317.819 45.656C319.099 46.168 320.123 46.808 320.891 47.576C321.702 48.344 322.107 49.3467 322.107 50.584C322.107 51.736 321.808 52.696 321.211 53.464C320.614 54.1893 319.867 54.7653 318.971 55.192C318.075 55.6187 317.115 55.9173 316.091 56.088C315.067 56.216 314.107 56.28 313.211 56.28C311.888 56.28 310.608 56.1307 309.371 55.832C308.134 55.4907 307.046 55 306.107 54.36C305.211 53.6773 304.486 52.8027 303.931 51.736C303.376 50.6693 303.099 49.368 303.099 47.832ZM344.533 29.912V19.992H335.445V29.912H329.941V35.992H335.445V55.512C335.445 57.176 335.723 58.52 336.277 59.544C336.832 60.568 337.579 61.3573 338.517 61.912C339.499 62.4667 340.608 62.8293 341.845 63C343.125 63.2133 344.469 63.32 345.877 63.32C346.773 63.32 347.691 63.2987 348.629 63.256C349.568 63.2133 350.421 63.128 351.189 63V55.96C350.763 56.0453 350.315 56.1093 349.845 56.152C349.376 56.1947 348.885 56.216 348.373 56.216C346.837 56.216 345.813 55.96 345.301 55.448C344.789 54.936 344.533 53.912 344.533 52.376V35.992H351.189V29.912H344.533ZM359.737 46.488C359.737 45.1653 359.865 43.864 360.121 42.584C360.377 41.304 360.804 40.1733 361.401 39.192C362.041 38.2107 362.873 37.4213 363.897 36.824C364.921 36.184 366.201 35.864 367.737 35.864C369.273 35.864 370.553 36.184 371.577 36.824C372.644 37.4213 373.476 38.2107 374.073 39.192C374.714 40.1733 375.162 41.304 375.417 42.584C375.674 43.864 375.802 45.1653 375.802 46.488C375.802 47.8107 375.674 49.112 375.417 50.392C375.162 51.6293 374.714 52.76 374.073 53.784C373.476 54.7653 372.644 55.5547 371.577 56.152C370.553 56.7493 369.273 57.048 367.737 57.048C366.201 57.048 364.921 56.7493 363.897 56.152C362.873 55.5547 362.041 54.7653 361.401 53.784C360.804 52.76 360.377 51.6293 360.121 50.392C359.865 49.112 359.737 47.8107 359.737 46.488ZM350.649 46.488C350.649 49.1333 351.055 51.5227 351.865 53.656C352.676 55.7893 353.828 57.624 355.321 59.16C356.815 60.6533 358.607 61.8053 360.697 62.616C362.788 63.4267 365.135 63.832 367.737 63.832C370.34 63.832 372.687 63.4267 374.778 62.616C376.911 61.8053 378.724 60.6533 380.217 59.16C381.711 57.624 382.863 55.7893 383.674 53.656C384.484 51.5227 384.889 49.1333 384.889 46.488C384.889 43.8427 384.484 41.4533 383.674 39.32C382.863 37.144 381.711 35.3093 380.217 33.816C378.724 32.28 376.911 31.1067 374.778 30.296C372.687 29.4427 370.34 29.016 367.737 29.016C365.135 29.016 362.788 29.4427 360.697 30.296C358.607 31.1067 356.815 32.28 355.321 33.816C353.828 35.3093 352.676 37.144 351.865 39.32C351.055 41.4533 350.649 43.8427 350.649 46.488ZM386.959 29.912V63H396.047V45.656C396.047 42.2853 396.601 39.8747 397.711 38.424C398.82 36.9307 400.612 36.184 403.087 36.184C405.263 36.184 406.777 36.8667 407.631 38.232C408.484 39.5547 408.911 41.5813 408.911 44.312V63H417.999V42.648C417.999 40.6 417.807 38.744 417.423 37.08C417.081 35.3733 416.463 33.944 415.567 32.792C414.671 31.5973 413.433 30.68 411.855 30.04C410.319 29.3573 408.335 29.016 405.903 29.016C403.983 29.016 402.105 29.464 400.271 30.36C398.436 31.2133 396.943 32.6 395.791 34.52H395.599V29.912H386.959ZM443.328 42.904H428.544C428.587 42.264 428.715 41.5387 428.928 40.728C429.184 39.9173 429.589 39.1493 430.144 38.424C430.741 37.6987 431.509 37.1013 432.448 36.632C433.429 36.12 434.645 35.864 436.096 35.864C438.315 35.864 439.957 36.4613 441.024 37.656C442.133 38.8507 442.901 40.6 443.328 42.904ZM428.544 48.664H452.416C452.587 46.104 452.373 43.6507 451.776 41.304C451.179 38.9573 450.197 36.8667 448.832 35.032C447.509 33.1973 445.803 31.7467 443.712 30.68C441.621 29.5707 439.168 29.016 436.352 29.016C433.835 29.016 431.531 29.464 429.44 30.36C427.392 31.256 425.621 32.4933 424.128 34.072C422.635 35.608 421.483 37.4427 420.672 39.576C419.861 41.7093 419.456 44.0133 419.456 46.488C419.456 49.048 419.84 51.3947 420.608 53.528C421.419 55.6613 422.549 57.496 424 59.032C425.451 60.568 427.221 61.7627 429.312 62.616C431.403 63.4267 433.749 63.832 436.352 63.832C440.107 63.832 443.307 62.9787 445.952 61.272C448.597 59.5653 450.56 56.728 451.84 52.76H443.84C443.541 53.784 442.731 54.7653 441.408 55.704C440.085 56.6 438.507 57.048 436.672 57.048C434.112 57.048 432.149 56.3867 430.784 55.064C429.419 53.7413 428.672 51.608 428.544 48.664Z" fill="#676668"/>
<path d="M12.4529 16.2095L0 28.6624L12.4529 41.1153L24.9058 28.6624L12.4529 16.2095Z" fill="#676668"/>
<path d="M24.9265 28.6573L12.4689 16.1997C15.7702 19.5022 17.6248 23.9807 17.6248 28.6503C17.6248 33.32 15.7702 37.7985 12.4689 41.101L0.0112305 53.5447L12.4689 66.0023L24.9265 53.5447L37.3841 41.101L24.9265 28.6573Z" fill="#676668"/>
<path d="M67.7534 66.0293L80.206 53.5764L67.7534 41.1235L55.3005 53.5764L67.7534 66.0293Z" fill="#676668"/>
<path d="M55.3025 53.5726L67.7602 66.0163C64.4588 62.7138 62.6043 58.2353 62.6043 53.5656C62.6043 48.896 64.4588 44.4175 67.7602 41.115L80.218 28.6573L67.7602 16.1997L55.3025 28.6573L42.8589 41.115L55.3025 53.5726Z" fill="#676668"/>
<path d="M15.2087 68.767L27.6616 81.2199L40.1145 68.767L27.6616 56.314L15.2087 68.767Z" fill="#676668"/>
<path d="M27.6637 56.2953L15.2061 68.7529C18.5086 65.4516 22.987 63.597 27.6567 63.597C32.3263 63.597 36.8048 65.4516 40.1073 68.7529L52.5511 81.2108L65.0087 68.7529L52.5511 56.2953L40.1073 43.8516L27.6637 56.2953Z" fill="#676668"/>
<path d="M65.0287 13.453L52.5757 1L40.1228 13.4529L52.5757 25.9059L65.0287 13.453Z" fill="#676668"/>
<path d="M52.5789 25.9197L65.0227 13.4621C61.7201 16.7634 57.2416 18.618 52.572 18.618C47.9023 18.618 43.4239 16.7634 40.1213 13.4621L27.6637 1.00439L15.2061 13.4621L27.6637 25.9197L40.1213 38.3774L52.5789 25.9197Z" fill="#676668"/>
</svg>
