<svg width="228" height="93" viewBox="0 0 228 93" fill="none" xmlns="http://www.w3.org/2000/svg">
<path d="M44.5697 22H38.4302C36.5358 22 35 23.5357 35 25.4302V31.5697C35 33.4642 36.5358 35 38.4302 35H44.5697C46.4642 35 48 33.4642 48 31.5697V25.4302C48 23.5357 46.4642 22 44.5697 22Z" fill="#676668"/>
<path d="M20.5268 35.3659H25.9181C28.149 35.4927 30.2712 36.3716 31.9384 37.8594L32.1406 38.0841C33.6361 39.7464 34.5162 41.8714 34.634 44.1044V49.4732C34.634 50.4085 35.0056 51.3056 35.667 51.967C36.3284 52.6284 37.2255 53 38.1609 53H44.4732C45.4085 53 46.3056 52.6284 46.967 51.967C47.6284 51.3056 48 50.4085 48 49.4732V43.1609C48 42.2255 47.6284 41.3285 46.967 40.6671C46.3056 40.0057 45.4085 39.6341 44.4732 39.6341H39.1043C36.8714 39.5162 34.7464 38.6361 33.084 37.1406L32.8594 36.9384C31.3686 35.2731 30.4892 33.1499 30.3659 30.9181V25.5268C30.3659 24.5915 29.9944 23.6944 29.333 23.033C28.6715 22.3716 27.7745 22 26.8391 22H20.5268C19.5914 22 18.6944 22.3716 18.033 23.033C17.3716 23.6944 17 24.5915 17 25.5268V31.8392C17 32.7745 17.3716 33.6715 18.033 34.3329C18.6944 34.9943 19.5914 35.3659 20.5268 35.3659Z" fill="#676668"/>
<path d="M45.4841 57.4669H40.1435C37.9204 57.3226 35.814 56.4003 34.1798 54.8556L33.579 54.2426C32.0976 52.5622 31.2257 50.4142 31.109 48.1571V42.7075C31.1031 41.7639 30.7332 40.8606 30.0793 40.1933C29.4253 39.526 28.5401 39.1485 27.6153 39.1426H22.2747C20.0699 39.0479 17.9642 38.182 16.3111 36.6903L15.7103 36.0772C14.2288 34.3969 13.357 32.2489 13.2402 29.9918V24.565C13.2402 23.6195 12.8721 22.7127 12.217 22.0441C11.5618 21.3756 10.6732 21 9.7466 21H3.4936C2.5671 21 1.6784 21.3756 1.0233 22.0441C0.3681 22.7127 0 23.6195 0 24.565V30.9455C0 31.891 0.3681 32.7978 1.0233 33.4663C1.6784 34.1349 2.5671 34.5105 3.4936 34.5105H8.812C11.0577 34.6153 13.1977 35.5144 14.8647 37.0536L15.4655 37.6667C16.9423 39.35 17.8134 41.4962 17.9355 43.752V49.2017C17.9413 50.1453 18.3113 51.0486 18.9652 51.7158C19.6191 52.3831 20.5044 52.7606 21.4291 52.7666H26.7697C28.9572 52.9063 31.0346 53.7942 32.6667 55.287L33.2675 55.9001C34.7443 57.5834 35.6154 59.7297 35.7375 61.9855V67.4351C35.7433 68.3788 36.1133 69.282 36.7672 69.9493C37.4211 70.6166 38.3064 70.994 39.2311 71H45.5063C46.4311 70.994 47.3164 70.6166 47.9703 69.9493C48.6242 69.282 48.9942 68.3788 49 67.4351V61.0318C48.9941 60.0843 48.6211 59.1775 47.9624 58.5096C47.3037 57.8417 46.4127 57.4668 45.4841 57.4669Z" fill="#676668"/>
<path d="M10.3059 57H3.6941C1.6539 57 0 58.5358 0 60.4303V66.5698C0 68.4643 1.6539 70 3.6941 70H10.3059C12.3461 70 14 68.4643 14 66.5698V60.4303C14 58.5358 12.3461 57 10.3059 57Z" fill="#676668"/>
<path d="M27.4732 56.634H22.1043C19.8714 56.5161 17.7464 55.6361 16.084 54.1406L15.8594 53.9384C14.3591 52.2613 13.4791 50.1206 13.3659 47.8732V42.4819C13.3548 41.5735 12.9936 40.7044 12.3575 40.0557C11.7214 39.4071 10.8595 39.0289 9.9514 39H3.5268C2.5914 39 1.6944 39.3716 1.033 40.033C0.371597 40.6944 0 41.5914 0 42.5268V48.8391C0 49.7745 0.371597 50.6715 1.033 51.333C1.6944 51.9944 2.5914 52.3659 3.5268 52.3659H8.9181C11.149 52.4927 13.2712 53.3716 14.9384 54.8594L15.1406 55.084C16.6361 56.7464 17.5162 58.8714 17.634 61.1043V66.4731C17.634 66.9382 17.726 67.3986 17.9046 67.8279C18.0833 68.2573 18.3451 68.6471 18.675 68.9749C19.0048 69.3027 19.3963 69.562 19.8268 69.7379C20.2573 69.9138 20.7183 70.0029 21.1833 69.9999H27.4732C28.4085 69.9999 29.3056 69.6284 29.967 68.967C30.6284 68.3056 31 67.4085 31 66.4731V60.1608C31 59.2255 30.6284 58.3284 29.967 57.667C29.3056 57.0056 28.4085 56.634 27.4732 56.634Z" fill="#676668"/>
<path d="M65.864 61.392C66.0347 61.2213 66.2053 61.2213 66.376 61.392C67.4853 62.7147 69.0853 63.8453 71.176 64.784C73.2667 65.7227 75.5493 66.192 78.024 66.192C81.224 66.192 83.8267 65.4453 85.832 63.952C87.8373 62.416 88.84 60.1547 88.84 57.168C88.84 55.2053 88.3707 53.6267 87.432 52.432C86.536 51.2373 85.256 50.256 83.592 49.488C81.928 48.6773 79.9867 47.952 77.768 47.312C76.488 46.928 75.08 46.48 73.544 45.968C72.0507 45.4133 70.6213 44.688 69.256 43.792C67.9333 42.8533 66.8667 41.68 66.056 40.272C65.2453 38.8213 64.8827 37.0507 64.968 34.96C65.096 31.632 66.3547 28.88 68.744 26.704C71.176 24.528 74.5253 23.44 78.792 23.44C81.992 23.44 84.7013 23.9733 86.92 25.04C89.1813 26.1067 90.8453 27.2373 91.912 28.432C92.04 28.56 92.04 28.7307 91.912 28.944L89.8 31.376C89.672 31.5893 89.5013 31.5893 89.288 31.376C88.4347 30.352 87.0907 29.3707 85.256 28.432C83.464 27.4933 81.288 27.024 78.728 27.024C75.8693 27.024 73.5653 27.7067 71.816 29.072C70.0667 30.4373 69.192 32.3147 69.192 34.704C69.192 36.6667 69.6613 38.224 70.6 39.376C71.5813 40.4853 72.8187 41.3387 74.312 41.936C75.848 42.5333 77.4267 43.0667 79.048 43.536C80.5413 43.9627 82.0987 44.496 83.72 45.136C85.3413 45.7333 86.856 46.5227 88.264 47.504C89.672 48.4853 90.8027 49.7653 91.656 51.344C92.552 52.88 93 54.8 93 57.104C93 59.8347 92.36 62.16 91.08 64.08C89.8 65.9573 88.0293 67.3867 85.768 68.368C83.5067 69.3493 80.8827 69.84 77.896 69.84C74.7387 69.84 71.88 69.3067 69.32 68.24C66.76 67.1733 64.8613 65.8507 63.624 64.272C63.5387 64.144 63.56 63.9733 63.688 63.76L65.864 61.392ZM96.0595 42.384C95.9742 42.1707 96.0168 42 96.1875 41.872C97.9795 40.7627 99.8782 39.9307 101.884 39.376C103.889 38.7787 105.83 38.48 107.708 38.48C114.748 38.48 118.268 42 118.268 49.04V64.144C118.268 64.8693 118.46 65.3813 118.844 65.68C119.228 65.936 119.697 66.064 120.252 66.064C120.422 66.064 120.508 66.192 120.508 66.448L120.188 69.264C120.188 69.4347 120.081 69.52 119.868 69.52C118.673 69.52 117.564 69.2 116.54 68.56C115.516 67.92 114.833 66.9387 114.492 65.616C113.297 67.024 111.782 68.0907 109.948 68.816C108.156 69.4987 106.321 69.84 104.444 69.84C102.865 69.84 101.329 69.5413 99.8355 68.944C98.3848 68.3467 97.1902 67.3653 96.2515 66C95.3555 64.6347 94.9075 62.8 94.9075 60.496C94.9075 57.808 95.7608 55.7173 97.4675 54.224C99.1742 52.7307 101.5 51.7067 104.444 51.152C107.388 50.5547 110.673 50.256 114.3 50.256V49.168C114.3 46.5653 113.681 44.7307 112.444 43.664C111.249 42.5547 109.521 42 107.26 42C105.809 42 104.252 42.256 102.588 42.768C100.966 43.28 99.4728 44.0267 98.1075 45.008C97.8942 45.2213 97.7235 45.2 97.5955 44.944L96.0595 42.384ZM114.3 59.92V53.776C114.086 53.7333 113.852 53.712 113.596 53.712C113.382 53.712 113.148 53.712 112.892 53.712C110.289 53.712 107.921 53.9253 105.788 54.352C103.697 54.736 102.033 55.44 100.795 56.464C99.5582 57.4453 98.9395 58.832 98.9395 60.624C98.9395 62.672 99.5582 64.1227 100.795 64.976C102.075 65.8293 103.505 66.256 105.084 66.256C106.918 66.256 108.71 65.744 110.46 64.72C112.252 63.696 113.532 62.096 114.3 59.92ZM141.402 45.264C141.188 45.392 141.018 45.392 140.89 45.264C140.335 44.4107 139.396 43.664 138.073 43.024C136.793 42.3413 135.279 42 133.53 42C132.378 42 131.268 42.1493 130.201 42.448C129.135 42.7467 128.26 43.2373 127.578 43.92C126.895 44.6027 126.554 45.4987 126.554 46.608C126.554 47.9307 127.151 48.976 128.345 49.744C129.54 50.512 131.631 51.216 134.618 51.856C137.434 52.4533 139.738 53.456 141.53 54.864C143.322 56.272 144.218 58.2133 144.218 60.688C144.218 62.7787 143.663 64.5067 142.554 65.872C141.487 67.1947 140.079 68.1973 138.33 68.88C136.623 69.52 134.831 69.84 132.954 69.84C130.308 69.84 127.898 69.3067 125.721 68.24C123.545 67.1733 122.031 65.5733 121.177 63.44C121.092 63.2267 121.156 63.056 121.369 62.928L123.993 61.52C124.079 61.4773 124.185 61.456 124.313 61.456C124.441 61.456 124.527 61.5413 124.569 61.712C125.252 63.2053 126.362 64.3573 127.898 65.168C129.476 65.936 131.14 66.32 132.89 66.32C134.895 66.32 136.602 65.9147 138.01 65.104C139.46 64.2507 140.186 62.9067 140.186 61.072C140.186 59.0667 139.46 57.68 138.01 56.912C136.559 56.1013 134.682 55.4827 132.378 55.056C129.434 54.5013 127.044 53.5627 125.209 52.24C123.417 50.9173 122.521 49.04 122.521 46.608C122.521 44.688 123.055 43.1307 124.122 41.936C125.188 40.7413 126.553 39.8667 128.217 39.312C129.924 38.7573 131.674 38.48 133.466 38.48C135.812 38.48 137.818 38.864 139.482 39.632C141.188 40.4 142.554 41.424 143.578 42.704C143.706 42.8747 143.684 43.0667 143.514 43.28L141.402 45.264ZM165.062 45.264C164.848 45.392 164.678 45.392 164.55 45.264C163.995 44.4107 163.056 43.664 161.734 43.024C160.454 42.3413 158.939 42 157.19 42C156.038 42 154.928 42.1493 153.862 42.448C152.795 42.7467 151.92 43.2373 151.238 43.92C150.555 44.6027 150.214 45.4987 150.214 46.608C150.214 47.9307 150.811 48.976 152.006 49.744C153.2 50.512 155.291 51.216 158.278 51.856C161.094 52.4533 163.398 53.456 165.19 54.864C166.982 56.272 167.878 58.2133 167.878 60.688C167.878 62.7787 167.323 64.5067 166.214 65.872C165.147 67.1947 163.739 68.1973 161.99 68.88C160.283 69.52 158.491 69.84 156.614 69.84C153.968 69.84 151.558 69.3067 149.382 68.24C147.206 67.1733 145.691 65.5733 144.838 63.44C144.752 63.2267 144.816 63.056 145.03 62.928L147.654 61.52C147.739 61.4773 147.846 61.456 147.974 61.456C148.102 61.456 148.187 61.5413 148.23 61.712C148.912 63.2053 150.022 64.3573 151.558 65.168C153.136 65.936 154.8 66.32 156.55 66.32C158.555 66.32 160.262 65.9147 161.67 65.104C163.12 64.2507 163.846 62.9067 163.846 61.072C163.846 59.0667 163.12 57.68 161.67 56.912C160.219 56.1013 158.342 55.4827 156.038 55.056C153.094 54.5013 150.704 53.5627 148.87 52.24C147.078 50.9173 146.182 49.04 146.182 46.608C146.182 44.688 146.715 43.1307 147.782 41.936C148.848 40.7413 150.214 39.8667 151.878 39.312C153.584 38.7573 155.334 38.48 157.126 38.48C159.472 38.48 161.478 38.864 163.142 39.632C164.848 40.4 166.214 41.424 167.238 42.704C167.366 42.8747 167.344 43.0667 167.174 43.28L165.062 45.264ZM195.058 39.44C195.186 39.44 195.271 39.4827 195.314 39.568C195.356 39.6533 195.335 39.7387 195.25 39.824L183.025 51.664L188.913 59.152C190.279 60.8587 191.388 62.1813 192.242 63.12C193.095 64.016 193.863 64.656 194.545 65.04C195.271 65.3813 196.06 65.5733 196.914 65.616C197.17 65.616 197.298 65.744 197.298 66V68.816C197.298 69.072 197.17 69.2 196.914 69.2C195.42 69.1573 194.098 68.88 192.946 68.368C191.836 67.8133 190.706 66.96 189.554 65.808C188.402 64.6133 187.058 63.0347 185.521 61.072L180.337 54.288L175.985 58.512V68.56C175.985 68.7733 175.879 68.88 175.665 68.88H172.337C172.124 68.88 172.017 68.7733 172.017 68.56V23.12C172.017 22.9067 172.124 22.8 172.337 22.8H175.665C175.879 22.8 175.985 22.9067 175.985 23.12V53.648L178.674 50.896L190.066 39.632C190.193 39.504 190.343 39.44 190.514 39.44H195.058ZM203.144 68.56C203.144 68.7733 203.037 68.88 202.824 68.88H199.496C199.283 68.88 199.176 68.7733 199.176 68.56V39.76C199.176 39.5467 199.283 39.44 199.496 39.44H202.824C203.037 39.44 203.144 39.5467 203.144 39.76V68.56ZM201.224 32.08C200.2 32.08 199.347 31.76 198.664 31.12C197.981 30.48 197.64 29.712 197.64 28.816C197.64 27.8347 197.981 27.024 198.664 26.384C199.347 25.7013 200.2 25.36 201.224 25.36C202.205 25.36 203.016 25.7013 203.656 26.384C204.339 27.024 204.68 27.8347 204.68 28.816C204.68 29.712 204.339 30.48 203.656 31.12C203.016 31.76 202.205 32.08 201.224 32.08ZM210.79 60.688V42.96H206.694C206.438 42.96 206.31 42.832 206.31 42.576V39.824C206.31 39.568 206.438 39.44 206.694 39.44H210.79V33.424C210.79 33.2533 210.854 33.1467 210.982 33.104L214.566 32.144C214.779 32.1013 214.886 32.208 214.886 32.464V39.44H224.166C224.422 39.44 224.55 39.568 224.55 39.824V42.576C224.55 42.832 224.422 42.96 224.166 42.96H214.886L214.95 60.816C214.95 62.992 215.419 64.4427 216.358 65.168C217.339 65.8507 218.491 66.192 219.814 66.192C220.539 66.192 221.414 66.064 222.438 65.808C223.505 65.552 224.379 65.232 225.062 64.848C225.318 64.72 225.489 64.784 225.574 65.04L226.47 67.792C226.555 68.0053 226.491 68.1547 226.278 68.24C225.083 68.7947 223.803 69.2 222.438 69.456C221.115 69.712 219.921 69.84 218.854 69.84C216.55 69.84 214.63 69.1147 213.094 67.664C211.558 66.2133 210.79 63.888 210.79 60.688Z" fill="#676668"/>
</svg>
