<svg width="354" height="115" viewBox="0 0 354 115" fill="none" xmlns="http://www.w3.org/2000/svg">
<path d="M12.6442 50.8947L20.7589 46.2147L16.2294 38.3736H58.8282L37.5357 75.2662L33.0062 67.4114L24.8915 72.1051L37.5357 94L75.0576 29H0L12.6442 50.8947Z" fill="#676668"/>
<path d="M140.186 28.72L119.354 94H110.906L89.9776 28.72H98.8096L109.178 61.84L115.418 82.768L121.754 61.744L131.93 28.72H140.186ZM182.813 91.216C179.933 92.624 177.053 93.584 174.173 94.096C171.293 94.672 168.637 94.96 166.205 94.96C159.357 94.96 154.237 93.008 150.845 89.104C147.517 85.2 145.853 79.856 145.853 73.072V67.312C145.853 60.72 147.517 55.44 150.845 51.472C154.237 47.504 159.005 45.52 165.149 45.52C168.413 45.52 171.389 46.192 174.077 47.536C176.829 48.816 179.005 50.8 180.605 53.488C182.269 56.112 183.101 59.504 183.101 63.664C183.101 66.352 182.717 69.424 181.949 72.88H153.629V73.072C153.629 77.936 154.621 81.616 156.605 84.112C158.653 86.608 161.917 87.856 166.397 87.856C168.445 87.856 170.685 87.6 173.117 87.088C175.613 86.576 178.045 85.776 180.413 84.688L182.813 91.216ZM165.149 52.432C161.437 52.432 158.621 53.648 156.701 56.08C154.845 58.448 153.821 61.808 153.629 66.16H175.133C175.325 65.008 175.421 63.92 175.421 62.896C175.421 59.312 174.397 56.688 172.349 55.024C170.365 53.296 167.965 52.432 165.149 52.432ZM221.684 53.392C218.804 53.392 215.988 53.904 213.236 54.928C210.548 55.952 207.668 57.904 204.596 60.784V94H196.724V46.48H204.212V54.16C207.476 50.96 210.452 48.72 213.14 47.44C215.892 46.16 218.74 45.52 221.684 45.52V53.392ZM258.086 92.272C254.502 94.064 250.694 94.96 246.662 94.96C243.206 94.96 240.486 94.256 238.502 92.848C236.582 91.44 235.206 89.552 234.374 87.184C233.606 84.816 233.222 82.192 233.222 79.312V53.392H224.966V46.48H233.222V33.232H241.094V46.48H256.646V53.392H241.094V79.024C241.094 82.352 241.638 84.656 242.726 85.936C243.878 87.152 245.638 87.76 248.006 87.76C249.158 87.76 250.342 87.632 251.558 87.376C252.838 87.056 254.214 86.544 255.686 85.84L258.086 92.272ZM302.907 91.216C300.027 92.624 297.147 93.584 294.267 94.096C291.387 94.672 288.731 94.96 286.299 94.96C279.451 94.96 274.331 93.008 270.939 89.104C267.611 85.2 265.947 79.856 265.947 73.072V67.312C265.947 60.72 267.611 55.44 270.939 51.472C274.331 47.504 279.099 45.52 285.243 45.52C288.507 45.52 291.483 46.192 294.171 47.536C296.923 48.816 299.099 50.8 300.699 53.488C302.363 56.112 303.195 59.504 303.195 63.664C303.195 66.352 302.811 69.424 302.043 72.88H273.723V73.072C273.723 77.936 274.715 81.616 276.699 84.112C278.747 86.608 282.011 87.856 286.491 87.856C288.539 87.856 290.779 87.6 293.211 87.088C295.707 86.576 298.139 85.776 300.507 84.688L302.907 91.216ZM285.243 52.432C281.531 52.432 278.715 53.648 276.795 56.08C274.939 58.448 273.915 61.808 273.723 66.16H295.227C295.419 65.008 295.515 63.92 295.515 62.896C295.515 59.312 294.491 56.688 292.443 55.024C290.459 53.296 288.059 52.432 285.243 52.432ZM341.97 94L330.162 75.472L318.834 94H310.482L326.226 69.424L311.634 46.48H320.37L330.834 63.088L341.106 46.48H349.362L334.866 69.232L350.61 94H341.97Z" fill="#676668"/>
</svg>
