<svg width="221" height="81" viewBox="0 0 221 81" fill="none" xmlns="http://www.w3.org/2000/svg">
<path opacity="0.8" d="M34.1313 0L0 22.6192V22.6618L26.3926 40.1432L34.1313 35.0053V0Z" fill="#A7A9AC"/>
<path opacity="0.8" d="M0 57.6884L34.1313 80.286V45.2809L26.3926 40.1431L0 57.6244V57.6884Z" fill="#A7A9AC"/>
<path opacity="0.8" d="M71.6095 23.1739L37.4786 0.554688V35.56L45.2386 40.6978L71.6095 23.2165V23.1739Z" fill="#A7A9AC"/>
<path opacity="0.8" d="M37.4786 80.8408L71.6095 58.2213V58.1786L45.2386 40.6973L37.4786 45.8351V80.8408Z" fill="#A7A9AC"/>
<path opacity="0.8" d="M0 22.6621V57.6248L26.3926 40.1434L0 22.6621Z" fill="#414042"/>
<path opacity="0.8" d="M71.6105 58.179V23.2163L45.2388 40.6977L71.6105 58.179Z" fill="#414042"/>
<path d="M118.75 19.5625V22.25H98.5312V37.0625H113.156V39.75H98.5312V61H92.8125V19.5625H118.75ZM122.66 30.0625L126.722 28.4062H127.722V61H122.66V30.0625ZM122.16 16.75C122.16 16.25 122.233 15.7812 122.379 15.3438C122.545 14.9062 122.764 14.5208 123.035 14.1875C123.306 13.8542 123.618 13.5938 123.972 13.4062C124.347 13.2188 124.743 13.125 125.16 13.125C125.577 13.125 125.962 13.2188 126.316 13.4062C126.691 13.5938 127.014 13.8542 127.285 14.1875C127.556 14.5208 127.764 14.9062 127.91 15.3438C128.077 15.7812 128.16 16.25 128.16 16.75C128.16 17.25 128.077 17.7188 127.91 18.1562C127.764 18.5938 127.556 18.9792 127.285 19.3125C127.014 19.6458 126.691 19.9062 126.316 20.0938C125.962 20.2812 125.577 20.375 125.16 20.375C124.743 20.375 124.347 20.2812 123.972 20.0938C123.618 19.9062 123.306 19.6458 123.035 19.3125C122.764 18.9792 122.545 18.5938 122.379 18.1562C122.233 17.7188 122.16 17.25 122.16 16.75ZM140.945 28.4062H141.07L141.914 34.9375C142.705 33.9792 143.539 33.1042 144.414 32.3125C145.31 31.5208 146.216 30.8333 147.132 30.25C148.07 29.6667 149.018 29.2188 149.976 28.9062C150.955 28.5729 151.914 28.4062 152.851 28.4062C153.685 28.4062 154.507 28.5312 155.32 28.7812C156.132 29.0104 156.903 29.3646 157.632 29.8438L155.882 34.4688C155.341 34.1354 154.862 33.8854 154.445 33.7188C154.028 33.5312 153.622 33.3958 153.226 33.3125C152.83 33.2292 152.414 33.1875 151.976 33.1875C151.539 33.1667 151.039 33.1562 150.476 33.1562C149.56 33.1562 148.664 33.3438 147.789 33.7188C146.914 34.0729 146.101 34.5521 145.351 35.1562C144.601 35.7396 143.935 36.4062 143.351 37.1562C142.768 37.9062 142.289 38.6667 141.914 39.4375V61H136.82V30L140.945 28.4062ZM173.574 61.6875C171.49 61.6875 169.532 61.2812 167.699 60.4688C165.886 59.6562 164.293 58.5521 162.918 57.1562C161.563 55.7604 160.49 54.125 159.699 52.25C158.907 50.3542 158.511 48.3438 158.511 46.2188C158.511 43.6562 158.865 41.2917 159.574 39.125C160.303 36.9375 161.324 35.0521 162.636 33.4688C163.97 31.8854 165.563 30.6458 167.418 29.75C169.272 28.8542 171.334 28.4062 173.605 28.4062C175.605 28.4062 177.438 28.7812 179.105 29.5312C180.772 30.2604 182.209 31.25 183.418 32.5C184.626 33.7292 185.563 35.1562 186.23 36.7812C186.897 38.4062 187.23 40.1042 187.23 41.875H163.386C163.386 44.0208 163.678 46.0104 164.261 47.8438C164.845 49.6771 165.657 51.2604 166.699 52.5938C167.761 53.9271 169.011 54.9688 170.449 55.7188C171.907 56.4688 173.511 56.8438 175.261 56.8438C176.72 56.8438 178.115 56.6354 179.449 56.2188C180.803 55.7812 182.011 55.2188 183.074 54.5312C184.157 53.8229 185.063 53.0208 185.793 52.125C186.543 51.2083 187.063 50.2708 187.355 49.3125L188.136 49.6875C187.657 51.3542 186.918 52.9167 185.918 54.375C184.938 55.8125 183.793 57.0833 182.48 58.1875C181.168 59.2708 179.74 60.125 178.199 60.75C176.678 61.375 175.136 61.6875 173.574 61.6875ZM179.886 39.3125H180.511C180.511 38.1042 180.282 36.9792 179.824 35.9375C179.365 34.8958 178.73 34 177.918 33.25C177.126 32.4792 176.188 31.875 175.105 31.4375C174.022 31 172.865 30.7812 171.636 30.7812C170.595 30.7812 169.595 31 168.636 31.4375C167.699 31.8542 166.855 32.4479 166.105 33.2188C165.355 33.9688 164.74 34.8646 164.261 35.9062C163.782 36.9479 163.501 38.0729 163.418 39.2812L179.886 39.3125ZM199.64 61H194.515V14.3438L198.64 12.6875H199.64V61ZM208.8 30.0625L212.863 28.4062H213.863V61H208.8V30.0625ZM208.3 16.75C208.3 16.25 208.373 15.7812 208.519 15.3438C208.685 14.9062 208.904 14.5208 209.175 14.1875C209.446 13.8542 209.758 13.5938 210.113 13.4062C210.488 13.2188 210.883 13.125 211.3 13.125C211.717 13.125 212.102 13.2188 212.456 13.4062C212.831 13.5938 213.154 13.8542 213.425 14.1875C213.696 14.5208 213.904 14.9062 214.05 15.3438C214.217 15.7812 214.3 16.25 214.3 16.75C214.3 17.25 214.217 17.7188 214.05 18.1562C213.904 18.5938 213.696 18.9792 213.425 19.3125C213.154 19.6458 212.831 19.9062 212.456 20.0938C212.102 20.2812 211.717 20.375 211.3 20.375C210.883 20.375 210.488 20.2812 210.113 20.0938C209.758 19.9062 209.446 19.6458 209.175 19.3125C208.904 18.9792 208.685 18.5938 208.519 18.1562C208.373 17.7188 208.3 17.25 208.3 16.75Z" fill="#676668"/>
</svg>
