<svg width="294" height="115" viewBox="0 0 294 115" fill="none" xmlns="http://www.w3.org/2000/svg">
<path d="M8.09 48.7598C7.6611 48.7624 7.2506 48.934 6.9474 49.2372C6.6441 49.5404 6.4726 49.951 6.47 50.3798V53.3798C6.438 53.7862 6.2539 54.1656 5.9546 54.4423C5.6552 54.719 5.2626 54.8726 4.855 54.8726C4.4473 54.8726 4.0547 54.719 3.7554 54.4423C3.456 54.1656 3.272 53.7862 3.24 53.3798V53.5798C3.24 53.1502 3.0693 52.7381 2.7655 52.4343C2.4617 52.1305 2.0496 51.9598 1.62 51.9598C1.1903 51.9598 0.778299 52.1305 0.474499 52.4343C0.170699 52.7381 0 53.1502 0 53.5798V80.1898C0 80.6195 0.170699 81.0315 0.474499 81.3353C0.778299 81.6392 1.1903 81.8098 1.62 81.8098C2.0496 81.8098 2.4617 81.6392 2.7655 81.3353C3.0693 81.0315 3.24 80.6195 3.24 80.1898V71.7498C3.2224 71.5271 3.2512 71.3031 3.3244 71.0919C3.3976 70.8808 3.5137 70.6871 3.6653 70.523C3.817 70.3589 4.001 70.228 4.2057 70.1384C4.4105 70.0489 4.6315 70.0026 4.855 70.0026C5.0784 70.0026 5.2995 70.0489 5.5042 70.1384C5.7089 70.228 5.8929 70.3589 6.0446 70.523C6.1963 70.6871 6.3124 70.8808 6.3856 71.0919C6.4588 71.3031 6.4875 71.5271 6.47 71.7498V76.9498C6.47 77.3795 6.6406 77.7915 6.9445 78.0953C7.2483 78.3991 7.6603 78.5698 8.09 78.5698C8.5196 78.5698 8.9317 78.3991 9.2355 78.0953C9.5393 77.7915 9.71 77.3795 9.71 76.9498V50.3598C9.7047 49.9336 9.5318 49.5267 9.2285 49.2272C8.9253 48.9277 8.5162 48.7598 8.09 48.7598ZM4.86 67.8698C4.6469 67.8712 4.4356 67.8302 4.2385 67.7492C4.0413 67.6683 3.8622 67.549 3.7115 67.3983C3.5608 67.2476 3.4415 67.0685 3.3606 66.8713C3.2797 66.6742 3.2387 66.4629 3.24 66.2498V58.9498C3.2224 58.727 3.2512 58.503 3.3244 58.2919C3.3976 58.0808 3.5137 57.8871 3.6653 57.723C3.817 57.5589 4.001 57.428 4.2057 57.3384C4.4105 57.2489 4.6315 57.2026 4.855 57.2026C5.0784 57.2026 5.2995 57.2489 5.5042 57.3384C5.7089 57.428 5.8929 57.5589 6.0446 57.723C6.1963 57.8871 6.3124 58.0808 6.3856 58.2919C6.4588 58.503 6.4875 58.727 6.47 58.9498V66.2498C6.4713 66.4621 6.4307 66.6725 6.3503 66.869C6.27 67.0655 6.1516 67.2442 6.002 67.3947C5.8523 67.5453 5.6744 67.6648 5.4785 67.7463C5.2825 67.8279 5.0723 67.8698 4.86 67.8698Z" fill="#676668"/>
<path d="M21.03 35.3599C20.8186 35.3599 20.6093 35.4016 20.4139 35.4825C20.2186 35.5634 20.0411 35.682 19.8916 35.8315C19.7421 35.981 19.6235 36.1585 19.5426 36.3538C19.4617 36.5491 19.42 36.7585 19.42 36.9699V58.1999C19.42 58.6296 19.2494 59.0416 18.9456 59.3454C18.6417 59.6493 18.2297 59.8199 17.8 59.8199C17.3704 59.8199 16.9583 59.6493 16.6545 59.3454C16.3507 59.0416 16.1801 58.6296 16.1801 58.1999V41.93C16.1976 41.7072 16.1688 41.4832 16.0956 41.2721C16.0224 41.0609 15.9064 40.8672 15.7547 40.7031C15.603 40.539 15.419 40.4081 15.2143 40.3185C15.0096 40.229 14.7885 40.1828 14.5651 40.1828C14.3416 40.1828 14.1206 40.229 13.9158 40.3185C13.7111 40.4081 13.5271 40.539 13.3754 40.7031C13.2237 40.8672 13.1076 41.0609 13.0344 41.2721C12.9612 41.4832 12.9325 41.7072 12.9501 41.93V68.5399C12.9325 68.7627 12.9612 68.9867 13.0344 69.1978C13.1076 69.409 13.2237 69.6026 13.3754 69.7667C13.5271 69.9308 13.7111 70.0618 13.9158 70.1514C14.1206 70.2409 14.3416 70.2871 14.5651 70.2871C14.7885 70.2871 15.0096 70.2409 15.2143 70.1514C15.419 70.0618 15.603 69.9308 15.7547 69.7667C15.9064 69.6026 16.0224 69.409 16.0956 69.1978C16.1688 68.9867 16.1976 68.7627 16.1801 68.5399V63.6899C16.1801 63.2603 16.3507 62.8482 16.6545 62.5444C16.9583 62.2406 17.3704 62.0699 17.8 62.0699C18.2297 62.0699 18.6417 62.2406 18.9456 62.5444C19.2494 62.8482 19.42 63.2603 19.42 63.6899V63.5399C19.452 63.9463 19.6361 64.3257 19.9354 64.6024C20.2348 64.8791 20.6274 65.0328 21.035 65.0328C21.4427 65.0328 21.8354 64.8791 22.1347 64.6024C22.434 64.3257 22.618 63.9463 22.65 63.5399V36.9199C22.637 36.4999 22.4603 36.1017 22.1576 35.8102C21.8549 35.5187 21.4502 35.3571 21.03 35.3599Z" fill="#676668"/>
<path d="M33.97 25C33.5403 25 33.1283 25.1707 32.8245 25.4745C32.5207 25.7783 32.35 26.1903 32.35 26.62V31.1C32.35 31.5296 32.1793 31.9417 31.8755 32.2455C31.5717 32.5493 31.1596 32.72 30.73 32.72C30.3003 32.72 29.8883 32.5493 29.5845 32.2455C29.2807 31.9417 29.11 31.5296 29.11 31.1V30.26C29.078 29.8536 28.8939 29.4742 28.5946 29.1975C28.2953 28.9208 27.9026 28.7672 27.495 28.7672C27.0874 28.7672 26.6947 28.9208 26.3954 29.1975C26.096 29.4742 25.912 29.8536 25.88 30.26V56.87C25.8625 57.0928 25.8912 57.3167 25.9644 57.5279C26.0376 57.739 26.1537 57.9327 26.3054 58.0968C26.457 58.2609 26.641 58.3918 26.8458 58.4814C27.0505 58.5709 27.2715 58.6172 27.495 58.6172C27.7185 58.6172 27.9395 58.5709 28.1442 58.4814C28.349 58.3918 28.533 58.2609 28.6846 58.0968C28.8363 57.9327 28.9524 57.739 29.0256 57.5279C29.0988 57.3167 29.1275 57.0928 29.11 56.87V36.63C29.11 36.2003 29.2807 35.7883 29.5845 35.4845C29.8883 35.1807 30.3003 35.01 30.73 35.01C31.1596 35.01 31.5717 35.1807 31.8755 35.4845C32.1793 35.7883 32.35 36.2003 32.35 36.63V53.23C32.35 53.6596 32.5207 54.0717 32.8245 54.3755C33.1283 54.6793 33.5403 54.85 33.97 54.85C34.3996 54.85 34.8117 54.6793 35.1155 54.3755C35.4193 54.0717 35.59 53.6596 35.59 53.23V26.62C35.5873 26.1912 35.4159 25.7806 35.1126 25.4774C34.8094 25.1741 34.3988 25.0026 33.97 25Z" fill="#676668"/>
<path d="M59.85 51.7499C59.4221 51.7526 59.0126 51.9244 58.711 52.2279C58.4093 52.5314 58.24 52.942 58.2401 53.3699V55.6799C58.2401 56.1096 58.0694 56.5216 57.7656 56.8254C57.4618 57.1292 57.0497 57.2999 56.6201 57.2999C56.1904 57.2999 55.7784 57.1292 55.4745 56.8254C55.1707 56.5216 55.0001 56.1096 55.0001 55.6799V49.1699C55.0001 48.7403 54.8294 48.3282 54.5256 48.0244C54.2218 47.7206 53.8097 47.5499 53.3801 47.5499C52.9504 47.5499 52.5384 47.7206 52.2346 48.0244C51.9307 48.3282 51.7601 48.7403 51.7601 49.1699V63.0799C51.7281 63.4863 51.544 63.8657 51.2447 64.1423C50.9453 64.419 50.5527 64.5727 50.145 64.5727C49.7374 64.5727 49.3448 64.419 49.0454 64.1423C48.7461 63.8657 48.562 63.4863 48.53 63.0799V41.7999C48.53 41.3703 48.3594 40.9582 48.0555 40.6544C47.7517 40.3506 47.3397 40.1799 46.91 40.1799C46.4804 40.1799 46.0683 40.3506 45.7645 40.6544C45.4607 40.9582 45.29 41.3703 45.29 41.7999V56.6499C45.3076 56.8727 45.2788 57.0967 45.2056 57.3078C45.1324 57.5189 45.0164 57.7126 44.8647 57.8767C44.713 58.0408 44.529 58.1718 44.3243 58.2613C44.1196 58.3509 43.8985 58.3971 43.675 58.3971C43.4516 58.3971 43.2305 58.3509 43.0258 58.2613C42.8211 58.1718 42.6371 58.0408 42.4854 57.8767C42.3337 57.7126 42.2177 57.5189 42.1445 57.3078C42.0713 57.0967 42.0425 56.8727 42.0601 56.6499V35.4799C42.0601 35.0503 41.8894 34.6382 41.5856 34.3344C41.2818 34.0306 40.8697 33.8599 40.4401 33.8599C40.0104 33.8599 39.5984 34.0306 39.2946 34.3344C38.9907 34.6382 38.8201 35.0503 38.8201 35.4799V62.0899C38.8201 62.5196 38.9907 62.9316 39.2946 63.2354C39.5984 63.5392 40.0104 63.7099 40.4401 63.7099C40.8697 63.7099 41.2818 63.5392 41.5856 63.2354C41.8894 62.9316 42.0601 62.5196 42.0601 62.0899V62.1799C42.0921 61.7735 42.2761 61.3941 42.5754 61.1174C42.8748 60.8408 43.2674 60.6871 43.675 60.6871C44.0827 60.6871 44.4753 60.8408 44.7747 61.1174C45.074 61.3941 45.258 61.7735 45.29 62.1799V68.4099C45.29 68.8395 45.4607 69.2516 45.7645 69.5554C46.0683 69.8592 46.4804 70.0299 46.91 70.0299C47.3397 70.0299 47.7517 69.8592 48.0555 69.5554C48.3594 69.2516 48.53 68.8395 48.53 68.4099V68.6099C48.5125 68.3871 48.5412 68.1631 48.6144 67.952C48.6876 67.7409 48.8038 67.5472 48.9554 67.3831C49.1071 67.219 49.2911 67.0881 49.4958 66.9985C49.7005 66.909 49.9216 66.8627 50.145 66.8627C50.3685 66.8627 50.5895 66.909 50.7943 66.9985C50.999 67.0881 51.183 67.219 51.3347 67.3831C51.4863 67.5472 51.6025 67.7409 51.6757 67.952C51.7489 68.1631 51.7776 68.3871 51.7601 68.6099V75.7799C51.7601 76.2096 51.9307 76.6216 52.2346 76.9254C52.5384 77.2292 52.9504 77.3999 53.3801 77.3999C53.8097 77.3999 54.2218 77.2292 54.5256 76.9254C54.8294 76.6216 55.0001 76.2096 55.0001 75.7799V61.2199C55.0001 60.7902 55.1707 60.3782 55.4745 60.0744C55.7784 59.7706 56.1904 59.5999 56.6201 59.5999C57.0497 59.5999 57.4618 59.7706 57.7656 60.0744C58.0694 60.3782 58.2401 60.7902 58.2401 61.2199V79.9799C58.2225 80.2027 58.2513 80.4267 58.3245 80.6378C58.3977 80.8489 58.5137 81.0426 58.6654 81.2067C58.8171 81.3708 59.0011 81.5017 59.2058 81.5913C59.4105 81.6808 59.6316 81.7271 59.855 81.7271C60.0785 81.7271 60.2995 81.6808 60.5043 81.5913C60.709 81.5017 60.893 81.3708 61.0447 81.2067C61.1964 81.0426 61.3125 80.8489 61.3857 80.6378C61.4589 80.4267 61.4876 80.2027 61.47 79.9799V53.3599C61.4674 52.932 61.2956 52.5225 60.9921 52.2208C60.6885 51.9192 60.278 51.7499 59.85 51.7499Z" fill="#676668"/>
<path d="M84.496 91V89.944H88.912V24.856H84.496V23.8H97.168L104.848 72.184H104.32L113.296 23.8H125.296V24.856H120.784V89.944H125.296V91H109.6V89.944H113.584V25.528H114.064L102.112 90.856H100.624L89.584 24.664H89.968V89.944H94.768V91H84.496ZM140.04 92.008C138.28 92.008 136.664 91.608 135.192 90.808C133.72 90.008 132.552 88.744 131.688 87.016C130.824 85.288 130.392 83.032 130.392 80.248C130.392 77.144 130.952 74.6 132.072 72.616C133.192 70.6 134.584 68.92 136.248 67.576C137.912 66.232 139.576 65.032 141.24 63.976C142.904 62.888 144.296 61.768 145.416 60.616C146.536 59.432 147.096 58.008 147.096 56.344C147.096 53.88 146.952 51.528 146.664 49.288C146.408 47.048 145.88 45.224 145.08 43.816C144.312 42.408 143.176 41.704 141.672 41.704C140.168 41.704 138.808 42.28 137.592 43.432C136.408 44.584 135.816 45.96 135.816 47.56C135.816 48.328 135.928 49.032 136.152 49.672C136.408 50.28 136.648 50.888 136.872 51.496C137.096 52.104 137.208 52.824 137.208 53.656C137.208 54.84 136.952 55.816 136.44 56.584C135.96 57.352 135.192 57.736 134.136 57.736C133.112 57.736 132.36 57.304 131.88 56.44C131.4 55.576 131.16 54.376 131.16 52.84C131.16 50.664 131.656 48.632 132.648 46.744C133.64 44.856 135.016 43.336 136.776 42.184C138.536 41.032 140.568 40.456 142.872 40.456C145.08 40.456 147.032 41.048 148.728 42.232C150.456 43.384 151.816 45.176 152.808 47.608C153.8 50.04 154.296 53.16 154.296 56.968V86.632C154.296 87.88 154.488 88.776 154.872 89.32C155.256 89.864 155.736 90.136 156.312 90.136C156.696 90.136 157.096 90.04 157.512 89.848C157.96 89.624 158.28 89.416 158.472 89.224L159.096 90.136C158.776 90.456 158.168 90.776 157.272 91.096C156.376 91.448 155.272 91.624 153.96 91.624C152.904 91.624 151.88 91.448 150.888 91.096C149.928 90.744 149.144 90.168 148.536 89.368C147.928 88.568 147.608 87.496 147.576 86.152C147.384 86.888 146.984 87.72 146.376 88.648C145.8 89.544 144.984 90.328 143.928 91C142.904 91.672 141.608 92.008 140.04 92.008ZM142.344 89.8C143.208 89.8 143.992 89.496 144.696 88.888C145.432 88.28 146.008 87.544 146.424 86.68C146.872 85.784 147.096 84.936 147.096 84.136V59.704C147.032 60.6 146.52 61.592 145.56 62.68C144.632 63.768 143.56 65.048 142.344 66.52C141.16 67.96 140.104 69.704 139.176 71.752C138.28 73.768 137.832 76.184 137.832 79C137.832 82.36 138.136 85 138.744 86.92C139.352 88.84 140.552 89.8 142.344 89.8ZM160.498 91V89.944H164.674V41.8H160.498V40.744H171.874V46.696C171.938 46.28 172.226 45.576 172.738 44.584C173.25 43.56 173.97 42.616 174.898 41.752C175.858 40.888 177.01 40.456 178.354 40.456C179.89 40.456 181.186 41.032 182.242 42.184C183.298 43.336 184.098 44.856 184.642 46.744C185.218 48.632 185.506 50.712 185.506 52.984C185.506 54.456 185.25 55.624 184.738 56.488C184.226 57.32 183.49 57.736 182.53 57.736C181.538 57.736 180.786 57.32 180.274 56.488C179.794 55.656 179.554 54.632 179.554 53.416C179.554 52.584 179.682 51.832 179.938 51.16C180.226 50.456 180.498 49.768 180.754 49.096C181.042 48.392 181.186 47.672 181.186 46.936C181.186 45.144 180.85 43.816 180.178 42.952C179.538 42.088 178.738 41.656 177.778 41.656C176.562 41.656 175.506 42.28 174.61 43.528C173.746 44.744 173.074 46.232 172.594 47.992C172.114 49.72 171.874 51.368 171.874 52.936V89.944H176.29V91H160.498ZM199.866 91.864C198.682 91.864 197.514 91.624 196.362 91.144C195.21 90.696 194.266 89.816 193.53 88.504C192.794 87.192 192.426 85.272 192.426 82.744V41.8H187.482V40.744H192.426C193.258 40.712 194.058 40.04 194.826 38.728C195.626 37.416 196.33 35.72 196.938 33.64C197.578 31.528 198.058 29.32 198.378 27.016H199.626V40.744H205.674V41.8H199.626V87.448C199.626 88.6 199.882 89.416 200.394 89.896C200.906 90.344 201.418 90.568 201.93 90.568C202.602 90.568 203.258 90.376 203.898 89.992C204.57 89.576 205.034 89.256 205.29 89.032L205.866 89.752C205.226 90.36 204.394 90.856 203.37 91.24C202.378 91.656 201.21 91.864 199.866 91.864ZM208.923 91V89.944H213.243V41.8H208.923V40.744H220.443V89.944H224.859V91H208.923ZM216.795 31.336C215.387 31.336 214.187 30.856 213.195 29.896C212.235 28.936 211.755 27.752 211.755 26.344C211.755 25 212.235 23.848 213.195 22.888C214.187 21.928 215.387 21.448 216.795 21.448C218.107 21.448 219.227 21.928 220.155 22.888C221.115 23.848 221.595 25 221.595 26.344C221.595 27.752 221.115 28.936 220.155 29.896C219.227 30.856 218.107 31.336 216.795 31.336ZM227.916 91V89.944H232.188V41.8H227.916V40.744H239.388V47.752C239.708 46.696 240.188 45.608 240.828 44.488C241.5 43.336 242.364 42.376 243.42 41.608C244.476 40.84 245.788 40.456 247.356 40.456C248.86 40.456 250.316 40.824 251.724 41.56C253.132 42.264 254.284 43.656 255.18 45.736C256.076 47.816 256.524 50.92 256.524 55.048V89.944H260.604V91H245.676V89.944H249.324V56.008C249.324 51.208 248.972 47.704 248.268 45.496C247.596 43.256 246.492 42.136 244.956 42.136C244.252 42.136 243.564 42.488 242.892 43.192C242.22 43.896 241.628 44.776 241.116 45.832C240.604 46.856 240.188 47.928 239.868 49.048C239.58 50.136 239.42 51.096 239.388 51.928V89.944H243.084V91H227.916ZM277.694 92.056C276.03 92.056 274.414 91.48 272.846 90.328C271.278 89.176 269.87 87.48 268.622 85.24C267.374 83 266.382 80.248 265.646 76.984C264.91 73.72 264.542 69.96 264.542 65.704C264.542 61.064 264.926 57.144 265.694 53.944C266.462 50.712 267.486 48.104 268.766 46.12C270.046 44.136 271.454 42.696 272.99 41.8C274.558 40.904 276.126 40.456 277.694 40.456C279.294 40.456 280.862 40.904 282.398 41.8C283.966 42.696 285.39 44.136 286.67 46.12C287.982 48.104 289.022 50.712 289.79 53.944C290.558 57.144 290.942 61.064 290.942 65.704C290.942 69.96 290.574 73.72 289.838 76.984C289.102 80.248 288.094 83 286.814 85.24C285.566 87.48 284.158 89.176 282.59 90.328C281.022 91.48 279.39 92.056 277.694 92.056ZM277.694 91.096C279.518 91.096 280.926 88.92 281.918 84.568C282.942 80.184 283.454 73.896 283.454 65.704C283.454 57.672 282.942 51.624 281.918 47.56C280.926 43.464 279.518 41.416 277.694 41.416C275.902 41.416 274.494 43.464 273.47 47.56C272.478 51.624 271.982 57.672 271.982 65.704C271.982 73.896 272.478 80.184 273.47 84.568C274.494 88.92 275.902 91.096 277.694 91.096Z" fill="#676668"/>
</svg>
