<svg width="95" height="78" viewBox="0 0 95 78" fill="none" xmlns="http://www.w3.org/2000/svg">
<g clip-path="url(#clip0_128_54)">
<path d="M95 9.49795C91.4426 11.0829 87.6693 12.1232 83.8056 12.5844C87.8301 10.1585 90.9202 6.31712 92.3753 1.74012C88.5495 4.02334 84.3637 5.63201 79.9989 6.49663C76.4435 2.68732 71.3784 0.306641 65.7723 0.306641C55.0083 0.306641 46.2813 9.08295 46.2813 19.9074C46.2813 21.4439 46.4539 22.9397 46.786 24.3747C30.5878 23.557 16.2264 15.7536 6.61326 3.89464C4.93592 6.7896 3.97479 10.157 3.97479 13.7488C3.97479 20.5493 7.41594 26.5486 12.6454 30.0638C9.55028 29.9663 6.52327 29.1256 3.81707 27.6119C3.81596 27.694 3.81596 27.7761 3.81596 27.8586C3.81596 37.3555 10.5342 45.2779 19.4501 47.0787C16.58 47.8637 13.5695 47.9785 10.6485 47.4145C13.1286 55.2018 20.3267 60.8686 28.8551 61.0272C22.1847 66.2842 13.7806 69.418 4.64943 69.418C3.076 69.418 1.52482 69.3251 0 69.1441C8.62533 74.7056 18.8701 77.9506 29.8768 77.9506C65.727 77.9506 85.3308 48.0826 85.3308 22.1806C85.3308 21.3304 85.3122 20.4851 85.2744 19.6447C89.0901 16.8706 92.3835 13.4346 95 9.49795" fill="#55ACEE"/>
</g>
<defs>
<clipPath id="clip0_128_54">
<rect width="95" height="78" fill="white"/>
</clipPath>
</defs>
</svg>
