<svg width="727" height="562" viewBox="0 0 727 562" fill="none" xmlns="http://www.w3.org/2000/svg">
<path d="M3 3C3.82304 31.8065 10.9449 60.4863 20.1545 87.6659C34.6839 130.545 55.435 178.13 92.5356 206.42C100.374 212.396 137.791 237.131 141.011 213.945C141.917 207.421 129.88 182.571 121.643 193.803C111.944 207.029 117.336 236.527 124.299 249.583C134.606 268.907 152.925 285.111 169.344 298.943C197.622 322.767 229.344 342.905 260.65 362.471C306.568 391.169 354.983 415.004 403.752 438.393C458.107 464.461 512.272 491.582 568.325 513.873C618.474 533.817 671.363 547.809 724.155 558.807" stroke="black" stroke-width="5" stroke-linecap="round"/>
</svg>
