<svg width="650" height="391" viewBox="0 0 650 391" fill="none" xmlns="http://www.w3.org/2000/svg">
<g filter="url(#filter0_d_111_57)">
<rect x="4" width="642" height="383" rx="12" fill="url(#paint0_linear_111_57)"/>
<path fill-rule="evenodd" clip-rule="evenodd" d="M564.259 340.187C585.765 340.187 603.2 323.094 603.2 302.01C603.2 280.925 585.765 263.833 564.259 263.833C554.62 263.833 545.8 267.266 539 272.953C532.2 267.266 523.379 263.833 513.741 263.833C492.234 263.833 474.8 280.925 474.8 302.01C474.8 323.095 492.234 340.187 513.741 340.187C523.379 340.187 532.2 336.754 539 331.067C545.8 336.754 554.62 340.187 564.259 340.187Z" fill="#ED0006"/>
<path fill-rule="evenodd" clip-rule="evenodd" d="M539 331.066C547.372 324.064 552.681 313.645 552.681 302.01C552.681 290.375 547.372 279.955 539 272.953C545.8 267.266 554.621 263.832 564.259 263.832C585.766 263.832 603.2 280.925 603.2 302.01C603.2 323.094 585.766 340.187 564.259 340.187C554.621 340.187 545.8 336.753 539 331.066Z" fill="#F9A000"/>
<path fill-rule="evenodd" clip-rule="evenodd" d="M539 331.065C547.373 324.063 552.682 313.643 552.682 302.008C552.682 290.373 547.373 279.954 539 272.952C530.628 279.954 525.319 290.373 525.319 302.008C525.319 313.643 530.628 324.063 539 331.065Z" fill="#FF5E00"/>
<g clip-path="url(#clip0_111_57)">
<path fill-rule="evenodd" clip-rule="evenodd" d="M591.526 43.1045C592.789 42.4018 594.386 42.8501 595.093 44.1058C599.338 51.6491 601.57 60.1998 601.57 68.8995C601.57 77.5991 599.338 86.1499 595.093 93.6931C594.386 94.9489 592.789 95.3972 591.526 94.6945C590.263 93.9918 589.812 92.4042 590.519 91.1485C594.323 84.389 596.329 76.7153 596.329 68.8995C596.329 61.0837 594.323 53.41 590.519 46.6504C589.812 45.3947 590.263 43.8071 591.526 43.1045ZM581.438 48.2792C582.701 47.5765 584.297 48.0248 585.004 49.2805C588.364 55.2505 590.13 62.0165 590.13 68.8995C590.13 75.7824 588.364 82.5485 585.004 88.5184C584.297 89.7742 582.701 90.2225 581.438 89.5198C580.175 88.8171 579.724 87.2295 580.43 85.9738C583.349 80.7876 584.889 74.8986 584.889 68.8995C584.889 62.9004 583.349 57.0113 580.43 51.8251C579.724 50.5694 580.175 48.9818 581.438 48.2792ZM571.818 53.0248C573.084 52.3278 574.679 52.7832 575.38 54.0421C577.867 58.5087 579.173 63.5676 579.173 68.7113C579.173 73.855 577.867 78.9139 575.38 83.3806C574.679 84.6394 573.084 85.0949 571.818 84.3978C570.552 83.7008 570.094 82.1153 570.795 80.8564C572.847 77.1705 573.932 72.9814 573.932 68.7113C573.932 64.4412 572.847 60.2521 570.795 56.5662C570.094 55.3074 570.552 53.7218 571.818 53.0248ZM562.044 58.2377C563.263 57.4617 564.883 57.8149 565.664 59.0267C567.568 61.9827 568.581 65.4036 568.581 68.8995C568.581 72.3954 567.568 75.8162 565.664 78.7723C564.883 79.984 563.263 80.3373 562.044 79.5612C560.825 78.7852 560.47 77.1738 561.251 75.962C562.618 73.8382 563.34 71.3914 563.34 68.8995C563.34 66.4075 562.618 63.9607 561.251 61.8369C560.47 60.6252 560.825 59.0137 562.044 58.2377Z" fill="#475569"/>
</g>
<g filter="url(#filter1_di_111_57)">
<path d="M50.3528 325.885H48.7923C48.4765 325.885 48.249 325.816 48.1097 325.677C47.9796 325.539 47.9146 325.294 47.9146 324.943C47.9146 324.592 47.9796 324.348 48.1097 324.209C48.249 324.07 48.4765 324.001 48.7923 324.001H55.3545C56.4505 324.001 57.4489 324.191 58.3499 324.569C59.2509 324.948 60.0218 325.493 60.6627 326.204C61.3035 326.906 61.8005 327.765 62.1534 328.78C62.5064 329.796 62.6828 330.946 62.6828 332.23C62.6828 333.513 62.5064 334.663 62.1534 335.679C61.8005 336.695 61.3035 337.558 60.6627 338.27C60.0218 338.971 59.2509 339.512 58.3499 339.89C57.4489 340.26 56.4505 340.444 55.3545 340.444H48.7923C48.4765 340.444 48.249 340.375 48.1097 340.237C47.9796 340.098 47.9146 339.853 47.9146 339.502C47.9146 339.151 47.9796 338.907 48.1097 338.768C48.249 338.63 48.4765 338.56 48.7923 338.56H50.3528V325.885ZM55.034 338.56C55.8607 338.56 56.6084 338.427 57.2771 338.159C57.9459 337.882 58.5171 337.48 58.9908 336.954C59.4645 336.418 59.8314 335.758 60.0914 334.973C60.3515 334.178 60.4815 333.264 60.4815 332.23C60.4815 331.195 60.3515 330.286 60.0914 329.501C59.8314 328.707 59.4645 328.042 58.9908 327.506C58.5171 326.97 57.9459 326.569 57.2771 326.301C56.6084 326.024 55.8607 325.885 55.034 325.885H52.4426V338.56H55.034Z" fill="white"/>
<path d="M50.3528 325.885H48.7923C48.4765 325.885 48.249 325.816 48.1097 325.677C47.9796 325.539 47.9146 325.294 47.9146 324.943C47.9146 324.592 47.9796 324.348 48.1097 324.209C48.249 324.07 48.4765 324.001 48.7923 324.001H55.3545C56.4505 324.001 57.4489 324.191 58.3499 324.569C59.2509 324.948 60.0218 325.493 60.6627 326.204C61.3035 326.906 61.8005 327.765 62.1534 328.78C62.5064 329.796 62.6828 330.946 62.6828 332.23C62.6828 333.513 62.5064 334.663 62.1534 335.679C61.8005 336.695 61.3035 337.558 60.6627 338.27C60.0218 338.971 59.2509 339.512 58.3499 339.89C57.4489 340.26 56.4505 340.444 55.3545 340.444H48.7923C48.4765 340.444 48.249 340.375 48.1097 340.237C47.9796 340.098 47.9146 339.853 47.9146 339.502C47.9146 339.151 47.9796 338.907 48.1097 338.768C48.249 338.63 48.4765 338.56 48.7923 338.56H50.3528V325.885ZM55.034 338.56C55.8607 338.56 56.6084 338.427 57.2771 338.159C57.9459 337.882 58.5171 337.48 58.9908 336.954C59.4645 336.418 59.8314 335.758 60.0914 334.973C60.3515 334.178 60.4815 333.264 60.4815 332.23C60.4815 331.195 60.3515 330.286 60.0914 329.501C59.8314 328.707 59.4645 328.042 58.9908 327.506C58.5171 326.97 57.9459 326.569 57.2771 326.301C56.6084 326.024 55.8607 325.885 55.034 325.885H52.4426V338.56H55.034Z" fill="url(#paint1_linear_111_57)"/>
<path d="M66.8469 332.23C66.8469 330.946 67.0234 329.782 67.3763 328.739C67.7293 327.686 68.2262 326.786 68.8671 326.038C69.508 325.29 70.2789 324.712 71.1799 324.306C72.0808 323.9 73.0793 323.696 74.1753 323.696C75.2713 323.696 76.2698 323.9 77.1707 324.306C78.0717 324.712 78.8426 325.29 79.4835 326.038C80.1244 326.786 80.6213 327.686 80.9743 328.739C81.3272 329.782 81.5037 330.946 81.5037 332.23C81.5037 333.513 81.3272 334.682 80.9743 335.734C80.6213 336.778 80.1244 337.674 79.4835 338.422C78.8426 339.161 78.0717 339.733 77.1707 340.14C76.2698 340.546 75.2713 340.749 74.1753 340.749C73.0793 340.749 72.0808 340.546 71.1799 340.14C70.2789 339.733 69.508 339.161 68.8671 338.422C68.2262 337.674 67.7293 336.778 67.3763 335.734C67.0234 334.682 66.8469 333.513 66.8469 332.23ZM69.0482 332.23C69.0482 333.227 69.169 334.128 69.4105 334.931C69.6612 335.725 70.0096 336.404 70.4554 336.967C70.9012 337.521 71.4399 337.951 72.0715 338.256C72.7031 338.551 73.4044 338.699 74.1753 338.699C74.9462 338.699 75.6475 338.551 76.2791 338.256C76.9107 337.951 77.4494 337.521 77.8952 336.967C78.3411 336.404 78.6847 335.725 78.9262 334.931C79.177 334.128 79.3024 333.227 79.3024 332.23C79.3024 331.232 79.177 330.337 78.9262 329.542C78.6847 328.739 78.3411 328.055 77.8952 327.492C77.4494 326.929 76.9107 326.499 76.2791 326.204C75.6475 325.899 74.9462 325.747 74.1753 325.747C73.4044 325.747 72.7031 325.899 72.0715 326.204C71.4399 326.499 70.9012 326.929 70.4554 327.492C70.0096 328.055 69.6612 328.739 69.4105 329.542C69.169 330.337 69.0482 331.232 69.0482 332.23Z" fill="white"/>
<path d="M66.8469 332.23C66.8469 330.946 67.0234 329.782 67.3763 328.739C67.7293 327.686 68.2262 326.786 68.8671 326.038C69.508 325.29 70.2789 324.712 71.1799 324.306C72.0808 323.9 73.0793 323.696 74.1753 323.696C75.2713 323.696 76.2698 323.9 77.1707 324.306C78.0717 324.712 78.8426 325.29 79.4835 326.038C80.1244 326.786 80.6213 327.686 80.9743 328.739C81.3272 329.782 81.5037 330.946 81.5037 332.23C81.5037 333.513 81.3272 334.682 80.9743 335.734C80.6213 336.778 80.1244 337.674 79.4835 338.422C78.8426 339.161 78.0717 339.733 77.1707 340.14C76.2698 340.546 75.2713 340.749 74.1753 340.749C73.0793 340.749 72.0808 340.546 71.1799 340.14C70.2789 339.733 69.508 339.161 68.8671 338.422C68.2262 337.674 67.7293 336.778 67.3763 335.734C67.0234 334.682 66.8469 333.513 66.8469 332.23ZM69.0482 332.23C69.0482 333.227 69.169 334.128 69.4105 334.931C69.6612 335.725 70.0096 336.404 70.4554 336.967C70.9012 337.521 71.4399 337.951 72.0715 338.256C72.7031 338.551 73.4044 338.699 74.1753 338.699C74.9462 338.699 75.6475 338.551 76.2791 338.256C76.9107 337.951 77.4494 337.521 77.8952 336.967C78.3411 336.404 78.6847 335.725 78.9262 334.931C79.177 334.128 79.3024 333.227 79.3024 332.23C79.3024 331.232 79.177 330.337 78.9262 329.542C78.6847 328.739 78.3411 328.055 77.8952 327.492C77.4494 326.929 76.9107 326.499 76.2791 326.204C75.6475 325.899 74.9462 325.747 74.1753 325.747C73.4044 325.747 72.7031 325.899 72.0715 326.204C71.4399 326.499 70.9012 326.929 70.4554 327.492C70.0096 328.055 69.6612 328.739 69.4105 329.542C69.169 330.337 69.0482 331.232 69.0482 332.23Z" fill="url(#paint2_linear_111_57)"/>
<path d="M87.3675 325.885H86.2947C85.9789 325.885 85.7514 325.816 85.612 325.677C85.482 325.539 85.417 325.294 85.417 324.943C85.417 324.592 85.482 324.348 85.612 324.209C85.7514 324.07 85.9789 324.001 86.2947 324.001H89.4156C89.7964 324.001 90.0611 324.131 90.2097 324.389L96.8136 336.136V325.885H95.1835C94.8677 325.885 94.6402 325.816 94.5008 325.677C94.3708 325.539 94.3058 325.294 94.3058 324.943C94.3058 324.592 94.3708 324.348 94.5008 324.209C94.6402 324.07 94.8677 324.001 95.1835 324.001H99.6976C100.013 324.001 100.236 324.07 100.366 324.209C100.506 324.348 100.575 324.592 100.575 324.943C100.575 325.294 100.506 325.539 100.366 325.677C100.236 325.816 100.013 325.885 99.6976 325.885H98.9035V339.932C98.9035 340.172 98.8199 340.366 98.6527 340.514C98.4855 340.671 98.2208 340.749 97.8585 340.749C97.5892 340.749 97.3616 340.68 97.1758 340.541C96.9901 340.412 96.8275 340.227 96.6882 339.987L89.4574 327.146V338.56H91.3661C91.6819 338.56 91.9048 338.63 92.0348 338.768C92.1742 338.907 92.2438 339.151 92.2438 339.502C92.2438 339.853 92.1742 340.098 92.0348 340.237C91.9048 340.375 91.6819 340.444 91.3661 340.444H86.4341C86.1183 340.444 85.8907 340.375 85.7514 340.237C85.6213 340.098 85.5563 339.853 85.5563 339.502C85.5563 339.151 85.6213 338.907 85.7514 338.768C85.8907 338.63 86.1183 338.56 86.4341 338.56H87.3675V325.885Z" fill="white"/>
<path d="M87.3675 325.885H86.2947C85.9789 325.885 85.7514 325.816 85.612 325.677C85.482 325.539 85.417 325.294 85.417 324.943C85.417 324.592 85.482 324.348 85.612 324.209C85.7514 324.07 85.9789 324.001 86.2947 324.001H89.4156C89.7964 324.001 90.0611 324.131 90.2097 324.389L96.8136 336.136V325.885H95.1835C94.8677 325.885 94.6402 325.816 94.5008 325.677C94.3708 325.539 94.3058 325.294 94.3058 324.943C94.3058 324.592 94.3708 324.348 94.5008 324.209C94.6402 324.07 94.8677 324.001 95.1835 324.001H99.6976C100.013 324.001 100.236 324.07 100.366 324.209C100.506 324.348 100.575 324.592 100.575 324.943C100.575 325.294 100.506 325.539 100.366 325.677C100.236 325.816 100.013 325.885 99.6976 325.885H98.9035V339.932C98.9035 340.172 98.8199 340.366 98.6527 340.514C98.4855 340.671 98.2208 340.749 97.8585 340.749C97.5892 340.749 97.3616 340.68 97.1758 340.541C96.9901 340.412 96.8275 340.227 96.6882 339.987L89.4574 327.146V338.56H91.3661C91.6819 338.56 91.9048 338.63 92.0348 338.768C92.1742 338.907 92.2438 339.151 92.2438 339.502C92.2438 339.853 92.1742 340.098 92.0348 340.237C91.9048 340.375 91.6819 340.444 91.3661 340.444H86.4341C86.1183 340.444 85.8907 340.375 85.7514 340.237C85.6213 340.098 85.5563 339.853 85.5563 339.502C85.5563 339.151 85.6213 338.907 85.7514 338.768C85.8907 338.63 86.1183 338.56 86.4341 338.56H87.3675V325.885Z" fill="url(#paint3_linear_111_57)"/>
<path d="M108.933 338.56C109.249 338.56 109.472 338.63 109.602 338.768C109.741 338.907 109.811 339.151 109.811 339.502C109.811 339.853 109.741 340.098 109.602 340.237C109.472 340.375 109.249 340.444 108.933 340.444H104.28C103.964 340.444 103.736 340.375 103.597 340.237C103.467 340.098 103.402 339.853 103.402 339.502C103.402 339.151 103.467 338.907 103.597 338.768C103.736 338.63 103.964 338.56 104.28 338.56H105.06L109.671 325.885H107.066C106.75 325.885 106.523 325.816 106.383 325.677C106.253 325.539 106.188 325.294 106.188 324.943C106.188 324.592 106.253 324.348 106.383 324.209C106.523 324.07 106.75 324.001 107.066 324.001H112.179C112.551 324.001 112.848 324.07 113.071 324.209C113.303 324.348 113.475 324.578 113.586 324.902L118.505 338.56H119.354C119.67 338.56 119.893 338.63 120.023 338.768C120.162 338.907 120.232 339.151 120.232 339.502C120.232 339.853 120.162 340.098 120.023 340.237C119.893 340.375 119.67 340.444 119.354 340.444H114.422C114.107 340.444 113.879 340.375 113.74 340.237C113.61 340.098 113.545 339.853 113.545 339.502C113.545 339.151 113.61 338.907 113.74 338.768C113.879 338.63 114.107 338.56 114.422 338.56H116.303L115.161 335.263H108.404L107.247 338.56H108.933ZM109.058 333.38H114.52L111.928 325.885H111.664L109.058 333.38Z" fill="white"/>
<path d="M108.933 338.56C109.249 338.56 109.472 338.63 109.602 338.768C109.741 338.907 109.811 339.151 109.811 339.502C109.811 339.853 109.741 340.098 109.602 340.237C109.472 340.375 109.249 340.444 108.933 340.444H104.28C103.964 340.444 103.736 340.375 103.597 340.237C103.467 340.098 103.402 339.853 103.402 339.502C103.402 339.151 103.467 338.907 103.597 338.768C103.736 338.63 103.964 338.56 104.28 338.56H105.06L109.671 325.885H107.066C106.75 325.885 106.523 325.816 106.383 325.677C106.253 325.539 106.188 325.294 106.188 324.943C106.188 324.592 106.253 324.348 106.383 324.209C106.523 324.07 106.75 324.001 107.066 324.001H112.179C112.551 324.001 112.848 324.07 113.071 324.209C113.303 324.348 113.475 324.578 113.586 324.902L118.505 338.56H119.354C119.67 338.56 119.893 338.63 120.023 338.768C120.162 338.907 120.232 339.151 120.232 339.502C120.232 339.853 120.162 340.098 120.023 340.237C119.893 340.375 119.67 340.444 119.354 340.444H114.422C114.107 340.444 113.879 340.375 113.74 340.237C113.61 340.098 113.545 339.853 113.545 339.502C113.545 339.151 113.61 338.907 113.74 338.768C113.879 338.63 114.107 338.56 114.422 338.56H116.303L115.161 335.263H108.404L107.247 338.56H108.933ZM109.058 333.38H114.52L111.928 325.885H111.664L109.058 333.38Z" fill="url(#paint4_linear_111_57)"/>
<path d="M126.333 325.885H124.076C123.76 325.885 123.532 325.816 123.393 325.677C123.263 325.539 123.198 325.294 123.198 324.943C123.198 324.592 123.263 324.348 123.393 324.209C123.532 324.07 123.76 324.001 124.076 324.001H131.794C132.11 324.001 132.333 324.07 132.463 324.209C132.602 324.348 132.672 324.592 132.672 324.943C132.672 325.294 132.602 325.539 132.463 325.677C132.333 325.816 132.11 325.885 131.794 325.885H128.423V338.56H135.319V334.003C135.319 333.68 135.393 333.449 135.542 333.31C135.7 333.172 135.974 333.102 136.364 333.102C136.754 333.102 137.023 333.172 137.172 333.31C137.33 333.449 137.409 333.68 137.409 334.003V339.502C137.409 339.853 137.339 340.098 137.2 340.237C137.07 340.375 136.847 340.444 136.531 340.444H124.076C123.76 340.444 123.532 340.375 123.393 340.237C123.263 340.098 123.198 339.853 123.198 339.502C123.198 339.151 123.263 338.907 123.393 338.768C123.532 338.63 123.76 338.56 124.076 338.56H126.333V325.885Z" fill="white"/>
<path d="M126.333 325.885H124.076C123.76 325.885 123.532 325.816 123.393 325.677C123.263 325.539 123.198 325.294 123.198 324.943C123.198 324.592 123.263 324.348 123.393 324.209C123.532 324.07 123.76 324.001 124.076 324.001H131.794C132.11 324.001 132.333 324.07 132.463 324.209C132.602 324.348 132.672 324.592 132.672 324.943C132.672 325.294 132.602 325.539 132.463 325.677C132.333 325.816 132.11 325.885 131.794 325.885H128.423V338.56H135.319V334.003C135.319 333.68 135.393 333.449 135.542 333.31C135.7 333.172 135.974 333.102 136.364 333.102C136.754 333.102 137.023 333.172 137.172 333.31C137.33 333.449 137.409 333.68 137.409 334.003V339.502C137.409 339.853 137.339 340.098 137.2 340.237C137.07 340.375 136.847 340.444 136.531 340.444H124.076C123.76 340.444 123.532 340.375 123.393 340.237C123.263 340.098 123.198 339.853 123.198 339.502C123.198 339.151 123.263 338.907 123.393 338.768C123.532 338.63 123.76 338.56 124.076 338.56H126.333V325.885Z" fill="url(#paint5_linear_111_57)"/>
<path d="M144.457 325.885H142.897C142.581 325.885 142.353 325.816 142.214 325.677C142.084 325.539 142.019 325.294 142.019 324.943C142.019 324.592 142.084 324.348 142.214 324.209C142.353 324.07 142.581 324.001 142.897 324.001H149.459C150.555 324.001 151.553 324.191 152.454 324.569C153.355 324.948 154.126 325.493 154.767 326.204C155.408 326.906 155.905 327.765 156.258 328.78C156.611 329.796 156.787 330.946 156.787 332.23C156.787 333.513 156.611 334.663 156.258 335.679C155.905 336.695 155.408 337.558 154.767 338.27C154.126 338.971 153.355 339.512 152.454 339.89C151.553 340.26 150.555 340.444 149.459 340.444H142.897C142.581 340.444 142.353 340.375 142.214 340.237C142.084 340.098 142.019 339.853 142.019 339.502C142.019 339.151 142.084 338.907 142.214 338.768C142.353 338.63 142.581 338.56 142.897 338.56H144.457V325.885ZM149.138 338.56C149.965 338.56 150.713 338.427 151.381 338.159C152.05 337.882 152.621 337.48 153.095 336.954C153.569 336.418 153.936 335.758 154.196 334.973C154.456 334.178 154.586 333.264 154.586 332.23C154.586 331.195 154.456 330.286 154.196 329.501C153.936 328.707 153.569 328.042 153.095 327.506C152.621 326.97 152.05 326.569 151.381 326.301C150.713 326.024 149.965 325.885 149.138 325.885H146.547V338.56H149.138Z" fill="white"/>
<path d="M144.457 325.885H142.897C142.581 325.885 142.353 325.816 142.214 325.677C142.084 325.539 142.019 325.294 142.019 324.943C142.019 324.592 142.084 324.348 142.214 324.209C142.353 324.07 142.581 324.001 142.897 324.001H149.459C150.555 324.001 151.553 324.191 152.454 324.569C153.355 324.948 154.126 325.493 154.767 326.204C155.408 326.906 155.905 327.765 156.258 328.78C156.611 329.796 156.787 330.946 156.787 332.23C156.787 333.513 156.611 334.663 156.258 335.679C155.905 336.695 155.408 337.558 154.767 338.27C154.126 338.971 153.355 339.512 152.454 339.89C151.553 340.26 150.555 340.444 149.459 340.444H142.897C142.581 340.444 142.353 340.375 142.214 340.237C142.084 340.098 142.019 339.853 142.019 339.502C142.019 339.151 142.084 338.907 142.214 338.768C142.353 338.63 142.581 338.56 142.897 338.56H144.457V325.885ZM149.138 338.56C149.965 338.56 150.713 338.427 151.381 338.159C152.05 337.882 152.621 337.48 153.095 336.954C153.569 336.418 153.936 335.758 154.196 334.973C154.456 334.178 154.586 333.264 154.586 332.23C154.586 331.195 154.456 330.286 154.196 329.501C153.936 328.707 153.569 328.042 153.095 327.506C152.621 326.97 152.05 326.569 151.381 326.301C150.713 326.024 149.965 325.885 149.138 325.885H146.547V338.56H149.138Z" fill="url(#paint6_linear_111_57)"/>
<path d="M182.377 325.885H180.538C180.223 325.885 179.995 325.816 179.856 325.677C179.726 325.539 179.661 325.294 179.661 324.943C179.661 324.592 179.726 324.348 179.856 324.209C179.995 324.07 180.223 324.001 180.538 324.001H193.133C193.449 324.001 193.672 324.07 193.802 324.209C193.941 324.348 194.011 324.592 194.011 324.943V328.6C194.011 328.924 193.932 329.154 193.774 329.293C193.625 329.431 193.356 329.501 192.966 329.501C192.576 329.501 192.302 329.431 192.144 329.293C191.995 329.154 191.921 328.924 191.921 328.6V325.885H184.467V331.302H187.95V330.041C187.95 329.718 188.025 329.487 188.173 329.348C188.331 329.21 188.605 329.141 188.995 329.141C189.385 329.141 189.655 329.21 189.803 329.348C189.961 329.487 190.04 329.718 190.04 330.041V334.446C190.04 334.769 189.961 335 189.803 335.139C189.655 335.277 189.385 335.347 188.995 335.347C188.605 335.347 188.331 335.277 188.173 335.139C188.025 335 187.95 334.769 187.95 334.446V333.186H184.467V338.56H187.7C188.015 338.56 188.238 338.63 188.368 338.768C188.508 338.907 188.577 339.151 188.577 339.502C188.577 339.853 188.508 340.098 188.368 340.237C188.238 340.375 188.015 340.444 187.7 340.444H180.538C180.223 340.444 179.995 340.375 179.856 340.237C179.726 340.098 179.661 339.853 179.661 339.502C179.661 339.151 179.726 338.907 179.856 338.768C179.995 338.63 180.223 338.56 180.538 338.56H182.377V325.885Z" fill="white"/>
<path d="M182.377 325.885H180.538C180.223 325.885 179.995 325.816 179.856 325.677C179.726 325.539 179.661 325.294 179.661 324.943C179.661 324.592 179.726 324.348 179.856 324.209C179.995 324.07 180.223 324.001 180.538 324.001H193.133C193.449 324.001 193.672 324.07 193.802 324.209C193.941 324.348 194.011 324.592 194.011 324.943V328.6C194.011 328.924 193.932 329.154 193.774 329.293C193.625 329.431 193.356 329.501 192.966 329.501C192.576 329.501 192.302 329.431 192.144 329.293C191.995 329.154 191.921 328.924 191.921 328.6V325.885H184.467V331.302H187.95V330.041C187.95 329.718 188.025 329.487 188.173 329.348C188.331 329.21 188.605 329.141 188.995 329.141C189.385 329.141 189.655 329.21 189.803 329.348C189.961 329.487 190.04 329.718 190.04 330.041V334.446C190.04 334.769 189.961 335 189.803 335.139C189.655 335.277 189.385 335.347 188.995 335.347C188.605 335.347 188.331 335.277 188.173 335.139C188.025 335 187.95 334.769 187.95 334.446V333.186H184.467V338.56H187.7C188.015 338.56 188.238 338.63 188.368 338.768C188.508 338.907 188.577 339.151 188.577 339.502C188.577 339.853 188.508 340.098 188.368 340.237C188.238 340.375 188.015 340.444 187.7 340.444H180.538C180.223 340.444 179.995 340.375 179.856 340.237C179.726 340.098 179.661 339.853 179.661 339.502C179.661 339.151 179.726 338.907 179.856 338.768C179.995 338.63 180.223 338.56 180.538 338.56H182.377V325.885Z" fill="url(#paint7_linear_111_57)"/>
<path d="M201.616 325.885H199.359C199.043 325.885 198.816 325.816 198.676 325.677C198.546 325.539 198.481 325.294 198.481 324.943C198.481 324.592 198.546 324.348 198.676 324.209C198.816 324.07 199.043 324.001 199.359 324.001H207.078C207.393 324.001 207.616 324.07 207.746 324.209C207.886 324.348 207.955 324.592 207.955 324.943C207.955 325.294 207.886 325.539 207.746 325.677C207.616 325.816 207.393 325.885 207.078 325.885H203.706V338.56H210.603V334.003C210.603 333.68 210.677 333.449 210.825 333.31C210.983 333.172 211.257 333.102 211.647 333.102C212.038 333.102 212.307 333.172 212.456 333.31C212.613 333.449 212.692 333.68 212.692 334.003V339.502C212.692 339.853 212.623 340.098 212.483 340.237C212.353 340.375 212.13 340.444 211.815 340.444H199.359C199.043 340.444 198.816 340.375 198.676 340.237C198.546 340.098 198.481 339.853 198.481 339.502C198.481 339.151 198.546 338.907 198.676 338.768C198.816 338.63 199.043 338.56 199.359 338.56H201.616V325.885Z" fill="white"/>
<path d="M201.616 325.885H199.359C199.043 325.885 198.816 325.816 198.676 325.677C198.546 325.539 198.481 325.294 198.481 324.943C198.481 324.592 198.546 324.348 198.676 324.209C198.816 324.07 199.043 324.001 199.359 324.001H207.078C207.393 324.001 207.616 324.07 207.746 324.209C207.886 324.348 207.955 324.592 207.955 324.943C207.955 325.294 207.886 325.539 207.746 325.677C207.616 325.816 207.393 325.885 207.078 325.885H203.706V338.56H210.603V334.003C210.603 333.68 210.677 333.449 210.825 333.31C210.983 333.172 211.257 333.102 211.647 333.102C212.038 333.102 212.307 333.172 212.456 333.31C212.613 333.449 212.692 333.68 212.692 334.003V339.502C212.692 339.853 212.623 340.098 212.483 340.237C212.353 340.375 212.13 340.444 211.815 340.444H199.359C199.043 340.444 198.816 340.375 198.676 340.237C198.546 340.098 198.481 339.853 198.481 339.502C198.481 339.151 198.546 338.907 198.676 338.768C198.816 338.63 199.043 338.56 199.359 338.56H201.616V325.885Z" fill="url(#paint8_linear_111_57)"/>
<path d="M223.697 325.885H220.131C219.815 325.885 219.587 325.816 219.448 325.677C219.318 325.539 219.253 325.294 219.253 324.943C219.253 324.592 219.318 324.348 219.448 324.209C219.587 324.07 219.815 324.001 220.131 324.001H229.354C229.67 324.001 229.892 324.07 230.022 324.209C230.162 324.348 230.231 324.592 230.231 324.943C230.231 325.294 230.162 325.539 230.022 325.677C229.892 325.816 229.67 325.885 229.354 325.885H225.787V338.56H229.632C229.948 338.56 230.171 338.63 230.301 338.768C230.44 338.907 230.51 339.151 230.51 339.502C230.51 339.853 230.44 340.098 230.301 340.237C230.171 340.375 229.948 340.444 229.632 340.444H219.852C219.536 340.444 219.309 340.375 219.169 340.237C219.039 340.098 218.974 339.853 218.974 339.502C218.974 339.151 219.039 338.907 219.169 338.768C219.309 338.63 219.536 338.56 219.852 338.56H223.697V325.885Z" fill="white"/>
<path d="M223.697 325.885H220.131C219.815 325.885 219.587 325.816 219.448 325.677C219.318 325.539 219.253 325.294 219.253 324.943C219.253 324.592 219.318 324.348 219.448 324.209C219.587 324.07 219.815 324.001 220.131 324.001H229.354C229.67 324.001 229.892 324.07 230.022 324.209C230.162 324.348 230.231 324.592 230.231 324.943C230.231 325.294 230.162 325.539 230.022 325.677C229.892 325.816 229.67 325.885 229.354 325.885H225.787V338.56H229.632C229.948 338.56 230.171 338.63 230.301 338.768C230.44 338.907 230.51 339.151 230.51 339.502C230.51 339.853 230.44 340.098 230.301 340.237C230.171 340.375 229.948 340.444 229.632 340.444H219.852C219.536 340.444 219.309 340.375 219.169 340.237C219.039 340.098 218.974 339.853 218.974 339.502C218.974 339.151 219.039 338.907 219.169 338.768C219.309 338.63 219.536 338.56 219.852 338.56H223.697V325.885Z" fill="url(#paint9_linear_111_57)"/>
<path d="M237.934 325.885H236.862C236.546 325.885 236.318 325.816 236.179 325.677C236.049 325.539 235.984 325.294 235.984 324.943C235.984 324.592 236.049 324.348 236.179 324.209C236.318 324.07 236.546 324.001 236.862 324.001H239.982C240.363 324.001 240.628 324.131 240.777 324.389L247.38 336.136V325.885H245.75C245.435 325.885 245.207 325.816 245.068 325.677C244.938 325.539 244.873 325.294 244.873 324.943C244.873 324.592 244.938 324.348 245.068 324.209C245.207 324.07 245.435 324.001 245.75 324.001H250.264C250.58 324.001 250.803 324.07 250.933 324.209C251.072 324.348 251.142 324.592 251.142 324.943C251.142 325.294 251.072 325.539 250.933 325.677C250.803 325.816 250.58 325.885 250.264 325.885H249.47V339.932C249.47 340.172 249.387 340.366 249.219 340.514C249.052 340.671 248.788 340.749 248.425 340.749C248.156 340.749 247.928 340.68 247.743 340.541C247.557 340.412 247.394 340.227 247.255 339.987L240.024 327.146V338.56H241.933C242.249 338.56 242.472 338.63 242.602 338.768C242.741 338.907 242.811 339.151 242.811 339.502C242.811 339.853 242.741 340.098 242.602 340.237C242.472 340.375 242.249 340.444 241.933 340.444H237.001C236.685 340.444 236.458 340.375 236.318 340.237C236.188 340.098 236.123 339.853 236.123 339.502C236.123 339.151 236.188 338.907 236.318 338.768C236.458 338.63 236.685 338.56 237.001 338.56H237.934V325.885Z" fill="white"/>
<path d="M237.934 325.885H236.862C236.546 325.885 236.318 325.816 236.179 325.677C236.049 325.539 235.984 325.294 235.984 324.943C235.984 324.592 236.049 324.348 236.179 324.209C236.318 324.07 236.546 324.001 236.862 324.001H239.982C240.363 324.001 240.628 324.131 240.777 324.389L247.38 336.136V325.885H245.75C245.435 325.885 245.207 325.816 245.068 325.677C244.938 325.539 244.873 325.294 244.873 324.943C244.873 324.592 244.938 324.348 245.068 324.209C245.207 324.07 245.435 324.001 245.75 324.001H250.264C250.58 324.001 250.803 324.07 250.933 324.209C251.072 324.348 251.142 324.592 251.142 324.943C251.142 325.294 251.072 325.539 250.933 325.677C250.803 325.816 250.58 325.885 250.264 325.885H249.47V339.932C249.47 340.172 249.387 340.366 249.219 340.514C249.052 340.671 248.788 340.749 248.425 340.749C248.156 340.749 247.928 340.68 247.743 340.541C247.557 340.412 247.394 340.227 247.255 339.987L240.024 327.146V338.56H241.933C242.249 338.56 242.472 338.63 242.602 338.768C242.741 338.907 242.811 339.151 242.811 339.502C242.811 339.853 242.741 340.098 242.602 340.237C242.472 340.375 242.249 340.444 241.933 340.444H237.001C236.685 340.444 236.458 340.375 236.318 340.237C236.188 340.098 236.123 339.853 236.123 339.502C236.123 339.151 236.188 338.907 236.318 338.768C236.458 338.63 236.685 338.56 237.001 338.56H237.934V325.885Z" fill="url(#paint10_linear_111_57)"/>
<path d="M268.625 338.934C267.743 339.544 266.796 340.001 265.783 340.306C264.771 340.601 263.731 340.749 262.662 340.749C261.566 340.749 260.573 340.546 259.681 340.14C258.799 339.733 258.046 339.161 257.424 338.422C256.802 337.674 256.319 336.778 255.975 335.734C255.641 334.682 255.473 333.513 255.473 332.23C255.473 330.946 255.645 329.782 255.989 328.739C256.342 327.686 256.834 326.786 257.466 326.038C258.107 325.29 258.868 324.712 259.751 324.306C260.633 323.9 261.604 323.696 262.662 323.696C263.563 323.696 264.348 323.849 265.017 324.154C265.686 324.449 266.248 324.865 266.703 325.4V324.597C266.703 324.274 266.777 324.043 266.926 323.904C267.084 323.766 267.358 323.696 267.748 323.696C268.138 323.696 268.407 323.766 268.556 323.904C268.714 324.043 268.793 324.274 268.793 324.597V329.168C268.793 329.492 268.714 329.722 268.556 329.861C268.407 329.999 268.138 330.069 267.748 330.069C267.358 330.069 267.084 329.999 266.926 329.861C266.777 329.722 266.703 329.492 266.703 329.168C266.703 328.716 266.624 328.282 266.466 327.866C266.317 327.451 266.081 327.086 265.755 326.772C265.44 326.458 265.036 326.208 264.543 326.024C264.051 325.839 263.471 325.747 262.802 325.747C262.049 325.747 261.357 325.899 260.726 326.204C260.094 326.499 259.551 326.929 259.096 327.492C258.65 328.055 258.302 328.739 258.051 329.542C257.8 330.337 257.675 331.232 257.675 332.23C257.675 333.227 257.791 334.128 258.023 334.931C258.265 335.725 258.599 336.404 259.026 336.967C259.463 337.521 259.987 337.951 260.6 338.256C261.223 338.551 261.91 338.699 262.662 338.699C263.591 338.699 264.469 338.57 265.296 338.311C266.132 338.043 266.884 337.651 267.553 337.134C267.738 336.986 267.943 336.921 268.166 336.94C268.389 336.958 268.602 337.138 268.807 337.48C269.002 337.803 269.081 338.085 269.043 338.325C269.006 338.556 268.867 338.759 268.625 338.934Z" fill="white"/>
<path d="M268.625 338.934C267.743 339.544 266.796 340.001 265.783 340.306C264.771 340.601 263.731 340.749 262.662 340.749C261.566 340.749 260.573 340.546 259.681 340.14C258.799 339.733 258.046 339.161 257.424 338.422C256.802 337.674 256.319 336.778 255.975 335.734C255.641 334.682 255.473 333.513 255.473 332.23C255.473 330.946 255.645 329.782 255.989 328.739C256.342 327.686 256.834 326.786 257.466 326.038C258.107 325.29 258.868 324.712 259.751 324.306C260.633 323.9 261.604 323.696 262.662 323.696C263.563 323.696 264.348 323.849 265.017 324.154C265.686 324.449 266.248 324.865 266.703 325.4V324.597C266.703 324.274 266.777 324.043 266.926 323.904C267.084 323.766 267.358 323.696 267.748 323.696C268.138 323.696 268.407 323.766 268.556 323.904C268.714 324.043 268.793 324.274 268.793 324.597V329.168C268.793 329.492 268.714 329.722 268.556 329.861C268.407 329.999 268.138 330.069 267.748 330.069C267.358 330.069 267.084 329.999 266.926 329.861C266.777 329.722 266.703 329.492 266.703 329.168C266.703 328.716 266.624 328.282 266.466 327.866C266.317 327.451 266.081 327.086 265.755 326.772C265.44 326.458 265.036 326.208 264.543 326.024C264.051 325.839 263.471 325.747 262.802 325.747C262.049 325.747 261.357 325.899 260.726 326.204C260.094 326.499 259.551 326.929 259.096 327.492C258.65 328.055 258.302 328.739 258.051 329.542C257.8 330.337 257.675 331.232 257.675 332.23C257.675 333.227 257.791 334.128 258.023 334.931C258.265 335.725 258.599 336.404 259.026 336.967C259.463 337.521 259.987 337.951 260.6 338.256C261.223 338.551 261.91 338.699 262.662 338.699C263.591 338.699 264.469 338.57 265.296 338.311C266.132 338.043 266.884 337.651 267.553 337.134C267.738 336.986 267.943 336.921 268.166 336.94C268.389 336.958 268.602 337.138 268.807 337.48C269.002 337.803 269.081 338.085 269.043 338.325C269.006 338.556 268.867 338.759 268.625 338.934Z" fill="url(#paint11_linear_111_57)"/>
<path d="M275.646 325.885H274.643C274.327 325.885 274.099 325.816 273.96 325.677C273.83 325.539 273.765 325.294 273.765 324.943C273.765 324.592 273.83 324.348 273.96 324.209C274.099 324.07 274.327 324.001 274.643 324.001H279.017C279.333 324.001 279.556 324.07 279.686 324.209C279.825 324.348 279.895 324.592 279.895 324.943C279.895 325.294 279.825 325.539 279.686 325.677C279.556 325.816 279.333 325.885 279.017 325.885H277.736V331.025H284.674V325.885H283.392C283.076 325.885 282.849 325.816 282.709 325.677C282.579 325.539 282.514 325.294 282.514 324.943C282.514 324.592 282.579 324.348 282.709 324.209C282.849 324.07 283.076 324.001 283.392 324.001H287.767C288.083 324.001 288.306 324.07 288.436 324.209C288.575 324.348 288.645 324.592 288.645 324.943C288.645 325.294 288.575 325.539 288.436 325.677C288.306 325.816 288.083 325.885 287.767 325.885H286.764V338.56H287.767C288.083 338.56 288.306 338.63 288.436 338.768C288.575 338.907 288.645 339.151 288.645 339.502C288.645 339.853 288.575 340.098 288.436 340.237C288.306 340.375 288.083 340.444 287.767 340.444H283.392C283.076 340.444 282.849 340.375 282.709 340.237C282.579 340.098 282.514 339.853 282.514 339.502C282.514 339.151 282.579 338.907 282.709 338.768C282.849 338.63 283.076 338.56 283.392 338.56H284.674V332.909H277.736V338.56H279.017C279.333 338.56 279.556 338.63 279.686 338.768C279.825 338.907 279.895 339.151 279.895 339.502C279.895 339.853 279.825 340.098 279.686 340.237C279.556 340.375 279.333 340.444 279.017 340.444H274.643C274.327 340.444 274.099 340.375 273.96 340.237C273.83 340.098 273.765 339.853 273.765 339.502C273.765 339.151 273.83 338.907 273.96 338.768C274.099 338.63 274.327 338.56 274.643 338.56H275.646V325.885Z" fill="white"/>
<path d="M275.646 325.885H274.643C274.327 325.885 274.099 325.816 273.96 325.677C273.83 325.539 273.765 325.294 273.765 324.943C273.765 324.592 273.83 324.348 273.96 324.209C274.099 324.07 274.327 324.001 274.643 324.001H279.017C279.333 324.001 279.556 324.07 279.686 324.209C279.825 324.348 279.895 324.592 279.895 324.943C279.895 325.294 279.825 325.539 279.686 325.677C279.556 325.816 279.333 325.885 279.017 325.885H277.736V331.025H284.674V325.885H283.392C283.076 325.885 282.849 325.816 282.709 325.677C282.579 325.539 282.514 325.294 282.514 324.943C282.514 324.592 282.579 324.348 282.709 324.209C282.849 324.07 283.076 324.001 283.392 324.001H287.767C288.083 324.001 288.306 324.07 288.436 324.209C288.575 324.348 288.645 324.592 288.645 324.943C288.645 325.294 288.575 325.539 288.436 325.677C288.306 325.816 288.083 325.885 287.767 325.885H286.764V338.56H287.767C288.083 338.56 288.306 338.63 288.436 338.768C288.575 338.907 288.645 339.151 288.645 339.502C288.645 339.853 288.575 340.098 288.436 340.237C288.306 340.375 288.083 340.444 287.767 340.444H283.392C283.076 340.444 282.849 340.375 282.709 340.237C282.579 340.098 282.514 339.853 282.514 339.502C282.514 339.151 282.579 338.907 282.709 338.768C282.849 338.63 283.076 338.56 283.392 338.56H284.674V332.909H277.736V338.56H279.017C279.333 338.56 279.556 338.63 279.686 338.768C279.825 338.907 279.895 339.151 279.895 339.502C279.895 339.853 279.825 340.098 279.686 340.237C279.556 340.375 279.333 340.444 279.017 340.444H274.643C274.327 340.444 274.099 340.375 273.96 340.237C273.83 340.098 273.765 339.853 273.765 339.502C273.765 339.151 273.83 338.907 273.96 338.768C274.099 338.63 274.327 338.56 274.643 338.56H275.646V325.885Z" fill="url(#paint12_linear_111_57)"/>
<path d="M325.088 338.934C324.206 339.544 323.258 340.001 322.246 340.306C321.233 340.601 320.193 340.749 319.125 340.749C318.029 340.749 317.035 340.546 316.144 340.14C315.261 339.733 314.509 339.161 313.886 338.422C313.264 337.674 312.781 336.778 312.438 335.734C312.103 334.682 311.936 333.513 311.936 332.23C311.936 330.946 312.108 329.782 312.451 328.739C312.804 327.686 313.297 326.786 313.928 326.038C314.569 325.29 315.331 324.712 316.213 324.306C317.096 323.9 318.066 323.696 319.125 323.696C320.026 323.696 320.811 323.849 321.48 324.154C322.148 324.449 322.71 324.865 323.165 325.4V324.597C323.165 324.274 323.24 324.043 323.388 323.904C323.546 323.766 323.82 323.696 324.21 323.696C324.6 323.696 324.87 323.766 325.018 323.904C325.176 324.043 325.255 324.274 325.255 324.597V329.168C325.255 329.492 325.176 329.722 325.018 329.861C324.87 329.999 324.6 330.069 324.21 330.069C323.82 330.069 323.546 329.999 323.388 329.861C323.24 329.722 323.165 329.492 323.165 329.168C323.165 328.716 323.086 328.282 322.929 327.866C322.78 327.451 322.543 327.086 322.218 326.772C321.902 326.458 321.498 326.208 321.006 326.024C320.514 325.839 319.933 325.747 319.264 325.747C318.512 325.747 317.82 325.899 317.188 326.204C316.557 326.499 316.013 326.929 315.558 327.492C315.113 328.055 314.764 328.739 314.513 329.542C314.263 330.337 314.137 331.232 314.137 332.23C314.137 333.227 314.253 334.128 314.486 334.931C314.727 335.725 315.061 336.404 315.489 336.967C315.925 337.521 316.45 337.951 317.063 338.256C317.685 338.551 318.373 338.699 319.125 338.699C320.054 338.699 320.932 338.57 321.758 338.311C322.594 338.043 323.347 337.651 324.015 337.134C324.201 336.986 324.405 336.921 324.628 336.94C324.851 336.958 325.065 337.138 325.269 337.48C325.464 337.803 325.543 338.085 325.506 338.325C325.469 338.556 325.33 338.759 325.088 338.934Z" fill="white"/>
<path d="M325.088 338.934C324.206 339.544 323.258 340.001 322.246 340.306C321.233 340.601 320.193 340.749 319.125 340.749C318.029 340.749 317.035 340.546 316.144 340.14C315.261 339.733 314.509 339.161 313.886 338.422C313.264 337.674 312.781 336.778 312.438 335.734C312.103 334.682 311.936 333.513 311.936 332.23C311.936 330.946 312.108 329.782 312.451 328.739C312.804 327.686 313.297 326.786 313.928 326.038C314.569 325.29 315.331 324.712 316.213 324.306C317.096 323.9 318.066 323.696 319.125 323.696C320.026 323.696 320.811 323.849 321.48 324.154C322.148 324.449 322.71 324.865 323.165 325.4V324.597C323.165 324.274 323.24 324.043 323.388 323.904C323.546 323.766 323.82 323.696 324.21 323.696C324.6 323.696 324.87 323.766 325.018 323.904C325.176 324.043 325.255 324.274 325.255 324.597V329.168C325.255 329.492 325.176 329.722 325.018 329.861C324.87 329.999 324.6 330.069 324.21 330.069C323.82 330.069 323.546 329.999 323.388 329.861C323.24 329.722 323.165 329.492 323.165 329.168C323.165 328.716 323.086 328.282 322.929 327.866C322.78 327.451 322.543 327.086 322.218 326.772C321.902 326.458 321.498 326.208 321.006 326.024C320.514 325.839 319.933 325.747 319.264 325.747C318.512 325.747 317.82 325.899 317.188 326.204C316.557 326.499 316.013 326.929 315.558 327.492C315.113 328.055 314.764 328.739 314.513 329.542C314.263 330.337 314.137 331.232 314.137 332.23C314.137 333.227 314.253 334.128 314.486 334.931C314.727 335.725 315.061 336.404 315.489 336.967C315.925 337.521 316.45 337.951 317.063 338.256C317.685 338.551 318.373 338.699 319.125 338.699C320.054 338.699 320.932 338.57 321.758 338.311C322.594 338.043 323.347 337.651 324.015 337.134C324.201 336.986 324.405 336.921 324.628 336.94C324.851 336.958 325.065 337.138 325.269 337.48C325.464 337.803 325.543 338.085 325.506 338.325C325.469 338.556 325.33 338.759 325.088 338.934Z" fill="url(#paint13_linear_111_57)"/>
<path d="M330.339 332.23C330.339 330.946 330.515 329.782 330.868 328.739C331.221 327.686 331.718 326.786 332.359 326.038C333 325.29 333.771 324.712 334.672 324.306C335.573 323.9 336.571 323.696 337.667 323.696C338.763 323.696 339.762 323.9 340.663 324.306C341.564 324.712 342.335 325.29 342.975 326.038C343.616 326.786 344.113 327.686 344.466 328.739C344.819 329.782 344.996 330.946 344.996 332.23C344.996 333.513 344.819 334.682 344.466 335.734C344.113 336.778 343.616 337.674 342.975 338.422C342.335 339.161 341.564 339.733 340.663 340.14C339.762 340.546 338.763 340.749 337.667 340.749C336.571 340.749 335.573 340.546 334.672 340.14C333.771 339.733 333 339.161 332.359 338.422C331.718 337.674 331.221 336.778 330.868 335.734C330.515 334.682 330.339 333.513 330.339 332.23ZM332.54 332.23C332.54 333.227 332.661 334.128 332.902 334.931C333.153 335.725 333.501 336.404 333.947 336.967C334.393 337.521 334.932 337.951 335.563 338.256C336.195 338.551 336.896 338.699 337.667 338.699C338.438 338.699 339.139 338.551 339.771 338.256C340.403 337.951 340.941 337.521 341.387 336.967C341.833 336.404 342.177 335.725 342.418 334.931C342.669 334.128 342.794 333.227 342.794 332.23C342.794 331.232 342.669 330.337 342.418 329.542C342.177 328.739 341.833 328.055 341.387 327.492C340.941 326.929 340.403 326.499 339.771 326.204C339.139 325.899 338.438 325.747 337.667 325.747C336.896 325.747 336.195 325.899 335.563 326.204C334.932 326.499 334.393 326.929 333.947 327.492C333.501 328.055 333.153 328.739 332.902 329.542C332.661 330.337 332.54 331.232 332.54 332.23Z" fill="white"/>
<path d="M330.339 332.23C330.339 330.946 330.515 329.782 330.868 328.739C331.221 327.686 331.718 326.786 332.359 326.038C333 325.29 333.771 324.712 334.672 324.306C335.573 323.9 336.571 323.696 337.667 323.696C338.763 323.696 339.762 323.9 340.663 324.306C341.564 324.712 342.335 325.29 342.975 326.038C343.616 326.786 344.113 327.686 344.466 328.739C344.819 329.782 344.996 330.946 344.996 332.23C344.996 333.513 344.819 334.682 344.466 335.734C344.113 336.778 343.616 337.674 342.975 338.422C342.335 339.161 341.564 339.733 340.663 340.14C339.762 340.546 338.763 340.749 337.667 340.749C336.571 340.749 335.573 340.546 334.672 340.14C333.771 339.733 333 339.161 332.359 338.422C331.718 337.674 331.221 336.778 330.868 335.734C330.515 334.682 330.339 333.513 330.339 332.23ZM332.54 332.23C332.54 333.227 332.661 334.128 332.902 334.931C333.153 335.725 333.501 336.404 333.947 336.967C334.393 337.521 334.932 337.951 335.563 338.256C336.195 338.551 336.896 338.699 337.667 338.699C338.438 338.699 339.139 338.551 339.771 338.256C340.403 337.951 340.941 337.521 341.387 336.967C341.833 336.404 342.177 335.725 342.418 334.931C342.669 334.128 342.794 333.227 342.794 332.23C342.794 331.232 342.669 330.337 342.418 329.542C342.177 328.739 341.833 328.055 341.387 327.492C340.941 326.929 340.403 326.499 339.771 326.204C339.139 325.899 338.438 325.747 337.667 325.747C336.896 325.747 336.195 325.899 335.563 326.204C334.932 326.499 334.393 326.929 333.947 327.492C333.501 328.055 333.153 328.739 332.902 329.542C332.661 330.337 332.54 331.232 332.54 332.23Z" fill="url(#paint14_linear_111_57)"/>
<path d="M351.626 325.885H349.926C349.61 325.885 349.383 325.816 349.243 325.677C349.113 325.539 349.048 325.294 349.048 324.943C349.048 324.592 349.113 324.348 349.243 324.209C349.383 324.07 349.61 324.001 349.926 324.001H356.976C357.867 324.001 358.657 324.117 359.344 324.348C360.032 324.569 360.607 324.883 361.072 325.29C361.546 325.696 361.903 326.19 362.145 326.772C362.386 327.344 362.507 327.977 362.507 328.67C362.507 329.205 362.414 329.699 362.228 330.152C362.052 330.604 361.796 331.006 361.462 331.357C361.128 331.708 360.719 332.013 360.236 332.271C359.762 332.521 359.233 332.71 358.648 332.839C358.889 332.95 359.112 333.089 359.316 333.255C359.521 333.421 359.716 333.606 359.902 333.809C360.134 334.068 360.352 334.349 360.556 334.654C360.77 334.959 360.965 335.268 361.141 335.582C361.327 335.887 361.504 336.192 361.671 336.496C361.838 336.801 362.001 337.083 362.159 337.341C362.381 337.711 362.609 338.006 362.841 338.228C363.073 338.45 363.333 338.56 363.621 338.56H363.886C364.202 338.56 364.425 338.63 364.555 338.768C364.694 338.907 364.764 339.151 364.764 339.502C364.764 339.853 364.694 340.098 364.555 340.237C364.425 340.375 364.202 340.444 363.886 340.444H362.911C362.511 340.444 362.112 340.306 361.713 340.029C361.323 339.743 360.905 339.239 360.459 338.519C360.273 338.214 360.092 337.9 359.915 337.577C359.739 337.254 359.562 336.935 359.386 336.621C359.21 336.298 359.028 335.993 358.843 335.707C358.657 335.411 358.466 335.139 358.271 334.889C358.03 334.585 357.779 334.331 357.519 334.128C357.268 333.924 356.994 333.763 356.697 333.643C356.4 333.523 356.079 333.44 355.736 333.393C355.392 333.338 355.007 333.31 354.579 333.31H353.716V338.56H355.527C355.843 338.56 356.065 338.63 356.196 338.768C356.335 338.907 356.404 339.151 356.404 339.502C356.404 339.853 356.335 340.098 356.196 340.237C356.065 340.375 355.843 340.444 355.527 340.444H349.926C349.61 340.444 349.383 340.375 349.243 340.237C349.113 340.098 349.048 339.853 349.048 339.502C349.048 339.151 349.113 338.907 349.243 338.768C349.383 338.63 349.61 338.56 349.926 338.56H351.626V325.885ZM353.716 325.885V331.426H356.544C357.12 331.426 357.64 331.375 358.104 331.274C358.569 331.172 358.963 331.011 359.288 330.789C359.614 330.567 359.864 330.281 360.041 329.93C360.217 329.579 360.306 329.159 360.306 328.67C360.306 327.774 359.99 327.086 359.358 326.606C358.736 326.125 357.844 325.885 356.683 325.885H353.716Z" fill="white"/>
<path d="M351.626 325.885H349.926C349.61 325.885 349.383 325.816 349.243 325.677C349.113 325.539 349.048 325.294 349.048 324.943C349.048 324.592 349.113 324.348 349.243 324.209C349.383 324.07 349.61 324.001 349.926 324.001H356.976C357.867 324.001 358.657 324.117 359.344 324.348C360.032 324.569 360.607 324.883 361.072 325.29C361.546 325.696 361.903 326.19 362.145 326.772C362.386 327.344 362.507 327.977 362.507 328.67C362.507 329.205 362.414 329.699 362.228 330.152C362.052 330.604 361.796 331.006 361.462 331.357C361.128 331.708 360.719 332.013 360.236 332.271C359.762 332.521 359.233 332.71 358.648 332.839C358.889 332.95 359.112 333.089 359.316 333.255C359.521 333.421 359.716 333.606 359.902 333.809C360.134 334.068 360.352 334.349 360.556 334.654C360.77 334.959 360.965 335.268 361.141 335.582C361.327 335.887 361.504 336.192 361.671 336.496C361.838 336.801 362.001 337.083 362.159 337.341C362.381 337.711 362.609 338.006 362.841 338.228C363.073 338.45 363.333 338.56 363.621 338.56H363.886C364.202 338.56 364.425 338.63 364.555 338.768C364.694 338.907 364.764 339.151 364.764 339.502C364.764 339.853 364.694 340.098 364.555 340.237C364.425 340.375 364.202 340.444 363.886 340.444H362.911C362.511 340.444 362.112 340.306 361.713 340.029C361.323 339.743 360.905 339.239 360.459 338.519C360.273 338.214 360.092 337.9 359.915 337.577C359.739 337.254 359.562 336.935 359.386 336.621C359.21 336.298 359.028 335.993 358.843 335.707C358.657 335.411 358.466 335.139 358.271 334.889C358.03 334.585 357.779 334.331 357.519 334.128C357.268 333.924 356.994 333.763 356.697 333.643C356.4 333.523 356.079 333.44 355.736 333.393C355.392 333.338 355.007 333.31 354.579 333.31H353.716V338.56H355.527C355.843 338.56 356.065 338.63 356.196 338.768C356.335 338.907 356.404 339.151 356.404 339.502C356.404 339.853 356.335 340.098 356.196 340.237C356.065 340.375 355.843 340.444 355.527 340.444H349.926C349.61 340.444 349.383 340.375 349.243 340.237C349.113 340.098 349.048 339.853 349.048 339.502C349.048 339.151 349.113 338.907 349.243 338.768C349.383 338.63 349.61 338.56 349.926 338.56H351.626V325.885ZM353.716 325.885V331.426H356.544C357.12 331.426 357.64 331.375 358.104 331.274C358.569 331.172 358.963 331.011 359.288 330.789C359.614 330.567 359.864 330.281 360.041 329.93C360.217 329.579 360.306 329.159 360.306 328.67C360.306 327.774 359.99 327.086 359.358 326.606C358.736 326.125 357.844 325.885 356.683 325.885H353.716Z" fill="url(#paint15_linear_111_57)"/>
<path d="M374.264 325.885H370.544V330.166C370.544 330.489 370.465 330.72 370.307 330.858C370.159 330.997 369.889 331.066 369.499 331.066C369.109 331.066 368.835 330.997 368.677 330.858C368.529 330.72 368.454 330.489 368.454 330.166V324.943C368.454 324.592 368.519 324.348 368.649 324.209C368.789 324.07 369.016 324.001 369.332 324.001H381.286C381.602 324.001 381.825 324.07 381.955 324.209C382.094 324.348 382.164 324.592 382.164 324.943V330.166C382.164 330.489 382.085 330.72 381.927 330.858C381.778 330.997 381.509 331.066 381.119 331.066C380.729 331.066 380.455 330.997 380.297 330.858C380.148 330.72 380.074 330.489 380.074 330.166V325.885H376.354V338.56H379.642C379.958 338.56 380.181 338.63 380.311 338.768C380.45 338.907 380.52 339.151 380.52 339.502C380.52 339.853 380.45 340.098 380.311 340.237C380.181 340.375 379.958 340.444 379.642 340.444H370.976C370.66 340.444 370.433 340.375 370.293 340.237C370.163 340.098 370.098 339.853 370.098 339.502C370.098 339.151 370.163 338.907 370.293 338.768C370.433 338.63 370.66 338.56 370.976 338.56H374.264V325.885Z" fill="white"/>
<path d="M374.264 325.885H370.544V330.166C370.544 330.489 370.465 330.72 370.307 330.858C370.159 330.997 369.889 331.066 369.499 331.066C369.109 331.066 368.835 330.997 368.677 330.858C368.529 330.72 368.454 330.489 368.454 330.166V324.943C368.454 324.592 368.519 324.348 368.649 324.209C368.789 324.07 369.016 324.001 369.332 324.001H381.286C381.602 324.001 381.825 324.07 381.955 324.209C382.094 324.348 382.164 324.592 382.164 324.943V330.166C382.164 330.489 382.085 330.72 381.927 330.858C381.778 330.997 381.509 331.066 381.119 331.066C380.729 331.066 380.455 330.997 380.297 330.858C380.148 330.72 380.074 330.489 380.074 330.166V325.885H376.354V338.56H379.642C379.958 338.56 380.181 338.63 380.311 338.768C380.45 338.907 380.52 339.151 380.52 339.502C380.52 339.853 380.45 340.098 380.311 340.237C380.181 340.375 379.958 340.444 379.642 340.444H370.976C370.66 340.444 370.433 340.375 370.293 340.237C370.163 340.098 370.098 339.853 370.098 339.502C370.098 339.151 370.163 338.907 370.293 338.768C370.433 338.63 370.66 338.56 370.976 338.56H374.264V325.885Z" fill="url(#paint16_linear_111_57)"/>
<path d="M388.989 325.885H387.568C387.252 325.885 387.024 325.816 386.885 325.677C386.755 325.539 386.69 325.294 386.69 324.943C386.69 324.592 386.755 324.348 386.885 324.209C387.024 324.07 387.252 324.001 387.568 324.001H399.744C400.06 324.001 400.283 324.07 400.413 324.209C400.553 324.348 400.622 324.592 400.622 324.943V328.462C400.622 328.785 400.543 329.016 400.385 329.154C400.237 329.293 399.967 329.362 399.577 329.362C399.187 329.362 398.913 329.293 398.755 329.154C398.607 329.016 398.532 328.785 398.532 328.462V325.885H391.079V331.025H394.562V329.764C394.562 329.441 394.636 329.21 394.785 329.071C394.942 328.933 395.216 328.864 395.607 328.864C395.997 328.864 396.266 328.933 396.415 329.071C396.573 329.21 396.652 329.441 396.652 329.764V334.169C396.652 334.492 396.573 334.723 396.415 334.862C396.266 335 395.997 335.07 395.607 335.07C395.216 335.07 394.942 335 394.785 334.862C394.636 334.723 394.562 334.492 394.562 334.169V332.909H391.079V338.56H398.811V335.388C398.811 335.065 398.885 334.834 399.034 334.696C399.192 334.557 399.466 334.488 399.856 334.488C400.246 334.488 400.515 334.557 400.664 334.696C400.822 334.834 400.901 335.065 400.901 335.388V339.502C400.901 339.853 400.831 340.098 400.692 340.237C400.562 340.375 400.339 340.444 400.023 340.444H387.568C387.252 340.444 387.024 340.375 386.885 340.237C386.755 340.098 386.69 339.853 386.69 339.502C386.69 339.151 386.755 338.907 386.885 338.768C387.024 338.63 387.252 338.56 387.568 338.56H388.989V325.885Z" fill="white"/>
<path d="M388.989 325.885H387.568C387.252 325.885 387.024 325.816 386.885 325.677C386.755 325.539 386.69 325.294 386.69 324.943C386.69 324.592 386.755 324.348 386.885 324.209C387.024 324.07 387.252 324.001 387.568 324.001H399.744C400.06 324.001 400.283 324.07 400.413 324.209C400.553 324.348 400.622 324.592 400.622 324.943V328.462C400.622 328.785 400.543 329.016 400.385 329.154C400.237 329.293 399.967 329.362 399.577 329.362C399.187 329.362 398.913 329.293 398.755 329.154C398.607 329.016 398.532 328.785 398.532 328.462V325.885H391.079V331.025H394.562V329.764C394.562 329.441 394.636 329.21 394.785 329.071C394.942 328.933 395.216 328.864 395.607 328.864C395.997 328.864 396.266 328.933 396.415 329.071C396.573 329.21 396.652 329.441 396.652 329.764V334.169C396.652 334.492 396.573 334.723 396.415 334.862C396.266 335 395.997 335.07 395.607 335.07C395.216 335.07 394.942 335 394.785 334.862C394.636 334.723 394.562 334.492 394.562 334.169V332.909H391.079V338.56H398.811V335.388C398.811 335.065 398.885 334.834 399.034 334.696C399.192 334.557 399.466 334.488 399.856 334.488C400.246 334.488 400.515 334.557 400.664 334.696C400.822 334.834 400.901 335.065 400.901 335.388V339.502C400.901 339.853 400.831 340.098 400.692 340.237C400.562 340.375 400.339 340.444 400.023 340.444H387.568C387.252 340.444 387.024 340.375 386.885 340.237C386.755 340.098 386.69 339.853 386.69 339.502C386.69 339.151 386.755 338.907 386.885 338.768C387.024 338.63 387.252 338.56 387.568 338.56H388.989V325.885Z" fill="url(#paint17_linear_111_57)"/>
<path d="M417.061 338.56V334.834C417.061 334.511 417.135 334.28 417.284 334.141C417.441 334.003 417.715 333.934 418.106 333.934C418.496 333.934 418.765 334.003 418.914 334.141C419.072 334.28 419.151 334.511 419.151 334.834V339.502C419.151 339.853 419.081 340.098 418.942 340.237C418.812 340.375 418.589 340.444 418.273 340.444H407.601C407.285 340.444 407.057 340.375 406.918 340.237C406.788 340.098 406.723 339.853 406.723 339.502C406.723 339.373 406.741 339.262 406.779 339.17C406.816 339.078 406.862 338.99 406.918 338.907L416.099 325.885H409.105V329.335C409.105 329.658 409.026 329.889 408.868 330.027C408.72 330.166 408.451 330.235 408.06 330.235C407.67 330.235 407.396 330.166 407.238 330.027C407.09 329.889 407.015 329.658 407.015 329.335V324.943C407.015 324.592 407.081 324.348 407.211 324.209C407.35 324.07 407.577 324.001 407.893 324.001H418.147C418.463 324.001 418.686 324.07 418.816 324.209C418.955 324.348 419.025 324.592 419.025 324.943C419.025 325.174 418.979 325.354 418.886 325.483L409.649 338.56H417.061Z" fill="white"/>
<path d="M417.061 338.56V334.834C417.061 334.511 417.135 334.28 417.284 334.141C417.441 334.003 417.715 333.934 418.106 333.934C418.496 333.934 418.765 334.003 418.914 334.141C419.072 334.28 419.151 334.511 419.151 334.834V339.502C419.151 339.853 419.081 340.098 418.942 340.237C418.812 340.375 418.589 340.444 418.273 340.444H407.601C407.285 340.444 407.057 340.375 406.918 340.237C406.788 340.098 406.723 339.853 406.723 339.502C406.723 339.373 406.741 339.262 406.779 339.17C406.816 339.078 406.862 338.99 406.918 338.907L416.099 325.885H409.105V329.335C409.105 329.658 409.026 329.889 408.868 330.027C408.72 330.166 408.451 330.235 408.06 330.235C407.67 330.235 407.396 330.166 407.238 330.027C407.09 329.889 407.015 329.658 407.015 329.335V324.943C407.015 324.592 407.081 324.348 407.211 324.209C407.35 324.07 407.577 324.001 407.893 324.001H418.147C418.463 324.001 418.686 324.07 418.816 324.209C418.955 324.348 419.025 324.592 419.025 324.943C419.025 325.174 418.979 325.354 418.886 325.483L409.649 338.56H417.061Z" fill="url(#paint18_linear_111_57)"/>
</g>
<path d="M73.0303 60.5586C70.0588 60.5586 67.7476 61.9812 66.2802 64.3522C65.1796 61.9083 63.0518 60.5586 60.1536 60.5586C57.5123 60.5586 55.6046 61.6529 54.1739 63.6591V60.9964H48.8911V81.0583H54.1739L54.1372 70.5166C54.1372 67.3432 55.6046 65.5194 58.356 65.5194C60.8874 65.5194 61.8412 66.942 61.8412 69.4953V81.0583H67.0872V70.5166C67.0872 67.3432 68.518 65.5194 71.2694 65.5194C73.8007 65.5194 74.7546 66.942 74.7546 69.4953V81.0583H80.0006V68.3645C80.0006 63.5132 77.3226 60.5586 73.0303 60.5586Z" fill="white"/>
<path d="M94.0157 60.5586C88.2194 60.5586 83.5236 64.9723 83.5236 71.0273C83.5236 77.0459 88.146 81.496 94.0157 81.496C99.9221 81.496 104.545 77.0824 104.545 71.0273C104.545 64.9723 99.8487 60.5586 94.0157 60.5586ZM94.0157 65.5194C96.9506 65.5194 99.2251 67.7444 99.2251 71.0273C99.2251 74.3466 96.9506 76.5352 94.0157 76.5352C91.0808 76.5352 88.8063 74.3466 88.8063 71.0273C88.8063 67.7444 91.0808 65.5194 94.0157 65.5194Z" fill="white"/>
<path d="M119.738 60.5586C116.95 60.5586 114.932 61.6894 113.465 63.7321V60.9964H108.219V81.0583H113.465V70.5166C113.465 67.2338 115.042 65.5194 118.014 65.5194C120.802 65.5194 121.793 66.9784 121.793 69.6047V81.0583H127.039V68.474C127.039 63.5497 124.287 60.5586 119.738 60.5586Z" fill="white"/>
<path d="M141.055 60.5586C135.259 60.5586 130.563 64.9723 130.563 71.0273C130.563 77.0459 135.185 81.496 141.055 81.496C146.961 81.496 151.584 77.0824 151.584 71.0273C151.584 64.9723 146.888 60.5586 141.055 60.5586ZM141.055 65.5194C143.99 65.5194 146.264 67.7444 146.264 71.0273C146.264 74.3466 143.99 76.5352 141.055 76.5352C138.12 76.5352 135.846 74.3466 135.846 71.0273C135.846 67.7444 138.12 65.5194 141.055 65.5194Z" fill="white"/>
<path d="M166.888 60.5586C164.063 60.5586 161.898 61.8718 160.504 63.805V52.9716H155.258V81.0583H160.504V78.359C161.935 80.2558 164.026 81.496 166.888 81.496C172.134 81.496 176.096 77.1918 176.096 71.0273C176.096 64.8264 172.06 60.5586 166.888 60.5586ZM165.677 76.5352C162.742 76.5352 160.504 74.3466 160.504 71.0273C160.504 67.7444 162.742 65.5194 165.677 65.5194C168.612 65.5194 170.776 67.7444 170.776 71.0273C170.776 74.3466 168.575 76.5352 165.677 76.5352Z" fill="white"/>
<path d="M194.841 60.9964V63.805C193.447 61.8718 191.319 60.5586 188.458 60.5586C183.285 60.5586 179.286 64.8264 179.286 71.0273C179.286 77.1918 183.212 81.496 188.494 81.496C191.319 81.496 193.41 80.2558 194.804 78.359V81.0583H200.05L200.087 60.9964H194.841ZM189.668 76.5352C186.77 76.5352 184.569 74.3466 184.569 71.0273C184.569 67.7444 186.733 65.5194 189.668 65.5194C192.603 65.5194 194.841 67.7444 194.841 71.0273C194.841 74.3466 192.603 76.5352 189.668 76.5352Z" fill="white"/>
<path d="M215.787 60.5586C212.999 60.5586 210.982 61.6894 209.514 63.7321V60.9964H204.268V81.0583H209.514V70.5166C209.514 67.2338 211.092 65.5194 214.063 65.5194C216.851 65.5194 217.842 66.9784 217.842 69.6047V81.0583H223.088V68.474C223.088 63.5497 220.336 60.5586 215.787 60.5586Z" fill="white"/>
<path d="M247.486 81.0583L237.655 70.5531L246.863 60.9964H240.186L232.519 69.3494V52.9716H227.273V81.0583H232.519V72.304L240.773 81.0583H247.486Z" fill="white"/>
<path d="M302.369 59.9831V70.0505C302.369 73.3577 300.632 74.6708 298.26 74.6708C295.888 74.6708 294.151 73.3577 294.151 70.0505V59.9831H291.339V70.2207C291.339 74.9626 294.323 77.2971 298.26 77.2971C302.198 77.2971 305.182 74.9626 305.182 70.2207V59.9831H302.369Z" fill="#475569"/>
<path d="M315.933 63.3389C313.83 63.3389 312.387 64.2873 311.433 65.8436V63.6307H308.669V77.0053H311.433V70.0748C311.433 67.4972 312.705 65.9652 315.077 65.9652C317.107 65.9652 318.012 67.0595 318.012 69.1264V77.0053H320.776V68.5671C320.776 65.3086 318.966 63.3389 315.933 63.3389Z" fill="#475569"/>
<path d="M325.253 57.6C324.25 57.6 323.468 58.3052 323.468 59.2779C323.468 60.2749 324.25 61.0044 325.253 61.0044C326.305 61.0044 327.063 60.2749 327.063 59.2779C327.063 58.3052 326.305 57.6 325.253 57.6ZM323.883 77.0053H326.647V63.6307H323.883V77.0053Z" fill="#475569"/>
<path d="M338.928 63.6307L335.333 74.1358L331.762 63.6307H328.827L333.67 77.0053H337.02L341.863 63.6307H338.928Z" fill="#475569"/>
<path d="M349.759 63.3389C345.699 63.3389 342.813 66.3056 342.813 70.3423C342.813 74.379 345.723 77.2971 349.808 77.2971C352.669 77.2971 355.237 75.8867 356.289 72.8956H353.427C352.792 74.2088 351.446 74.8897 349.832 74.8897C347.582 74.8897 345.846 73.5279 345.626 71.0718H356.558C356.827 66.6704 354.088 63.3389 349.759 63.3389ZM349.759 65.722C351.789 65.722 353.183 67.0108 353.599 68.8346H345.772C346.237 67.0351 347.656 65.722 349.759 65.722Z" fill="#475569"/>
<path d="M366.495 63.3389C364.367 63.3389 362.826 64.4088 362.019 66.2813V63.6307H359.255V77.0053H362.019V70.8773C362.019 67.5701 363.951 66.1597 366.47 66.1597C366.837 66.1597 367.057 66.184 367.302 66.2083V63.4118C367.106 63.3632 366.837 63.3389 366.495 63.3389Z" fill="#475569"/>
<path d="M375.445 77.2971C378.624 77.2971 381.217 75.8867 381.217 73.0172C381.217 70.4153 379.113 69.783 375.469 68.9319C373.121 68.3726 372.29 68.1537 372.29 67.3026C372.29 66.3786 373.341 65.7706 375.127 65.7706C376.839 65.7706 377.866 66.3056 378.257 67.3999H381.045C380.556 64.9682 378.624 63.3389 375.176 63.3389C371.801 63.3389 369.502 64.8952 369.502 67.5944C369.502 69.8316 371.091 70.5855 374.858 71.5095C377.108 72.0445 378.38 72.2148 378.38 73.3334C378.38 74.3304 377.279 74.8654 375.494 74.8654C373.17 74.8654 372.07 74.1845 371.654 72.7011H368.841C369.355 75.5949 371.899 77.2971 375.445 77.2971Z" fill="#475569"/>
<path d="M394.252 63.6307V65.9165C393.274 64.3845 391.659 63.3389 389.532 63.3389C386.01 63.3389 383.344 66.2327 383.344 70.318C383.344 74.4033 385.961 77.2971 389.556 77.2971C391.659 77.2971 393.274 76.3001 394.252 74.7681V77.0053H397.016V63.6307H394.252ZM390.143 74.6708C387.82 74.6708 386.132 72.8956 386.132 70.318C386.132 67.7647 387.795 65.9652 390.143 65.9652C392.491 65.9652 394.276 67.7647 394.276 70.318C394.276 72.8956 392.491 74.6708 390.143 74.6708Z" fill="#475569"/>
<path d="M400.265 77.0053H403.053V58.2808H400.265V77.0053Z" fill="#475569"/>
<path d="M424.158 67.9106C425.699 67.2054 426.433 66.0868 426.433 64.3602C426.433 61.5637 424.549 59.9831 421.223 59.9831H413.935V77.0053H421.321C424.916 77.0053 426.995 75.1815 426.995 72.1904C426.995 70.1235 426.09 68.4942 424.158 67.9106ZM423.644 64.7979C423.644 66.184 422.911 66.9865 420.905 66.9865H416.699V62.6094H420.881C422.862 62.6094 423.644 63.3146 423.644 64.7979ZM421.248 74.379H416.699V69.5155H421.223C423.473 69.5155 424.207 70.4153 424.207 71.9716C424.207 73.4306 423.498 74.379 421.248 74.379Z" fill="#475569"/>
<path d="M440.085 63.6307V65.9165C439.107 64.3845 437.493 63.3389 435.365 63.3389C431.843 63.3389 429.177 66.2327 429.177 70.318C429.177 74.4033 431.794 77.2971 435.389 77.2971C437.493 77.2971 439.107 76.3001 440.085 74.7681V77.0053H442.849V63.6307H440.085ZM435.976 74.6708C433.653 74.6708 431.965 72.8956 431.965 70.318C431.965 67.7647 433.629 65.9652 435.976 65.9652C438.324 65.9652 440.11 67.7647 440.11 70.318C440.11 72.8956 438.324 74.6708 435.976 74.6708Z" fill="#475569"/>
<path d="M453.337 63.3389C451.234 63.3389 449.791 64.2873 448.837 65.8436V63.6307H446.074V77.0053H448.837V70.0748C448.837 67.4972 450.109 65.9652 452.481 65.9652C454.511 65.9652 455.416 67.0595 455.416 69.1264V77.0053H458.18V68.5671C458.18 65.3086 456.37 63.3389 453.337 63.3389Z" fill="#475569"/>
<path d="M474.079 77.0053L466.962 69.9775L473.541 63.6307H469.994L464.174 69.4182V58.2808H461.41V77.0053H464.174V70.8287L470.508 77.0053H474.079Z" fill="#475569"/>
<path fill-rule="evenodd" clip-rule="evenodd" d="M267.933 90.1773V50.6615H269.971V90.1773H267.933Z" fill="#334155"/>
<g filter="url(#filter2_ii_111_57)">
<path d="M46.8 135.772C46.8 131.296 50.4499 127.667 54.9524 127.667H124.248C128.75 127.667 132.4 131.296 132.4 135.772V180.619C132.4 185.096 128.75 188.725 124.248 188.725H54.9524C50.4499 188.725 46.8 185.096 46.8 180.619V135.772Z" fill="#CDC9C1"/>
<path d="M46.8 135.772C46.8 131.296 50.4499 127.667 54.9524 127.667H124.248C128.75 127.667 132.4 131.296 132.4 135.772V180.619C132.4 185.096 128.75 188.725 124.248 188.725H54.9524C50.4499 188.725 46.8 185.096 46.8 180.619V135.772Z" fill="url(#paint19_radial_111_57)" fill-opacity="0.1"/>
<path d="M46.8 135.772C46.8 131.296 50.4499 127.667 54.9524 127.667H124.248C128.75 127.667 132.4 131.296 132.4 135.772V180.619C132.4 185.096 128.75 188.725 124.248 188.725H54.9524C50.4499 188.725 46.8 185.096 46.8 180.619V135.772Z" fill="url(#paint20_radial_111_57)" fill-opacity="0.1"/>
<path d="M46.8 135.772C46.8 131.296 50.4499 127.667 54.9524 127.667H124.248C128.75 127.667 132.4 131.296 132.4 135.772V180.619C132.4 185.096 128.75 188.725 124.248 188.725H54.9524C50.4499 188.725 46.8 185.096 46.8 180.619V135.772Z" fill="url(#paint21_radial_111_57)" fill-opacity="0.1"/>
</g>
<mask id="mask0_111_57" style="mask-type:alpha" maskUnits="userSpaceOnUse" x="46" y="127" width="87" height="62">
<path d="M46.8 135.772C46.8 131.296 50.4499 127.667 54.9524 127.667H124.248C128.75 127.667 132.4 131.296 132.4 135.772V180.619C132.4 185.096 128.75 188.725 124.248 188.725H54.9524C50.4499 188.725 46.8 185.096 46.8 180.619V135.772Z" fill="#D9D9D9"/>
</mask>
<g mask="url(#mask0_111_57)">
<path fill-rule="evenodd" clip-rule="evenodd" d="M46.2905 135.244C46.2905 133.845 47.4311 132.711 48.8381 132.711H68.9532C70.3602 132.711 71.5008 133.845 71.5008 135.244V147.843C71.5008 149.242 70.3602 150.376 68.9532 150.376H48.8381C47.4311 150.376 46.2905 149.242 46.2905 147.843V135.244ZM48.8381 133.724C47.9939 133.724 47.3095 134.404 47.3095 135.244V147.843C47.3095 148.683 47.9939 149.363 48.8381 149.363H68.9532C69.7974 149.363 70.4818 148.683 70.4818 147.843V135.244C70.4818 134.404 69.7974 133.724 68.9532 133.724H48.8381Z" fill="#10141E"/>
<path fill-rule="evenodd" clip-rule="evenodd" d="M46.2905 151.896C46.2905 150.497 47.4311 149.363 48.8381 149.363H68.9532C70.3602 149.363 71.5008 150.497 71.5008 151.896V164.495C71.5008 165.894 70.3602 167.028 68.9532 167.028H48.8381C47.4311 167.028 46.2905 165.894 46.2905 164.495V151.896ZM48.8381 150.376C47.9939 150.376 47.3095 151.056 47.3095 151.896V164.495C47.3095 165.334 47.9939 166.015 48.8381 166.015H68.9532C69.7974 166.015 70.4818 165.334 70.4818 164.495V151.896C70.4818 151.056 69.7974 150.376 68.9532 150.376H48.8381Z" fill="#10141E"/>
<path fill-rule="evenodd" clip-rule="evenodd" d="M76.0644 150.046C76.0644 148.647 77.205 147.512 78.612 147.512H106.171C107.578 147.512 108.718 148.647 108.718 150.046V150.618C108.718 152.017 107.578 153.151 106.171 153.151H104.664C103.82 153.151 103.136 153.832 103.136 154.671V168.196C103.136 169.594 101.995 170.729 100.588 170.729H73.0294C71.6224 170.729 70.4818 169.594 70.4818 168.196V166.698C70.4818 165.299 71.6224 164.165 73.0294 164.165H74.5358C75.38 164.165 76.0644 163.484 76.0644 162.645V150.046ZM78.612 148.526C77.7678 148.526 77.0834 149.206 77.0834 150.046V162.645C77.0834 164.044 75.9428 165.178 74.5358 165.178H73.0294C72.1852 165.178 71.5008 165.858 71.5008 166.698V168.196C71.5008 169.035 72.1852 169.715 73.0294 169.715H100.588C101.432 169.715 102.117 169.035 102.117 168.196V154.671C102.117 153.272 103.257 152.138 104.664 152.138H106.171C107.015 152.138 107.699 151.458 107.699 150.618V150.046C107.699 149.206 107.015 148.526 106.171 148.526H78.612Z" fill="#10141E"/>
<path fill-rule="evenodd" clip-rule="evenodd" d="M46.2905 168.548C46.2905 167.149 47.4311 166.015 48.8381 166.015H68.9532C70.3602 166.015 71.5008 167.149 71.5008 168.548V181.147C71.5008 182.546 70.3602 183.68 68.9532 183.68H48.8381C47.4311 183.68 46.2905 182.546 46.2905 181.147V168.548ZM48.8381 167.028C47.9939 167.028 47.3095 167.709 47.3095 168.548V181.147C47.3095 181.987 47.9939 182.667 48.8381 182.667H68.9532C69.7974 182.667 70.4818 181.987 70.4818 181.147V168.548C70.4818 167.709 69.7974 167.028 68.9532 167.028H48.8381Z" fill="#10141E"/>
<path fill-rule="evenodd" clip-rule="evenodd" d="M107.699 135.244C107.699 133.845 108.84 132.711 110.247 132.711H130.362C131.769 132.711 132.91 133.845 132.91 135.244V147.843C132.91 149.242 131.769 150.376 130.362 150.376H110.247C108.84 150.376 107.699 149.242 107.699 147.843V135.244ZM110.247 133.724C109.403 133.724 108.718 134.404 108.718 135.244V147.843C108.718 148.682 109.403 149.363 110.247 149.363H130.362C131.206 149.363 131.89 148.682 131.89 147.843V135.244C131.89 134.404 131.206 133.724 130.362 133.724H110.247Z" fill="#10141E"/>
<path fill-rule="evenodd" clip-rule="evenodd" d="M107.699 151.896C107.699 150.497 108.84 149.363 110.247 149.363H130.362C131.769 149.363 132.91 150.497 132.91 151.896V164.495C132.91 165.894 131.769 167.028 130.362 167.028H110.247C108.84 167.028 107.699 165.894 107.699 164.495V151.896ZM110.247 150.376C109.403 150.376 108.718 151.056 108.718 151.896V164.495C108.718 165.334 109.403 166.015 110.247 166.015H130.362C131.206 166.015 131.89 165.334 131.89 164.495V151.896C131.89 151.056 131.206 150.376 130.362 150.376H110.247Z" fill="#10141E"/>
<path fill-rule="evenodd" clip-rule="evenodd" d="M107.699 168.548C107.699 167.149 108.84 166.015 110.247 166.015H130.362C131.769 166.015 132.91 167.149 132.91 168.548V181.147C132.91 182.546 131.769 183.68 130.362 183.68H110.247C108.84 183.68 107.699 182.546 107.699 181.147V168.548ZM110.247 167.028C109.403 167.028 108.718 167.709 108.718 168.548V181.147C108.718 181.987 109.403 182.667 110.247 182.667H130.362C131.206 182.667 131.89 181.987 131.89 181.147V168.548C131.89 167.709 131.206 167.028 130.362 167.028H110.247Z" fill="#10141E"/>
</g>
</g>
<defs>
<filter id="filter0_d_111_57" x="0" y="0" width="650" height="391" filterUnits="userSpaceOnUse" color-interpolation-filters="sRGB">
<feFlood flood-opacity="0" result="BackgroundImageFix"/>
<feColorMatrix in="SourceAlpha" type="matrix" values="0 0 0 0 0 0 0 0 0 0 0 0 0 0 0 0 0 0 127 0" result="hardAlpha"/>
<feOffset dy="4"/>
<feGaussianBlur stdDeviation="2"/>
<feComposite in2="hardAlpha" operator="out"/>
<feColorMatrix type="matrix" values="0 0 0 0 0 0 0 0 0 0 0 0 0 0 0 0 0 0 0.25 0"/>
<feBlend mode="normal" in2="BackgroundImageFix" result="effect1_dropShadow_111_57"/>
<feBlend mode="normal" in="SourceGraphic" in2="effect1_dropShadow_111_57" result="shape"/>
</filter>
<filter id="filter1_di_111_57" x="47.9146" y="323.696" width="371.236" height="17.5527" filterUnits="userSpaceOnUse" color-interpolation-filters="sRGB">
<feFlood flood-opacity="0" result="BackgroundImageFix"/>
<feColorMatrix in="SourceAlpha" type="matrix" values="0 0 0 0 0 0 0 0 0 0 0 0 0 0 0 0 0 0 127 0" result="hardAlpha"/>
<feOffset dy="0.5"/>
<feComposite in2="hardAlpha" operator="out"/>
<feColorMatrix type="matrix" values="0 0 0 0 0.0588235 0 0 0 0 0.0901961 0 0 0 0 0.164706 0 0 0 1 0"/>
<feBlend mode="normal" in2="BackgroundImageFix" result="effect1_dropShadow_111_57"/>
<feBlend mode="normal" in="SourceGraphic" in2="effect1_dropShadow_111_57" result="shape"/>
<feColorMatrix in="SourceAlpha" type="matrix" values="0 0 0 0 0 0 0 0 0 0 0 0 0 0 0 0 0 0 127 0" result="hardAlpha"/>
<feOffset dy="0.5"/>
<feGaussianBlur stdDeviation="0.125"/>
<feComposite in2="hardAlpha" operator="arithmetic" k2="-1" k3="1"/>
<feColorMatrix type="matrix" values="0 0 0 0 0.580392 0 0 0 0 0.639216 0 0 0 0 0.721569 0 0 0 1 0"/>
<feBlend mode="normal" in2="shape" result="effect2_innerShadow_111_57"/>
</filter>
<filter id="filter2_ii_111_57" x="46.8" y="127.667" width="85.6" height="61.058" filterUnits="userSpaceOnUse" color-interpolation-filters="sRGB">
<feFlood flood-opacity="0" result="BackgroundImageFix"/>
<feBlend mode="normal" in="SourceGraphic" in2="BackgroundImageFix" result="shape"/>
<feColorMatrix in="SourceAlpha" type="matrix" values="0 0 0 0 0 0 0 0 0 0 0 0 0 0 0 0 0 0 127 0" result="hardAlpha"/>
<feOffset dx="-1" dy="-1"/>
<feComposite in2="hardAlpha" operator="arithmetic" k2="-1" k3="1"/>
<feColorMatrix type="matrix" values="0 0 0 0 0.184314 0 0 0 0 0.152941 0 0 0 0 0.0941176 0 0 0 0.2 0"/>
<feBlend mode="normal" in2="shape" result="effect1_innerShadow_111_57"/>
<feColorMatrix in="SourceAlpha" type="matrix" values="0 0 0 0 0 0 0 0 0 0 0 0 0 0 0 0 0 0 127 0" result="hardAlpha"/>
<feOffset dx="1" dy="1"/>
<feComposite in2="hardAlpha" operator="arithmetic" k2="-1" k3="1"/>
<feColorMatrix type="matrix" values="0 0 0 0 0.184314 0 0 0 0 0.152941 0 0 0 0 0.0941176 0 0 0 0.2 0"/>
<feBlend mode="normal" in2="effect1_innerShadow_111_57" result="effect2_innerShadow_111_57"/>
</filter>
<linearGradient id="paint0_linear_111_57" x1="3.99" y1="382.998" x2="341.018" y2="-181.944" gradientUnits="userSpaceOnUse">
<stop stop-color="#080C17"/>
<stop offset="1" stop-color="#151C29"/>
</linearGradient>
<linearGradient id="paint1_linear_111_57" x1="234.305" y1="320.18" x2="234.305" y2="348.55" gradientUnits="userSpaceOnUse">
<stop stop-color="#475569"/>
<stop offset="1" stop-color="#334155"/>
</linearGradient>
<linearGradient id="paint2_linear_111_57" x1="234.305" y1="320.18" x2="234.305" y2="348.55" gradientUnits="userSpaceOnUse">
<stop stop-color="#475569"/>
<stop offset="1" stop-color="#334155"/>
</linearGradient>
<linearGradient id="paint3_linear_111_57" x1="234.305" y1="320.18" x2="234.305" y2="348.55" gradientUnits="userSpaceOnUse">
<stop stop-color="#475569"/>
<stop offset="1" stop-color="#334155"/>
</linearGradient>
<linearGradient id="paint4_linear_111_57" x1="234.305" y1="320.18" x2="234.305" y2="348.55" gradientUnits="userSpaceOnUse">
<stop stop-color="#475569"/>
<stop offset="1" stop-color="#334155"/>
</linearGradient>
<linearGradient id="paint5_linear_111_57" x1="234.305" y1="320.18" x2="234.305" y2="348.55" gradientUnits="userSpaceOnUse">
<stop stop-color="#475569"/>
<stop offset="1" stop-color="#334155"/>
</linearGradient>
<linearGradient id="paint6_linear_111_57" x1="234.305" y1="320.18" x2="234.305" y2="348.55" gradientUnits="userSpaceOnUse">
<stop stop-color="#475569"/>
<stop offset="1" stop-color="#334155"/>
</linearGradient>
<linearGradient id="paint7_linear_111_57" x1="234.305" y1="320.18" x2="234.305" y2="348.55" gradientUnits="userSpaceOnUse">
<stop stop-color="#475569"/>
<stop offset="1" stop-color="#334155"/>
</linearGradient>
<linearGradient id="paint8_linear_111_57" x1="234.305" y1="320.18" x2="234.305" y2="348.55" gradientUnits="userSpaceOnUse">
<stop stop-color="#475569"/>
<stop offset="1" stop-color="#334155"/>
</linearGradient>
<linearGradient id="paint9_linear_111_57" x1="234.305" y1="320.18" x2="234.305" y2="348.55" gradientUnits="userSpaceOnUse">
<stop stop-color="#475569"/>
<stop offset="1" stop-color="#334155"/>
</linearGradient>
<linearGradient id="paint10_linear_111_57" x1="234.305" y1="320.18" x2="234.305" y2="348.55" gradientUnits="userSpaceOnUse">
<stop stop-color="#475569"/>
<stop offset="1" stop-color="#334155"/>
</linearGradient>
<linearGradient id="paint11_linear_111_57" x1="234.305" y1="320.18" x2="234.305" y2="348.55" gradientUnits="userSpaceOnUse">
<stop stop-color="#475569"/>
<stop offset="1" stop-color="#334155"/>
</linearGradient>
<linearGradient id="paint12_linear_111_57" x1="234.305" y1="320.18" x2="234.305" y2="348.55" gradientUnits="userSpaceOnUse">
<stop stop-color="#475569"/>
<stop offset="1" stop-color="#334155"/>
</linearGradient>
<linearGradient id="paint13_linear_111_57" x1="234.305" y1="320.18" x2="234.305" y2="348.55" gradientUnits="userSpaceOnUse">
<stop stop-color="#475569"/>
<stop offset="1" stop-color="#334155"/>
</linearGradient>
<linearGradient id="paint14_linear_111_57" x1="234.305" y1="320.18" x2="234.305" y2="348.55" gradientUnits="userSpaceOnUse">
<stop stop-color="#475569"/>
<stop offset="1" stop-color="#334155"/>
</linearGradient>
<linearGradient id="paint15_linear_111_57" x1="234.305" y1="320.18" x2="234.305" y2="348.55" gradientUnits="userSpaceOnUse">
<stop stop-color="#475569"/>
<stop offset="1" stop-color="#334155"/>
</linearGradient>
<linearGradient id="paint16_linear_111_57" x1="234.305" y1="320.18" x2="234.305" y2="348.55" gradientUnits="userSpaceOnUse">
<stop stop-color="#475569"/>
<stop offset="1" stop-color="#334155"/>
</linearGradient>
<linearGradient id="paint17_linear_111_57" x1="234.305" y1="320.18" x2="234.305" y2="348.55" gradientUnits="userSpaceOnUse">
<stop stop-color="#475569"/>
<stop offset="1" stop-color="#334155"/>
</linearGradient>
<linearGradient id="paint18_linear_111_57" x1="234.305" y1="320.18" x2="234.305" y2="348.55" gradientUnits="userSpaceOnUse">
<stop stop-color="#475569"/>
<stop offset="1" stop-color="#334155"/>
</linearGradient>
<radialGradient id="paint19_radial_111_57" cx="0" cy="0" r="1" gradientUnits="userSpaceOnUse" gradientTransform="translate(68.2 127.667) rotate(70.6851) scale(64.6996 90.5923)">
<stop stop-color="#C29632"/>
<stop offset="1" stop-color="#C29632" stop-opacity="0"/>
</radialGradient>
<radialGradient id="paint20_radial_111_57" cx="0" cy="0" r="1" gradientUnits="userSpaceOnUse" gradientTransform="translate(132.4 159.121) rotate(145.329) scale(52.0406 72.3961)">
<stop stop-color="#664700"/>
<stop offset="1" stop-color="#664700"/>
</radialGradient>
<radialGradient id="paint21_radial_111_57" cx="0" cy="0" r="1" gradientUnits="userSpaceOnUse" gradientTransform="translate(57.9652 188.725) rotate(-21.6885) scale(80.1057 111.199)">
<stop stop-color="#402200"/>
<stop offset="1" stop-color="#402200" stop-opacity="0"/>
</radialGradient>
<clipPath id="clip0_111_57">
<rect width="42.8" height="52.6878" fill="white" transform="translate(560.4 42.5555)"/>
</clipPath>
</defs>
</svg>
