<svg width="60" height="60" viewBox="0 0 60 60" fill="none" xmlns="http://www.w3.org/2000/svg">
<circle cx="30" cy="30" r="30" fill="#BEF264"/>
<g clip-path="url(#clip0_102_51)">
<path fill-rule="evenodd" clip-rule="evenodd" d="M30 22C25.5817 22 22 25.5817 22 30C22 34.4183 25.5817 38 30 38C34.4183 38 38 34.4183 38 30C38 25.5817 34.4183 22 30 22ZM20 30C20 24.4772 24.4772 20 30 20C35.5228 20 40 24.4772 40 30C40 35.5228 35.5228 40 30 40C24.4772 40 20 35.5228 20 30ZM30 25C30.5523 25 31 25.4477 31 26V29.5858L33.7071 32.2929C34.0976 32.6834 34.0976 33.3166 33.7071 33.7071C33.3166 34.0976 32.6834 34.0976 32.2929 33.7071L29.2929 30.7071C29.1054 30.5196 29 30.2652 29 30V26C29 25.4477 29.4477 25 30 25Z" fill="#171717"/>
</g>
<defs>
<clipPath id="clip0_102_51">
<rect width="24" height="24" fill="white" transform="translate(18 18)"/>
</clipPath>
</defs>
</svg>
