<svg width="60" height="60" viewBox="0 0 60 60" fill="none" xmlns="http://www.w3.org/2000/svg">
<circle cx="30" cy="30" r="30" fill="#171717"/>
<g clip-path="url(#clip0_111_122)">
<g clip-path="url(#clip1_111_122)">
<path d="M34.95 28.2985H25.05C24.9366 28.2985 24.8438 28.3913 24.8438 28.5047V38.8688C24.8438 38.9822 24.9366 39.075 25.05 39.075H34.95C35.0634 39.075 35.1562 38.9822 35.1562 38.8688V28.5047C35.1562 28.3913 35.0634 28.2985 34.95 28.2985ZM26.4937 29.9485H33.5062V32.9649H26.4937V29.9485ZM33.5062 37.425H26.4937V34.4086H33.5062V37.425Z" fill="#BEF264"/>
<path d="M27.7313 36.0845C27.7313 36.3033 27.8182 36.5131 27.973 36.6678C28.1277 36.8226 28.3375 36.9095 28.5563 36.9095C28.7751 36.9095 28.985 36.8226 29.1397 36.6678C29.2944 36.5131 29.3813 36.3033 29.3813 36.0845C29.3813 35.8657 29.2944 35.6558 29.1397 35.5011C28.985 35.3464 28.7751 35.2595 28.5563 35.2595C28.3375 35.2595 28.1277 35.3464 27.973 35.5011C27.8182 35.6558 27.7313 35.8657 27.7313 36.0845ZM27.7313 31.4954C27.7313 31.7142 27.8182 31.9241 27.973 32.0788C28.1277 32.2335 28.3375 32.3204 28.5563 32.3204C28.7751 32.3204 28.985 32.2335 29.1397 32.0788C29.2944 31.9241 29.3813 31.7142 29.3813 31.4954C29.3813 31.2766 29.2944 31.0668 29.1397 30.912C28.985 30.7573 28.7751 30.6704 28.5563 30.6704C28.3375 30.6704 28.1277 30.7573 27.973 30.912C27.8182 31.0668 27.7313 31.2766 27.7313 31.4954Z" fill="#BEF264"/>
<path d="M37.7189 26.3107C36.5382 23.1937 33.5295 20.9766 30.0052 20.9766C26.4809 20.9766 23.4722 23.1912 22.2914 26.3081C20.0717 26.8934 18.4371 28.9223 18.45 31.3303C18.4655 34.0219 20.5538 36.2107 23.1835 36.4453C23.3046 36.4556 23.4078 36.3602 23.4078 36.2391V34.6819C23.4078 34.5788 23.3304 34.4911 23.2273 34.4782C22.5312 34.3905 21.8738 34.0863 21.3685 33.5888C20.7497 32.9829 20.4094 32.1682 20.4094 31.3045C20.4094 30.5827 20.644 29.902 21.0849 29.3348C21.5154 28.7831 22.1213 28.3835 22.789 28.2082L23.7661 27.9504L24.1245 27.0042C24.3462 26.4164 24.6556 25.8647 25.0449 25.3671C25.429 24.8721 25.8853 24.439 26.3958 24.078C27.4554 23.333 28.7032 22.9385 30.0052 22.9385C31.3071 22.9385 32.5549 23.333 33.6146 24.0806C34.1276 24.4416 34.5814 24.8747 34.9655 25.3697C35.3548 25.8673 35.6642 26.419 35.8859 27.0068L36.2417 27.9504L37.2162 28.2082C38.6135 28.5795 39.5907 29.8505 39.5907 31.302C39.5907 32.1682 39.2503 32.9803 38.6316 33.5862C38.1289 34.0812 37.474 34.388 36.7779 34.4756C36.6748 34.4885 36.6 34.5762 36.6 34.6793V36.2391C36.6 36.3602 36.7057 36.4556 36.8269 36.4453C39.4489 36.2081 41.532 34.0219 41.55 31.3355C41.5655 28.9275 39.9335 26.8985 37.7189 26.3107V26.3107Z" fill="#BEF264"/>
</g>
</g>
<defs>
<clipPath id="clip0_111_122">
<rect width="24" height="24" fill="white" transform="translate(18 18)"/>
</clipPath>
<clipPath id="clip1_111_122">
<rect width="24" height="24" fill="white" transform="translate(18 18)"/>
</clipPath>
</defs>
</svg>
