<svg width="60" height="60" viewBox="0 0 60 60" fill="none" xmlns="http://www.w3.org/2000/svg">
<circle cx="30" cy="30" r="30" fill="#171717"/>
<g clip-path="url(#clip0_111_108)">
<path d="M25.02 25.9038C24.4959 26.2128 23.877 26.3201 23.2794 26.2055C22.6818 26.0909 22.1465 25.7623 21.7739 25.2812C21.4012 24.8002 21.2168 24.1997 21.2552 23.5925C21.2936 22.9852 21.5522 22.4127 21.9825 21.9825C22.4127 21.5522 22.9852 21.2936 23.5925 21.2552C24.1997 21.2168 24.8002 21.4012 25.2812 21.7739C25.7623 22.1465 26.0909 22.6818 26.2055 23.2794C26.3201 23.877 26.2128 24.4959 25.9038 25.02L28.73 27.845C29.1147 27.6181 29.5534 27.4989 30 27.5C30.4625 27.5 30.8975 27.6263 31.27 27.8463L34.095 25.02C33.786 24.4959 33.6787 23.877 33.7933 23.2794C33.9079 22.6818 34.2365 22.1465 34.7176 21.7739C35.1986 21.4012 35.7991 21.2168 36.4063 21.2552C37.0136 21.2936 37.586 21.5522 38.0163 21.9825C38.4466 22.4127 38.7052 22.9852 38.7436 23.5925C38.782 24.1997 38.5976 24.8002 38.2249 25.2812C37.8523 25.7623 37.317 26.0909 36.7194 26.2055C36.1218 26.3201 35.5029 26.2128 34.9788 25.9038L32.1538 28.73C32.3816 29.1145 32.5018 29.5531 32.5018 30C32.5018 30.4469 32.3816 30.8856 32.1538 31.27L34.98 34.095C35.5042 33.786 36.1231 33.6787 36.7207 33.7933C37.3183 33.9079 37.8536 34.2365 38.2262 34.7176C38.5988 35.1986 38.7832 35.7991 38.7448 36.4063C38.7064 37.0136 38.4478 37.586 38.0176 38.0163C37.5873 38.4466 37.0149 38.7052 36.4076 38.7436C35.8003 38.782 35.1999 38.5976 34.7188 38.2249C34.2378 37.8523 33.9092 37.317 33.7945 36.7194C33.6799 36.1218 33.7872 35.5029 34.0963 34.9788L31.27 32.1538C30.8855 32.3811 30.4468 32.5007 30 32.5C29.5533 32.5007 29.1146 32.3811 28.73 32.1538L25.905 34.98C26.2141 35.5042 26.3214 36.1231 26.2068 36.7207C26.0921 37.3183 25.7635 37.8536 25.2825 38.2262C24.8014 38.5988 24.201 38.7832 23.5937 38.7448C22.9864 38.7064 22.414 38.4478 21.9837 38.0176C21.5535 37.5873 21.2949 37.0149 21.2565 36.4076C21.2181 35.8003 21.4025 35.1999 21.7751 34.7188C22.1477 34.2378 22.683 33.9092 23.2806 33.7945C23.8782 33.6799 24.4971 33.7872 25.0213 34.0963L27.8463 31.27C27.6189 30.8855 27.4993 30.4468 27.5 30C27.5 29.5375 27.6263 29.1025 27.8463 28.73L25.02 25.905V25.9038Z" fill="#BEF264"/>
</g>
<defs>
<clipPath id="clip0_111_108">
<rect width="24" height="24" fill="white" transform="translate(18 18)"/>
</clipPath>
</defs>
</svg>
