<svg width="60" height="60" viewBox="0 0 60 60" fill="none" xmlns="http://www.w3.org/2000/svg">
<circle cx="30" cy="30" r="30" fill="#BEF264"/>
<g clip-path="url(#clip0_102_58)">
<path fill-rule="evenodd" clip-rule="evenodd" d="M30 22C25.5817 22 22 25.5817 22 30C22 34.4183 25.5817 38 30 38C34.4183 38 38 34.4183 38 30C38 25.5817 34.4183 22 30 22ZM20 30C20 24.4772 24.4772 20 30 20C35.5228 20 40 24.4772 40 30C40 35.5228 35.5228 40 30 40C24.4772 40 20 35.5228 20 30ZM26 28C26 27.4477 26.4477 27 27 27H27.01C27.5623 27 28.01 27.4477 28.01 28C28.01 28.5523 27.5623 29 27.01 29H27C26.4477 29 26 28.5523 26 28ZM32 28C32 27.4477 32.4477 27 33 27H33.01C33.5623 27 34.01 27.4477 34.01 28C34.01 28.5523 33.5623 29 33.01 29H33C32.4477 29 32 28.5523 32 28ZM26.4645 32.1213C26.855 31.7308 27.4882 31.7308 27.8787 32.1213C29.0503 33.2929 30.9497 33.2929 32.1213 32.1213C32.5118 31.7308 33.145 31.7308 33.5355 32.1213C33.9261 32.5118 33.9261 33.145 33.5355 33.5355C31.5829 35.4882 28.4171 35.4882 26.4645 33.5355C26.0739 33.145 26.0739 32.5118 26.4645 32.1213Z" fill="#171717"/>
</g>
<defs>
<clipPath id="clip0_102_58">
<rect width="24" height="24" fill="white" transform="translate(18 18)"/>
</clipPath>
</defs>
</svg>
