<svg width="50" height="50" viewBox="0 0 50 50" fill="none" xmlns="http://www.w3.org/2000/svg">
<rect width="50" height="50" rx="15" fill="#F59E0B"/>
<path d="M32.1875 17.1875H17.8125C17.4668 17.1875 17.1875 17.4668 17.1875 17.8125V32.1875C17.1875 32.5332 17.4668 32.8125 17.8125 32.8125H32.1875C32.5332 32.8125 32.8125 32.5332 32.8125 32.1875V17.8125C32.8125 17.4668 32.5332 17.1875 32.1875 17.1875ZM31.4062 26.25H25.3125V23.75H31.4062V26.25ZM31.4062 31.4062H18.5938V18.5938H31.4062V22.5H24.6875C24.3418 22.5 24.0625 22.7793 24.0625 23.125V26.875C24.0625 27.2207 24.3418 27.5 24.6875 27.5H31.4062V31.4062ZM26.3281 25C26.3281 25.2072 26.4104 25.4059 26.5569 25.5524C26.7035 25.6989 26.9022 25.7812 27.1094 25.7812C27.3166 25.7812 27.5153 25.6989 27.6618 25.5524C27.8083 25.4059 27.8906 25.2072 27.8906 25C27.8906 24.7928 27.8083 24.5941 27.6618 24.4476C27.5153 24.3011 27.3166 24.2188 27.1094 24.2188C26.9022 24.2188 26.7035 24.3011 26.5569 24.4476C26.4104 24.5941 26.3281 24.7928 26.3281 25Z" fill="white"/>
</svg>
