<svg width="50" height="50" viewBox="0 0 50 50" fill="none" xmlns="http://www.w3.org/2000/svg">
<rect width="50" height="50" rx="15" fill="#3B82F6"/>
<path d="M33.125 18.125H16.875C16.5293 18.125 16.25 18.4043 16.25 18.75V31.25C16.25 31.5957 16.5293 31.875 16.875 31.875H33.125C33.4707 31.875 33.75 31.5957 33.75 31.25V18.75C33.75 18.4043 33.4707 18.125 33.125 18.125ZM17.6562 19.5312H32.3438V21.875H17.6562V19.5312ZM32.3438 30.4688H17.6562V23.5938H32.3438V30.4688ZM27.7148 29.2188H30.9375C31.0234 29.2188 31.0938 29.1484 31.0938 29.0625V27.6562C31.0938 27.5703 31.0234 27.5 30.9375 27.5H27.7148C27.6289 27.5 27.5586 27.5703 27.5586 27.6562V29.0625C27.5586 29.1484 27.6289 29.2188 27.7148 29.2188Z" fill="white"/>
</svg>
