<svg width="50" height="50" viewBox="0 0 50 50" fill="none" xmlns="http://www.w3.org/2000/svg">
<rect width="50" height="50" rx="15" fill="#EF4444"/>
<g clip-path="url(#clip0_102_112)">
<path d="M26.479 22.883C24.853 22.279 23.967 21.816 23.967 21.08C23.967 20.458 24.478 20.103 25.39 20.103C27.057 20.103 28.769 20.745 29.948 21.323L30.614 17.212C29.679 16.766 27.767 16.035 25.124 16.035C23.254 16.035 21.699 16.524 20.588 17.436C19.433 18.39 18.831 19.77 18.831 21.436C18.831 24.459 20.678 25.748 23.678 26.839C25.614 27.527 26.257 28.017 26.257 28.773C26.257 29.505 25.628 29.928 24.495 29.928C23.092 29.928 20.779 29.239 19.264 28.35L18.59 32.507C19.894 33.239 22.295 33.995 24.787 33.995C26.763 33.995 28.411 33.528 29.522 32.639C30.767 31.662 31.412 30.217 31.412 28.35C31.412 25.259 29.523 23.97 26.477 22.882H26.479V22.883Z" fill="white"/>
</g>
<defs>
<clipPath id="clip0_102_112">
<rect width="24" height="24" fill="white" transform="translate(13 13)"/>
</clipPath>
</defs>
</svg>
