<svg width="60" height="60" viewBox="0 0 60 60" fill="none" xmlns="http://www.w3.org/2000/svg">
<circle cx="30" cy="30" r="30" fill="#BEF264"/>
<g clip-path="url(#clip0_1_40)">
<path fill-rule="evenodd" clip-rule="evenodd" d="M29.333 20.1992C29.7127 19.8594 30.2872 19.8594 30.6669 20.1992C32.6136 21.9416 35.182 23 38 23C38.1903 23 38.3794 22.9951 38.5672 22.9856C39.0414 22.9616 39.467 23.2742 39.586 23.7338C39.8564 24.7785 40 25.8732 40 27C40 33.0589 35.856 38.1473 30.2493 39.5904C30.0858 39.6325 29.9143 39.6325 29.7507 39.5904C24.144 38.1473 20 33.0589 20 27C20 25.8732 20.1436 24.7784 20.414 23.7336C20.533 23.2741 20.9587 22.9615 21.4328 22.9855C21.6206 22.995 21.8097 22.9998 22 22.9998C24.8179 22.9998 27.3863 21.9416 29.333 20.1992ZM22.1815 24.9986C22.0623 25.647 22 26.3159 22 27C22 32.034 25.3824 36.2805 30 37.5862C34.6176 36.2805 38 32.034 38 27C38 26.3159 37.9377 25.6471 37.8186 24.9987C34.8723 24.9584 32.1613 23.937 29.9999 22.2475C27.8386 23.9369 25.1276 24.9583 22.1815 24.9986ZM33.7071 27.2929C34.0976 27.6834 34.0976 28.3166 33.7071 28.7071L29.7071 32.7071C29.3166 33.0976 28.6834 33.0976 28.2929 32.7071L26.2929 30.7071C25.9024 30.3166 25.9024 29.6834 26.2929 29.2929C26.6834 28.9024 27.3166 28.9024 27.7071 29.2929L29 30.5858L32.2929 27.2929C32.6834 26.9024 33.3166 26.9024 33.7071 27.2929Z" fill="#171717"/>
</g>
<defs>
<clipPath id="clip0_1_40">
<rect width="24" height="24" fill="white" transform="translate(18 18)"/>
</clipPath>
</defs>
</svg>
