<svg width="750" height="750" viewBox="0 0 750 750" fill="none" xmlns="http://www.w3.org/2000/svg">
<path fill-rule="evenodd" clip-rule="evenodd" d="M1.99998 375C1.99997 581.002 168.998 748 375 748C581.002 748 748 581.002 748 375C748 168.998 581.002 1.99999 375 1.99998C168.998 1.99997 1.99999 168.998 1.99998 375ZM-1.63918e-05 375C-2.54447e-05 582.107 167.893 750 375 750C582.107 750 750 582.107 750 375C750 167.893 582.107 -7.33885e-06 375 -1.63918e-05C167.893 -2.54447e-05 -7.33885e-06 167.893 -1.63918e-05 375Z" fill="url(#paint0_radial_28_86)"/>
<defs>
<radialGradient id="paint0_radial_28_86" cx="0" cy="0" r="1" gradientUnits="userSpaceOnUse" gradientTransform="translate(375 -1.63918e-05) rotate(90) scale(750)">
<stop stop-color="white"/>
<stop offset="0.161458" stop-color="white" stop-opacity="0.2"/>
<stop offset="1" stop-color="white" stop-opacity="0.2"/>
</radialGradient>
</defs>
</svg>
