<svg width="24" height="24" viewBox="0 0 24 24" fill="none" xmlns="http://www.w3.org/2000/svg">
<path d="M17.0717 8.31261C17.4042 7.4469 16.5531 6.59576 15.6874 6.92833L11.406 8.57404C10.7618 8.82148 10.1768 9.20142 9.68885 9.68927C9.20085 10.1771 8.82074 10.762 8.5731 11.406L6.92824 15.6875C6.59567 16.5532 7.44682 17.4043 8.31253 17.0718L12.594 15.426C13.2381 15.1786 13.8231 14.7987 14.3111 14.3108C14.7991 13.823 15.1792 13.2381 15.4268 12.594L17.0717 8.31261ZM11.8671 9.77318L15.6985 8.30147L14.2268 12.1329C14.0439 12.6091 13.7629 13.0416 13.4022 13.4023C13.0415 13.763 12.609 14.0439 12.1328 14.2269L8.30139 15.6986L9.7731 11.8672C9.95606 11.391 10.237 10.9585 10.5977 10.5978C10.9584 10.2371 11.3909 9.95614 11.8671 9.77318Z" fill="#06B6D4"/>
<circle cx="12" cy="12" r="11.25" stroke="black" stroke-width="1.5"/>
</svg>
